<?xml version="1.0" standalone="no"?>
<!DOCTYPE svg PUBLIC "-//W3C//DTD SVG 20010904//EN"
 "http://www.w3.org/TR/2001/REC-SVG-20010904/DTD/svg10.dtd">
<svg version="1.0" xmlns="http://www.w3.org/2000/svg"
 width="289.000000pt" height="289.000000pt" viewBox="0 0 289.000000 289.000000"
 preserveAspectRatio="xMidYMid meet">

<g transform="translate(0.000000,289.000000) scale(0.100000,-0.100000)"
fill="#000000" stroke="none">
<path d="M402 2695 c-27 -23 -51 -79 -39 -91 11 -11 59 19 77 48 39 65 17 89
-38 43z"/>
<path d="M235 2601 c-33 -14 -63 -53 -74 -98 -30 -111 63 -297 138 -278 60 15
92 16 125 5 53 -17 84 3 127 83 l20 38 -29 29 c-16 16 -32 41 -35 56 -6 33 9
88 28 104 23 19 18 34 -16 54 -24 14 -40 17 -73 11 -53 -10 -101 -10 -151 -2
-22 4 -49 3 -60 -2z"/>
<path d="M1660 2059 c0 -5 5 -7 10 -4 6 3 10 8 10 11 0 2 -4 4 -10 4 -5 0 -10
-5 -10 -11z"/>
<path d="M382 1573 c-57 -39 -117 -102 -145 -154 l-18 -34 22 30 c29 39 135
144 174 172 48 35 25 26 -33 -14z"/>
<path d="M2407 1104 c-3 -4 -35 -14 -69 -24 -44 -12 -64 -22 -66 -35 -3 -14 1
-16 20 -11 12 3 52 14 88 24 44 12 66 23 68 35 3 17 -27 25 -41 11z"/>
<path d="M1471 886 c-12 -32 -20 -60 -18 -63 7 -6 48 98 44 110 -2 7 -14 -14
-26 -47z"/>
<path d="M240 882 c0 -4 14 -23 30 -42 l31 -35 -27 43 c-26 42 -34 49 -34 34z"/>
<path d="M160 797 c0 -25 4 -48 8 -51 9 -5 7 82 -2 91 -3 4 -6 -14 -6 -40z"/>
<path d="M166 717 c3 -10 9 -15 12 -12 3 3 0 11 -7 18 -10 9 -11 8 -5 -6z"/>
<path d="M828 533 c6 -2 18 -2 25 0 6 3 1 5 -13 5 -14 0 -19 -2 -12 -5z"/>
<path d="M558 319 c-22 -12 -24 -49 -3 -49 8 0 15 7 15 15 0 20 29 19 37 -2 4
-11 -4 -25 -25 -44 -16 -15 -35 -37 -42 -48 -10 -20 -8 -21 45 -21 30 0 55 5
55 10 0 6 -13 10 -30 10 -16 0 -30 3 -30 6 0 3 14 17 30 31 62 52 16 132 -52
92z"/>
<path d="M670 250 c0 -63 3 -80 15 -80 10 0 15 15 17 58 l3 57 13 -57 c10 -45
18 -58 32 -58 14 0 22 13 32 58 l13 57 3 -57 c2 -43 7 -58 17 -58 12 0 15 17
15 80 0 78 -1 80 -24 80 -26 0 -30 -8 -42 -72 -6 -38 -24 -53 -24 -20 0 9 -5
34 -11 55 -8 30 -15 37 -34 37 -24 0 -25 -2 -25 -80z"/>
<path d="M850 315 c0 -9 9 -15 25 -15 24 0 25 -2 25 -65 0 -51 3 -65 15 -65
12 0 15 14 15 65 0 63 1 65 25 65 16 0 25 6 25 15 0 12 -14 15 -65 15 -51 0
-65 -3 -65 -15z"/>
<path d="M1012 318 c-16 -16 -15 -53 1 -66 6 -6 26 -14 42 -18 41 -9 45 -12
38 -29 -7 -19 -47 -19 -63 0 -17 21 -30 19 -30 -5 0 -39 71 -54 110 -22 36 29
21 68 -30 82 -44 12 -59 28 -39 41 19 12 25 11 43 -6 8 -8 19 -15 25 -15 15 0
14 23 -1 38 -16 16 -80 16 -96 0z"/>
</g>
</svg>
