<?xml version="1.0" standalone="no"?>
<!DOCTYPE svg PUBLIC "-//W3C//DTD SVG 20010904//EN"
 "http://www.w3.org/TR/2001/REC-SVG-20010904/DTD/svg10.dtd">
<svg version="1.0" xmlns="http://www.w3.org/2000/svg"
 width="395.000000pt" height="500.000000pt" viewBox="0 0 395.000000 500.000000"
 preserveAspectRatio="xMidYMid meet">

<g transform="translate(0.000000,500.000000) scale(0.100000,-0.100000)"
fill="#000000" stroke="none">
<path d="M2319 4746 c-143 -38 -268 -182 -287 -331 -11 -83 3 -158 42 -240 32
-66 35 -79 45 -225 6 -85 11 -191 12 -235 l2 -80 -484 -8 c-424 -6 -498 -10
-599 -28 -285 -51 -486 -130 -598 -234 -69 -63 -101 -112 -131 -196 -11 -30
-30 -81 -42 -114 -19 -50 -24 -84 -27 -210 -4 -176 14 -279 73 -401 60 -123
175 -232 234 -219 15 3 28 12 28 20 0 12 -3 12 -16 2 -12 -10 -13 -9 -7 1 5 8
1 21 -11 34 -13 15 -2 12 44 -13 l62 -34 -47 -12 c-26 -7 -56 -16 -67 -21 -11
-5 -54 -19 -95 -32 -87 -26 -127 -45 -155 -71 -11 -11 -36 -30 -55 -42 l-35
-23 0 -259 c0 -143 1 -478 3 -743 l2 -484 30 -28 c25 -23 30 -36 30 -75 0 -40
5 -52 33 -80 18 -18 51 -38 72 -44 191 -55 1590 -85 2445 -53 540 20 717 36
785 69 56 28 65 42 65 99 0 46 4 57 30 81 l29 28 7 741 7 741 -27 19 c-15 10
-45 33 -67 51 -47 37 -111 63 -251 99 -57 14 -110 28 -118 31 -8 2 20 22 65
47 l80 42 8 -27 c11 -42 32 -42 75 0 126 123 192 310 192 546 0 128 -21 214
-89 357 -58 125 -108 182 -216 246 -145 85 -447 166 -666 179 l-111 6 7 81 c3
45 9 89 11 99 7 23 45 22 78 -4 46 -36 121 -59 194 -59 87 0 155 31 222 101
134 139 147 322 34 448 -43 48 -130 101 -166 101 -10 0 -29 18 -44 42 -15 23
-50 67 -78 96 -170 181 -385 265 -557 218z m289 -261 c14 -30 15 -45 4 -45 -4
0 -12 15 -17 32 -7 24 -34 52 -93 99 -120 95 -124 105 -6 16 55 -42 106 -88
112 -102z m59 127 c56 -29 161 -124 173 -157 4 -11 5 -25 3 -32 -8 -19 -51
-44 -104 -57 l-49 -13 0 54 c0 71 -18 102 -90 158 -49 38 -58 48 -47 60 19 22
57 17 114 -13z m-361 -571 c8 6 55 65 105 130 49 66 93 119 96 119 3 0 1 -6
-5 -12 -6 -7 -43 -76 -82 -153 -108 -210 -120 -229 -136 -213 -9 10 -80 217
-131 388 -3 8 28 -49 67 -128 59 -117 75 -141 86 -131z m37 -185 c-21 -47 -41
-86 -44 -86 -4 0 -9 8 -12 18 -3 9 -15 44 -26 76 -28 79 -26 90 5 36 14 -25
27 -46 29 -48 1 -2 19 20 39 49 21 28 40 49 43 46 3 -3 -12 -44 -34 -91z
m-1873 -550 c0 -2 -8 -10 -17 -17 -16 -13 -17 -12 -4 4 13 16 21 21 21 13z
m872 -28 c-6 -6 -49 -41 -94 -77 -47 -38 -90 -81 -100 -101 -14 -28 -17 -31
-18 -14 0 30 21 53 125 134 83 65 115 86 87 58z m-912 -1 c0 -2 -19 -21 -42
-42 l-43 -40 40 43 c36 39 45 47 45 39z m765 -17 c4 -6 12 -8 18 -5 7 4 -8
-11 -33 -32 -119 -102 -114 -94 -118 -170 l-4 -69 -29 4 c-16 2 -32 8 -35 13
-3 5 -14 9 -24 9 -10 0 -31 10 -46 23 -35 30 -28 49 41 119 78 81 209 142 230
108z m685 -124 c0 -6 -12 -19 -26 -29 -20 -15 -28 -16 -40 -6 -13 11 -11 16
13 39 27 26 53 24 53 -4z m-110 -85 c0 -3 -8 -11 -18 -17 -16 -10 -18 -7 -18
29 l-2 41 19 -23 c11 -13 19 -26 19 -30z m1530 -31 c8 -5 11 -10 5 -10 -5 0
-21 10 -35 21 -24 20 -5 13 30 -11z m-1054 -27 c49 -28 63 -42 68 -66 8 -38 8
-127 0 -127 -3 0 -34 16 -69 35 l-64 36 -3 79 c-2 44 -1 80 1 80 2 0 32 -16
67 -37z m330 21 c-3 -9 -6 -44 -6 -79 0 -48 -4 -64 -16 -69 -13 -5 -15 5 -12
72 2 42 8 80 13 84 17 13 27 9 21 -8z m779 6 c3 -5 1 -10 -4 -10 -6 0 -11 5
-11 10 0 6 2 10 4 10 3 0 8 -4 11 -10z m-826 -90 c-1 -44 -6 -83 -10 -86 -10
-6 -12 149 -2 159 13 13 14 6 12 -73z m-1203 -115 c37 -49 82 -105 99 -123
l30 -33 68 133 c38 73 66 124 63 113 -2 -11 -25 -87 -51 -169 -47 -152 -69
-206 -84 -206 -4 0 -43 69 -86 153 -43 83 -89 172 -103 197 -33 59 -19 45 64
-65z m2023 89 c2 -2 5 -32 6 -65 2 -81 -18 -106 -95 -118 -31 -5 -62 -5 -70 0
-13 7 -13 8 2 9 26 0 55 110 28 110 -5 0 -10 9 -10 20 0 11 6 19 12 18 7 -2
14 7 16 20 3 21 7 22 55 16 29 -4 54 -8 56 -10z m-209 -91 c-1 -88 -2 -96 -15
-79 -21 28 -21 176 0 176 12 0 15 -17 15 -97z m-334 21 c-10 -27 13 -57 40
-51 43 8 29 -7 -61 -67 -27 -18 -59 -43 -70 -56 -23 -25 -75 -55 -75 -42 0 4
4 12 10 18 5 5 25 47 43 93 30 74 38 85 73 101 49 23 47 23 40 4z m-1016 -78
c0 -2 -8 -10 -17 -17 -16 -13 -17 -12 -4 4 13 16 21 21 21 13z m1245 -106 c-3
-5 -12 -10 -18 -10 -7 0 -6 4 3 10 19 12 23 12 15 0z m-55 -41 c-54 -42 -83
-62 -76 -50 9 14 85 71 95 71 3 0 -5 -9 -19 -21z m455 -11 c-30 -35 -112 -98
-129 -98 -5 0 10 13 35 29 24 15 60 45 78 65 43 45 52 47 16 4z m-2020 -70
l38 -52 28 55 c15 30 28 47 29 38 0 -18 -33 -116 -50 -150 -13 -24 -14 -23
-82 124 -25 53 -6 46 37 -15z m1528 -102 c-79 -54 -136 -86 -150 -86 -4 0 15
13 42 28 64 35 137 86 154 106 7 9 17 13 22 10 5 -3 -26 -29 -68 -58z m-535
-112 c7 -14 15 -23 20 -21 4 3 25 -13 46 -34 l39 -39 -51 0 c-50 0 -52 2 -71
38 -32 64 -35 82 -13 82 10 0 24 -11 30 -26z m-645 -15 c-6 -21 -3 -22 47 -17
29 3 46 2 39 -2 -8 -4 -41 -10 -75 -14 l-61 -7 5 31 c3 23 9 30 27 30 19 0 22
-4 18 -21z m97 13 c0 -5 -13 -7 -30 -4 -16 2 -30 6 -30 8 0 2 14 4 30 4 17 0
30 -4 30 -8z m320 -19 c0 -27 -1 -28 -50 -25 -45 4 -50 6 -50 28 0 22 4 24 50
24 48 0 50 -1 50 -27z m579 -4 c36 -7 77 -20 90 -30 13 -11 31 -19 41 -19 25
0 29 -9 18 -41 -10 -30 -11 -30 -67 -23 -64 7 -77 15 -85 49 -4 14 -24 35 -49
49 -47 29 -41 31 52 15z m-1809 -80 l13 -31 13 24 c13 23 13 23 14 -8 0 -29
-3 -32 -37 -38 -21 -3 -48 -6 -61 -6 -21 0 -22 1 -8 16 9 8 16 22 16 30 0 8 5
12 10 9 6 -3 10 1 10 9 0 8 -10 17 -22 19 -17 3 -15 5 8 6 26 1 34 -4 44 -30z
m793 14 c-7 -2 -21 -2 -30 0 -10 3 -4 5 12 5 17 0 24 -2 18 -5z m-93 -14 c-25
-4 -56 -7 -70 -7 -38 1 37 15 80 15 32 0 31 0 -10 -8z m-112 -16 c-10 -2 -26
-2 -35 0 -10 3 -2 5 17 5 19 0 27 -2 18 -5z m-65 -10 c-7 -2 -21 -2 -30 0 -10
3 -4 5 12 5 17 0 24 -2 18 -5z m-65 -9 c-9 -9 -735 -105 -888 -118 -36 -2 -72
-1 -79 3 -8 5 23 11 75 16 134 10 798 92 819 100 16 6 79 6 73 -1z m1947 -59
l30 -13 -32 -1 c-44 -1 -134 19 -128 29 6 10 93 0 130 -15z m-1047 -587 c-143
-321 -276 -620 -296 -666 -19 -45 -37 -80 -39 -78 -7 6 50 139 304 709 129
291 243 548 253 573 11 24 23 44 29 44 5 0 -108 -262 -251 -582z m939 556 c-3
-3 -12 -4 -19 -1 -8 3 -5 6 6 6 11 1 17 -2 13 -5z m-2094 -11 c-7 -2 -19 -2
-25 0 -7 3 -2 5 12 5 14 0 19 -2 13 -5z m2195 0 c-10 -2 -26 -2 -35 0 -10 3
-2 5 17 5 19 0 27 -2 18 -5z m-2275 -10 c-7 -2 -19 -2 -25 0 -7 3 -2 5 12 5
14 0 19 -2 13 -5z m508 -178 c274 -438 369 -588 383 -602 11 -12 90 108 440
667 38 61 71 109 72 107 3 -3 -85 -208 -196 -457 -15 -36 -54 -123 -85 -195
-156 -357 -218 -486 -230 -473 -13 13 -122 255 -243 533 -38 88 -78 180 -89
205 -22 48 -66 150 -132 299 -64 145 -65 146 80 -84z m1862 178 c-13 -2 -33
-2 -45 0 -13 2 -3 4 22 4 25 0 35 -2 23 -4z m-3143 -18 c0 -8 -4 -15 -10 -15
-5 0 -10 7 -10 15 0 8 5 15 10 15 6 0 10 -7 10 -15z m693 8 c-7 -2 -19 -2 -25
0 -7 3 -2 5 12 5 14 0 19 -2 13 -5z m-80 -10 c-7 -2 -19 -2 -25 0 -7 3 -2 5
12 5 14 0 19 -2 13 -5z m-65 -10 c-10 -2 -28 -2 -40 0 -13 2 -5 4 17 4 22 1
32 -1 23 -4z m-85 -10 c-13 -2 -33 -2 -45 0 -13 2 -3 4 22 4 25 0 35 -2 23 -4z
m-114 -13 c-26 -4 -87 -10 -135 -13 l-89 -5 100 12 c115 15 202 19 124 6z
m516 -200 c0 -25 -1 -25 -95 -25 l-95 0 -3 -52 c-3 -49 -5 -53 -28 -53 -23 0
-24 2 -24 80 l0 81 123 -3 122 -3 0 -25z m-86 -166 c25 -20 31 -34 31 -64 0
-53 -8 -68 -43 -86 -34 -18 -37 -16 -64 59 -9 26 -21 47 -26 47 -5 0 -7 -24
-5 -52 4 -65 -18 -73 -40 -16 -39 101 66 181 147 112z m-36 -181 c62 -5 67 -8
67 -29 0 -13 -5 -24 -12 -24 -9 0 -9 -3 0 -12 19 -19 14 -76 -8 -98 -16 -16
-33 -20 -90 -20 -70 0 -70 0 -70 28 0 27 1 27 61 27 48 0 64 4 73 18 16 24 -4
51 -40 55 -81 7 -94 12 -94 37 0 28 4 29 113 18z m41 -229 c20 -21 26 -37 26
-71 0 -57 -33 -93 -84 -93 -85 0 -130 107 -71 165 34 35 93 34 129 -1z m26
-189 c0 -18 -8 -28 -27 -36 -16 -6 -41 -17 -58 -24 l-30 -12 55 -20 c48 -18
55 -24 58 -51 l3 -30 -88 38 c-80 34 -88 40 -91 67 -3 29 0 31 80 61 46 17 86
31 91 31 4 1 7 -10 7 -24z m754 -197 c53 -75 100 -140 105 -143 9 -5 31 25
152 202 35 51 65 91 66 89 2 -2 -21 -52 -50 -112 -30 -60 -78 -157 -106 -216
-28 -60 -55 -108 -60 -108 -9 0 -61 103 -130 253 -17 38 -45 96 -62 130 -40
79 -32 71 85 -95z m-781 7 c31 -32 39 -71 22 -112 -39 -93 -175 -57 -175 47 0
56 34 90 88 90 29 0 46 -7 65 -25z"/>
<path d="M1020 1613 c0 -21 26 -73 35 -70 15 5 18 46 5 63 -13 14 -40 20 -40
7z"/>
<path d="M980 1195 c-19 -23 -4 -64 27 -71 14 -4 33 -2 42 3 20 13 26 50 11
69 -16 18 -64 18 -80 -1z"/>
<path d="M980 810 c-6 -12 -8 -30 -5 -40 7 -24 52 -37 74 -23 20 13 26 50 11
69 -19 21 -67 18 -80 -6z"/>
</g>
</svg>
