<?xml version="1.0" standalone="no"?>
<!DOCTYPE svg PUBLIC "-//W3C//DTD SVG 20010904//EN"
 "http://www.w3.org/TR/2001/REC-SVG-20010904/DTD/svg10.dtd">
<svg version="1.0" xmlns="http://www.w3.org/2000/svg"
 width="289.000000pt" height="289.000000pt" viewBox="0 0 289.000000 289.000000"
 preserveAspectRatio="xMidYMid meet">

<g transform="translate(0.000000,289.000000) scale(0.100000,-0.100000)"
fill="#000000" stroke="none">
<path d="M1040 2852 c0 -5 7 -13 16 -16 10 -4 14 -1 12 6 -5 15 -28 23 -28 10z"/>
<path d="M973 2753 c9 -2 25 -2 35 0 9 3 1 5 -18 5 -19 0 -27 -2 -17 -5z"/>
<path d="M898 2743 c12 -2 30 -2 40 0 9 3 -1 5 -23 4 -22 0 -30 -2 -17 -4z"/>
<path d="M823 2733 c9 -2 23 -2 30 0 6 3 -1 5 -18 5 -16 0 -22 -2 -12 -5z"/>
<path d="M1295 2706 c-60 -7 -125 -9 -143 -5 -22 5 -37 3 -45 -5 -7 -9 -27
-11 -55 -8 -50 6 -254 -17 -247 -28 2 -4 -51 -13 -118 -19 -178 -17 -186 -19
-202 -52 -8 -15 -15 -42 -15 -60 l0 -32 135 5 c139 6 185 19 185 53 0 10 10
15 30 15 29 0 30 2 30 46 0 27 4 43 10 39 6 -3 10 -23 10 -44 0 -37 0 -37 38
-34 77 8 80 10 89 61 l8 47 5 -45 c5 -44 6 -45 45 -50 l40 -5 0 -47 c-1 -27
-2 -109 -3 -183 l-2 -135 -25 0 c-24 0 -25 -2 -25 -70 0 -56 3 -70 15 -70 8 0
25 -11 36 -24 17 -19 26 -23 48 -16 15 4 89 11 166 14 253 13 246 5 243 283
l-2 198 -6 -202 c-3 -111 -8 -205 -12 -209 -5 -4 -7 60 -7 142 1 158 14 433
18 399 2 -11 4 -30 5 -42 4 -35 16 -40 15 -7 -1 41 -12 75 -24 76 -5 0 -19 7
-30 14 -22 16 -58 16 -210 0z m185 -187 c0 -5 -7 -9 -15 -9 -15 0 -20 12 -9
23 8 8 24 -1 24 -14z"/>
<path d="M986 2572 c-3 -5 -20 -7 -38 -4 -33 4 -32 3 11 -20 27 -14 52 -37 63
-57 l18 -35 -2 62 c-2 57 -4 62 -24 62 -13 0 -25 -4 -28 -8z"/>
<path d="M688 2473 c6 -2 18 -2 25 0 6 3 1 5 -13 5 -14 0 -19 -2 -12 -5z"/>
<path d="M410 2460 c23 -7 23 -8 4 -9 -17 -1 -23 -9 -28 -36 -10 -52 -1 -73
29 -67 15 2 25 0 25 -7 0 -6 -12 -11 -27 -11 -36 0 -48 -9 -58 -39 -7 -23 -9
-23 -20 -7 -7 9 -16 37 -20 61 -6 45 -7 45 -46 45 -38 0 -39 1 -40 38 -1 25
-3 29 -6 12 -10 -64 -11 -67 -40 -63 -45 6 -56 -8 -48 -60 6 -37 10 -43 20
-34 9 9 10 14 1 19 -7 5 -5 8 5 8 9 0 23 -10 31 -22 8 -13 71 -169 141 -347
69 -178 128 -326 131 -329 19 -18 3 30 -85 258 -136 352 -150 392 -139 385 5
-3 10 -12 10 -18 0 -15 28 -40 54 -50 14 -6 17 -3 12 9 -8 21 17 44 48 44 16
0 33 11 49 31 17 21 30 30 41 26 13 -5 16 -25 16 -122 0 -104 2 -117 21 -136
20 -20 29 -21 118 -15 53 3 115 6 139 6 29 0 42 4 42 14 0 8 7 16 15 20 11 4
15 23 16 73 1 83 6 73 12 -24 4 -61 2 -73 -12 -75 -9 -2 11 -4 44 -4 33 -1 50
1 37 5 -25 6 -31 23 -11 30 7 2 9 -1 5 -8 -5 -7 2 -11 21 -10 25 0 26 1 8 9
-15 7 -9 9 25 9 25 1 50 5 56 9 11 7 16 46 29 225 l6 72 -19 -40 c-32 -67 -39
-70 -153 -58 -84 8 -102 13 -115 31 -14 21 -23 22 -152 22 l-137 1 28 22 c21
18 27 31 27 64 0 35 3 42 23 46 12 2 -18 4 -68 5 -59 0 -81 -3 -65 -8z m-160
-100 c0 -5 -4 -10 -9 -10 -6 0 -13 5 -16 10 -3 6 1 10 9 10 9 0 16 -4 16 -10z
m680 -130 c0 -5 -5 -10 -11 -10 -5 0 -7 5 -4 10 3 6 8 10 11 10 2 0 4 -4 4
-10z"/>
<path d="M578 2463 c7 -3 16 -2 19 1 4 3 -2 6 -13 5 -11 0 -14 -3 -6 -6z"/>
<path d="M792 2438 c-16 -16 -15 -34 4 -52 22 -23 34 -20 34 8 0 13 6 26 13
29 8 3 14 -1 14 -9 0 -8 -4 -14 -9 -14 -4 0 -8 -5 -8 -11 0 -21 35 -4 36 18 2
32 -12 51 -27 36 -8 -8 -18 -9 -29 -3 -11 6 -21 5 -28 -2z m28 -23 c0 -8 -4
-15 -9 -15 -13 0 -22 16 -14 24 11 11 23 6 23 -9z"/>
<path d="M898 2443 c7 -3 16 -2 19 1 4 3 -2 6 -13 5 -11 0 -14 -3 -6 -6z"/>
<path d="M888 2363 c7 -3 16 -2 19 1 4 3 -2 6 -13 5 -11 0 -14 -3 -6 -6z"/>
<path d="M840 2340 l-45 -7 48 -1 c26 -1 47 3 47 8 0 6 -1 9 -2 8 -2 0 -23 -4
-48 -8z"/>
<path d="M201 2214 c0 -11 3 -14 6 -6 3 7 2 16 -1 19 -3 4 -6 -2 -5 -13z"/>
<path d="M1700 1955 l0 -205 325 0 325 0 0 205 0 205 -325 0 -325 0 0 -205z
m168 86 c8 -4 12 -19 10 -32 -4 -29 -45 -34 -61 -7 -19 30 19 60 51 39z"/>
<path d="M1832 2032 c-7 -5 -10 -16 -7 -24 8 -20 47 -11 43 10 -4 19 -19 24
-36 14z"/>
<path d="M2650 2130 c0 -5 11 -10 25 -10 14 0 25 5 25 10 0 6 -11 10 -25 10
-14 0 -25 -4 -25 -10z"/>
<path d="M2610 2080 c-12 -8 -9 -10 13 -10 15 0 27 5 27 10 0 13 -20 13 -40 0z"/>
<path d="M903 1998 c-6 -12 110 -9 127 2 10 7 -6 9 -53 8 -38 -2 -71 -6 -74
-10z"/>
<path d="M625 1553 c-8 -68 -13 -73 -79 -70 -37 2 -39 4 -58 57 -23 61 -26 66
-34 58 -3 -3 10 -38 28 -76 19 -39 29 -67 23 -63 -19 15 -65 19 -65 6 0 -21
23 -32 83 -39 38 -5 57 -4 57 3 0 6 18 11 40 11 l40 0 -1 88 c-1 48 -4 76 -7
62 l-5 -25 -7 25 c-6 20 -9 12 -15 -37z"/>
<path d="M2665 1460 c3 -5 11 -10 16 -10 6 0 7 5 4 10 -3 6 -11 10 -16 10 -6
0 -7 -4 -4 -10z"/>
<path d="M665 1429 c-4 -6 -5 -12 -2 -15 2 -3 7 2 10 11 7 17 1 20 -8 4z"/>
<path d="M716 1430 c13 -13 94 -22 94 -11 0 9 -49 21 -83 21 -14 0 -18 -3 -11
-10z"/>
<path d="M1639 1398 c-27 -22 -25 -22 36 1 44 18 46 20 18 18 -18 -1 -42 -10
-54 -19z"/>
<path d="M702 1369 c0 -25 -5 -45 -15 -52 -12 -9 -14 -22 -8 -60 4 -26 7 -73
6 -105 -1 -45 3 -63 21 -87 12 -16 28 -50 35 -75 7 -25 22 -53 33 -63 20 -17
21 -18 2 -32 -18 -14 -18 -17 -2 -82 22 -91 64 -220 82 -255 8 -16 12 -33 9
-38 -8 -12 162 -12 190 0 16 7 12 9 -20 9 l-40 1 -32 103 c-18 56 -40 133 -49
172 -8 38 -20 75 -26 82 -7 9 -5 17 6 28 9 9 16 27 16 39 0 33 -21 90 -37 99
-7 4 -13 18 -13 30 0 13 -4 27 -9 32 -6 6 -12 37 -15 70 -8 83 -16 117 -31
135 -7 8 -20 32 -28 53 -14 31 -21 37 -46 37 -28 0 -30 -2 -29 -41z"/>
<path d="M1749 1399 c-10 -6 -4 -9 19 -9 17 0 32 2 32 4 0 9 -39 13 -51 5z"/>
<path d="M1973 1403 c15 -2 39 -2 55 0 15 2 2 4 -28 4 -30 0 -43 -2 -27 -4z"/>
<path d="M2098 1403 c7 -3 16 -2 19 1 4 3 -2 6 -13 5 -11 0 -14 -3 -6 -6z"/>
<path d="M2138 1403 c7 -3 16 -2 19 1 4 3 -2 6 -13 5 -11 0 -14 -3 -6 -6z"/>
<path d="M2253 1403 c9 -2 23 -2 30 0 6 3 -1 5 -18 5 -16 0 -22 -2 -12 -5z"/>
<path d="M2398 1403 c6 -2 18 -2 25 0 6 3 1 5 -13 5 -14 0 -19 -2 -12 -5z"/>
<path d="M1586 1299 c-3 -17 -5 -57 -5 -88 2 -49 3 -45 9 29 8 90 7 111 -4 59z"/>
<path d="M992 1245 c0 -16 2 -22 5 -12 2 9 2 23 0 30 -3 6 -5 -1 -5 -18z"/>
<path d="M2674 1255 c-3 -8 -3 -19 1 -25 11 -18 25 -11 25 15 0 27 -17 34 -26
10z"/>
<path d="M662 1235 c0 -16 2 -22 5 -12 2 9 2 23 0 30 -3 6 -5 -1 -5 -18z"/>
<path d="M1000 1185 c0 -8 4 -15 10 -15 5 0 7 7 4 15 -4 8 -8 15 -10 15 -2 0
-4 -7 -4 -15z"/>
<path d="M672 1170 c0 -14 2 -19 5 -12 2 6 2 18 0 25 -3 6 -5 1 -5 -13z"/>
<path d="M1992 1154 c-27 -19 -29 -64 -4 -87 9 -8 35 -19 57 -23 34 -6 38 -5
28 7 -8 10 -9 20 -3 29 16 26 11 58 -12 74 -12 9 -27 16 -33 16 -6 0 -21 -7
-33 -16z m64 -30 c9 -34 -18 -64 -44 -48 -22 14 -27 41 -12 59 20 24 49 18 56
-11z"/>
<path d="M2113 1163 c-23 -9 -14 -24 11 -17 13 3 27 1 31 -6 4 -7 -1 -14 -14
-17 -27 -7 -27 -23 0 -23 12 0 19 -5 16 -12 -2 -8 -17 -12 -36 -10 -38 3 -40
-5 -5 -18 40 -16 61 2 61 50 0 49 -25 69 -64 53z"/>
<path d="M1624 945 c0 -82 2 -115 3 -72 2 43 2 110 0 150 -1 40 -3 5 -3 -78z"/>
<path d="M2042 999 c-9 -3 -29 -5 -43 -4 -14 0 -26 -4 -26 -11 0 -18 135 -13
146 5 7 11 10 10 14 -5 4 -17 5 -17 6 2 1 19 -4 21 -40 20 -22 0 -48 -3 -57
-7z m28 -9 c0 -5 -5 -10 -11 -10 -5 0 -7 5 -4 10 3 6 8 10 11 10 2 0 4 -4 4
-10z m40 0 c0 -5 -4 -10 -10 -10 -5 0 -10 5 -10 10 0 6 5 10 10 10 6 0 10 -4
10 -10z"/>
<path d="M2150 984 c0 -8 6 -11 15 -8 8 4 15 9 15 13 0 4 -7 8 -15 8 -8 0 -15
-6 -15 -13z"/>
<path d="M2683 895 c0 -27 2 -38 4 -22 2 15 2 37 0 50 -2 12 -4 0 -4 -28z"/>
<path d="M2680 775 c0 -19 5 -35 10 -35 6 0 10 16 10 35 0 19 -4 35 -10 35 -5
0 -10 -16 -10 -35z"/>
<path d="M1695 720 c-4 -6 11 -10 36 -10 48 0 49 4 2 13 -18 4 -35 2 -38 -3z"/>
<path d="M1893 713 c9 -2 23 -2 30 0 6 3 -1 5 -18 5 -16 0 -22 -2 -12 -5z"/>
<path d="M885 489 c3 -4 -5 -10 -18 -14 -21 -8 -21 -8 6 -12 17 -3 27 -10 27
-22 0 -9 5 -22 11 -28 17 -17 3 -31 -52 -54 -56 -24 -53 -38 7 -41 43 -1 98
27 87 45 -3 5 -1 7 4 4 6 -4 17 0 24 9 7 8 8 14 3 13 -5 -2 -19 0 -31 4 -18 7
-21 15 -19 52 2 40 0 44 -26 47 -15 3 -25 1 -23 -3z"/>
<path d="M1037 425 c-17 -24 -17 -25 2 -25 11 0 23 -4 26 -10 3 -5 11 -10 18
-10 6 0 3 6 -7 13 -15 11 -17 17 -7 35 17 32 -9 29 -32 -3z"/>
<path d="M1145 353 c17 -11 50 -27 75 -35 25 -9 83 -31 130 -48 47 -18 123
-45 170 -61 47 -16 94 -33 105 -38 47 -23 253 -84 238 -71 -4 4 -82 33 -173
65 -91 32 -248 88 -350 125 -102 38 -194 71 -205 75 -11 4 -6 -2 10 -12z"/>
<path d="M375 150 c-16 -7 -17 -9 -3 -9 9 -1 20 4 23 9 7 11 7 11 -20 0z"/>
<path d="M75 70 c3 -5 21 -10 38 -9 31 1 31 1 7 9 -36 11 -52 11 -45 0z"/>
<path d="M2491 44 c0 -11 3 -14 6 -6 3 7 2 16 -1 19 -3 4 -6 -2 -5 -13z"/>
<path d="M2550 36 c0 -2 7 -7 16 -10 8 -3 12 -2 9 4 -6 10 -25 14 -25 6z"/>
</g>
</svg>
