<?xml version="1.0" standalone="no"?>
<!DOCTYPE svg PUBLIC "-//W3C//DTD SVG 20010904//EN"
 "http://www.w3.org/TR/2001/REC-SVG-20010904/DTD/svg10.dtd">
<svg version="1.0" xmlns="http://www.w3.org/2000/svg"
 width="483.000000pt" height="500.000000pt" viewBox="0 0 483.000000 500.000000"
 preserveAspectRatio="xMidYMid meet">

<g transform="translate(0.000000,500.000000) scale(0.100000,-0.100000)"
fill="#000000" stroke="none">
<path d="M1901 4490 c-57 -4 -106 -12 -110 -17 -3 -6 -22 -18 -41 -28 -19 -10
-97 -55 -172 -102 -76 -46 -154 -90 -175 -97 -103 -37 -292 -187 -349 -278
-14 -21 -29 -38 -35 -38 -21 0 -120 -84 -154 -130 -60 -82 -79 -135 -80 -225
0 -69 4 -88 29 -137 26 -52 122 -157 182 -198 24 -17 64 -153 157 -535 30
-121 61 -235 71 -253 18 -35 85 -89 123 -98 37 -10 27 -21 -24 -29 -76 -11
-147 -43 -197 -86 -79 -70 -179 -236 -262 -436 -55 -131 -95 -282 -48 -180
l15 32 -7 -50 c-8 -61 -7 -166 2 -203 12 -47 51 -116 86 -148 74 -71 293 -209
510 -324 136 -72 137 -80 0 -11 -136 68 -246 133 -396 234 -93 61 -133 83
-142 76 -8 -7 -18 -2 -32 16 -20 25 -52 34 -52 15 0 -5 -7 -7 -15 -4 -10 4
-15 0 -15 -12 0 -43 -13 2 -19 68 l-7 73 -12 -66 c-15 -82 -15 -186 -1 -247
10 -40 27 -62 118 -152 228 -226 524 -408 825 -506 l81 -27 530 0 530 -1 85
28 c325 108 594 273 837 516 109 108 118 128 115 277 -4 297 -177 770 -362
992 -50 60 -146 118 -176 107 -9 -3 -71 1 -138 9 -66 8 -139 17 -161 19 -22 2
7 2 65 0 58 -3 119 -6 135 -8 17 -2 22 -1 13 1 -28 7 -21 16 35 43 64 32 101
83 125 170 16 59 21 67 60 88 72 40 158 127 192 194 54 110 38 243 -43 356
l-34 48 32 110 c18 60 46 150 64 200 41 120 42 197 4 275 -44 89 -217 251
-433 406 -93 67 -356 228 -407 249 -70 30 -631 44 -922 24z m-581 -371 c0 -8
14 -34 31 -57 40 -55 47 -98 21 -148 -31 -61 -54 -77 -99 -70 -116 19 -128 18
-166 -3 -21 -12 -42 -21 -47 -21 -34 0 28 134 96 209 71 79 145 135 155 119 5
-7 9 -20 9 -29z m401 -146 c13 -12 29 -52 40 -94 17 -70 17 -73 -1 -108 -34
-65 -57 -94 -63 -79 -6 17 -22 -3 -88 -114 -28 -49 -55 -88 -59 -88 -4 0 -13
6 -19 14 -9 11 -1 33 39 101 27 47 50 93 50 100 0 18 -45 32 -145 46 -52 7
-82 16 -78 22 3 6 1 7 -5 3 -7 -4 -12 -14 -12 -22 0 -8 -5 -14 -11 -14 -7 0
-9 9 -6 23 10 36 90 178 119 210 28 29 29 29 123 25 81 -3 98 -6 116 -25z
m1269 -628 c28 -26 97 -143 88 -149 -7 -4 -125 -29 -168 -35 -90 -12 -90 -12
-20 -151 50 -98 60 -124 49 -131 -8 -5 -16 -9 -19 -9 -3 0 -27 42 -54 93 -64
119 -88 155 -103 150 -6 -2 -19 11 -29 29 -9 18 -21 36 -26 39 -4 3 -4 18 1
35 5 16 17 54 26 84 9 30 24 60 33 66 11 9 47 12 104 11 81 -2 89 -4 118 -32z
m416 -109 c23 -49 34 -146 16 -146 -38 0 -78 98 -68 165 9 55 20 51 52 -19z
m-311 -66 c3 -5 1 -10 -4 -10 -6 0 -11 5 -11 10 0 6 2 10 4 10 3 0 8 -4 11
-10z m-1426 -214 c12 -14 5 -46 -10 -46 -5 0 -9 -4 -9 -10 0 -5 9 -10 20 -10
27 0 25 -21 -6 -43 -31 -23 -44 -14 -19 13 18 19 17 20 -5 20 -15 0 -20 5 -17
14 3 8 -1 20 -8 26 -11 9 -12 17 -4 31 11 22 42 25 58 5z m38 -132 c3 -9 1
-25 -6 -35 -9 -15 -8 -19 4 -19 22 0 18 -17 -5 -23 -11 -3 -20 -11 -20 -17 0
-8 9 -10 24 -6 30 7 45 -10 17 -19 -19 -6 -19 -35 0 -35 4 0 5 8 2 18 -6 15
-5 15 11 3 9 -8 15 -23 13 -32 -3 -10 -2 -19 3 -21 4 -2 10 -15 14 -30 5 -24
3 -28 -21 -34 -16 -3 -36 -8 -45 -11 -10 -2 -18 0 -18 6 0 5 14 12 30 16 40 9
42 42 3 47 -24 3 -28 7 -28 36 0 17 -5 32 -10 32 -6 0 -12 14 -13 30 -1 18 2
30 10 30 7 0 2 7 -10 16 -12 8 -22 21 -22 28 0 33 55 50 67 20z m328 -34 c-10
-17 -45 -32 -45 -20 0 6 10 15 23 20 29 12 29 12 22 0z m1215 -369 c0 -8 -72
-42 -88 -41 -6 1 76 48 86 50 1 0 2 -4 2 -9z m-127 -48 c-13 -2 -33 -2 -45 0
-13 2 -3 4 22 4 25 0 35 -2 23 -4z m-273 -47 c0 -20 -27 -39 -45 -32 -25 9
-30 37 -10 52 20 15 55 2 55 -20z m-20 -77 c0 -5 -12 -9 -27 -9 -25 0 -26 -1
-8 -20 30 -33 -9 -80 -41 -48 -15 14 -10 48 7 48 4 0 6 7 3 15 -4 10 0 15 15
15 24 0 28 15 6 24 -8 3 -15 10 -15 16 0 6 14 2 30 -10 17 -12 30 -26 30 -31z
m-628 -56 c-144 -2 -380 -2 -525 0 -144 1 -26 2 263 2 289 0 407 -1 262 -2z
m1041 -2 c17 -6 -284 -4 -328 3 -11 2 54 4 145 4 91 0 173 -3 183 -7z m-462
-41 c5 0 9 -5 9 -10 0 -6 -11 -8 -25 -4 -19 5 -25 2 -25 -10 0 -9 6 -16 14
-16 8 0 18 -4 21 -10 7 -12 -25 -13 -43 -2 -19 13 3 66 24 58 9 -3 20 -6 25
-6z m-41 -76 c0 -8 -4 -12 -10 -9 -5 3 -10 -1 -10 -9 0 -20 14 -20 34 0 14 14
16 14 16 0 0 -22 -32 -37 -53 -25 -20 12 -22 30 -5 47 17 17 28 15 28 -4z m13
-84 c-3 -11 -9 -22 -13 -25 -10 -6 -80 17 -80 27 0 11 18 10 43 -3 17 -10 23
-9 32 5 14 22 24 20 18 -4z m506 -16 c11 -11 -7 -10 -34 3 l-30 14 30 -6 c16
-4 32 -9 34 -11z m-1219 -35 c61 -13 139 -49 159 -73 7 -8 -12 -2 -42 15 -30
16 -90 38 -132 49 -43 11 -81 23 -84 26 -6 6 0 5 99 -17z m868 -9 c41 -11 104
-36 142 -55 37 -19 90 -39 116 -46 57 -14 149 -56 166 -77 7 -7 -15 0 -48 17
-33 16 -84 37 -114 45 -30 8 -87 30 -127 50 -39 19 -104 44 -144 56 -67 18
-95 30 -73 30 5 0 42 -9 82 -20z m-874 -121 c34 -16 38 -33 20 -72 -15 -30
-85 -87 -129 -103 -11 -4 -38 -20 -59 -36 -56 -40 -68 -37 -44 13 10 22 17 43
14 46 -3 3 -20 -4 -38 -15 -47 -29 -90 -32 -94 -7 -6 35 15 80 55 119 31 30
49 39 85 43 36 4 47 2 52 -11 8 -22 17 -20 60 9 42 29 44 29 78 14z m504 -34
c-3 -14 -2 -25 2 -25 4 0 10 -11 12 -25 6 -31 -7 -23 -28 16 -12 24 -13 34 -3
45 17 21 22 17 17 -11z m92 15 c0 -5 -2 -10 -4 -10 -3 0 -8 5 -11 10 -3 6 -1
10 4 10 6 0 11 -4 11 -10z m162 -30 c44 -43 54 -47 61 -27 3 8 20 4 57 -16 41
-22 55 -26 61 -16 6 10 12 9 28 -5 12 -11 21 -22 21 -25 0 -3 -23 -6 -52 -6
l-52 0 -16 -44 c-19 -55 -31 -60 -53 -22 -11 19 -29 32 -50 37 -39 8 -108 54
-136 90 l-21 27 37 23 c52 32 68 30 115 -16z m-1492 16 c0 -2 -7 -7 -16 -10
-8 -3 -12 -2 -9 4 6 10 25 14 25 6z m298 -88 c-3 -7 -13 -15 -24 -17 -16 -3
-17 -1 -5 13 16 19 34 21 29 4z m562 -257 c17 -102 32 -194 34 -204 2 -9 1
-15 -4 -12 -8 5 -33 135 -65 340 -9 55 -18 111 -21 125 -2 14 3 5 11 -19 8
-25 28 -128 45 -230z m-120 231 c0 -10 14 -81 31 -158 17 -76 32 -155 34 -174
2 -19 10 -63 19 -97 21 -79 21 -79 -13 -91 l-28 -10 -17 68 c-9 37 -16 75 -16
83 0 9 -8 24 -17 33 -17 17 -17 18 0 11 22 -8 24 25 2 43 -8 7 -15 26 -15 43
0 17 -7 75 -16 129 -16 94 -16 99 1 118 22 25 35 25 35 2z m1658 -236 c2 -10
0 -16 -5 -13 -5 4 -10 -7 -10 -24 0 -27 3 -30 24 -24 24 6 30 -4 12 -22 -21
-21 -47 -2 -59 45 -7 26 -13 52 -15 58 -3 8 5 10 23 5 15 -4 29 -16 30 -25z
m-1697 -59 c-13 -13 -26 -3 -16 12 3 6 11 8 17 5 6 -4 6 -10 -1 -17z m586 -3
c-9 -9 -28 6 -21 18 4 6 10 6 17 -1 6 -6 8 -13 4 -17z m-697 -4 c0 -5 -6 -10
-14 -10 -8 0 -18 5 -21 10 -3 6 3 10 14 10 12 0 21 -4 21 -10z m830 0 c0 -5
-7 -10 -15 -10 -8 0 -15 5 -15 10 0 6 7 10 15 10 8 0 15 -4 15 -10z m-720 -50
c0 -5 -4 -10 -9 -10 -6 0 -13 5 -16 10 -3 6 1 10 9 10 9 0 16 -4 16 -10z m595
0 c-3 -5 -10 -10 -16 -10 -5 0 -9 5 -9 10 0 6 7 10 16 10 8 0 12 -4 9 -10z
m-752 -12 c3 -9 -6 -13 -26 -14 l-30 -1 24 13 c13 7 25 13 25 14 1 0 4 -6 7
-12z m47 2 c0 -5 -7 -10 -15 -10 -8 0 -15 5 -15 10 0 6 7 10 15 10 8 0 15 -4
15 -10z m834 -5 c19 -15 19 -15 -1 -15 -11 0 -26 7 -33 15 -17 20 7 20 34 0z
m947 -140 c-11 -20 -57 -85 -102 -145 -67 -92 -88 -113 -127 -130 -102 -46
-285 -115 -437 -167 l-160 -54 -175 -9 c-218 -12 -563 -12 -780 0 -159 8 -170
10 -295 53 -149 51 -171 59 -357 134 -83 34 -146 65 -161 82 -38 40 -188 253
-183 259 3 2 47 -22 98 -55 223 -145 592 -340 733 -388 43 -15 106 -18 470
-22 527 -6 610 0 725 51 236 106 465 230 680 370 47 31 87 56 88 56 2 0 -5
-16 -17 -35z m-2106 -303 c-3 -3 -11 0 -18 7 -9 10 -8 11 6 5 10 -3 15 -9 12
-12z m107 -42 c34 -16 56 -30 48 -30 -15 1 -131 59 -118 60 3 0 35 -13 70 -30z"/>
<path d="M1625 2941 c-7 -12 12 -24 25 -16 11 7 4 25 -10 25 -5 0 -11 -4 -15
-9z"/>
<path d="M1660 2804 c0 -17 22 -14 28 4 2 7 -3 12 -12 12 -9 0 -16 -7 -16 -16z"/>
<path d="M1690 2660 c0 -5 5 -10 11 -10 5 0 7 5 4 10 -3 6 -8 10 -11 10 -2 0
-4 -4 -4 -10z"/>
<path d="M2800 2326 c0 -8 4 -17 9 -20 11 -7 33 18 24 27 -12 12 -33 7 -33 -7z"/>
<path d="M2760 2195 c0 -10 7 -15 18 -13 21 4 19 22 -2 26 -10 2 -16 -3 -16
-13z"/>
</g>
</svg>
