<?xml version="1.0" standalone="no"?>
<!DOCTYPE svg PUBLIC "-//W3C//DTD SVG 20010904//EN"
 "http://www.w3.org/TR/2001/REC-SVG-20010904/DTD/svg10.dtd">
<svg version="1.0" xmlns="http://www.w3.org/2000/svg"
 width="497.000000pt" height="500.000000pt" viewBox="0 0 497.000000 500.000000"
 preserveAspectRatio="xMidYMid meet">

<g transform="translate(0.000000,500.000000) scale(0.100000,-0.100000)"
fill="#000000" stroke="none">
<path d="M3285 4740 c-67 -8 -166 -33 -229 -57 -97 -38 -550 -246 -1106 -508
-113 -53 -259 -122 -325 -152 -66 -30 -318 -153 -560 -272 -471 -233 -549
-281 -656 -399 -67 -75 -103 -139 -125 -221 -13 -53 -14 -81 -5 -189 7 -70 20
-237 31 -372 21 -252 31 -306 78 -399 41 -83 65 -96 175 -96 l92 0 -27 -50
c-35 -66 -50 -149 -38 -217 26 -151 51 -262 68 -301 29 -65 661 -1073 703
-1121 95 -108 296 -162 450 -122 57 15 660 310 1893 924 694 346 753 377 808
430 69 66 101 123 129 230 24 95 24 116 1 77 -11 -16 -41 -52 -68 -78 -41 -41
-106 -77 -385 -217 -318 -160 -338 -169 -367 -158 -28 11 -41 7 -159 -52 -70
-35 -346 -171 -613 -303 -267 -131 -493 -246 -502 -254 -10 -9 -18 -25 -18
-35 0 -15 -71 -54 -335 -184 -185 -90 -361 -171 -392 -179 -32 -8 -91 -15
-133 -15 -193 0 -331 85 -448 275 -27 44 -103 166 -168 270 -148 234 -217 355
-210 362 3 4 0 13 -6 22 -10 12 -8 12 8 -2 31 -26 41 -21 14 8 -14 15 -18 25
-11 25 11 0 11 3 1 15 -6 8 -10 19 -8 25 3 11 167 -240 382 -585 58 -93 126
-193 151 -222 105 -121 310 -162 467 -94 24 10 354 173 733 361 380 188 771
382 870 430 671 327 1032 512 1073 553 81 79 117 195 90 286 l-13 43 0 -88 c0
-77 -4 -96 -27 -139 -46 -88 -99 -127 -331 -239 -117 -57 -531 -262 -922 -456
-1563 -774 -1514 -751 -1596 -757 -126 -9 -253 34 -327 111 -34 35 -682 1057
-682 1075 0 7 177 -257 197 -294 7 -12 21 -29 30 -36 16 -13 16 -13 0 11 -24
34 -23 62 1 34 17 -20 53 -44 67 -44 3 0 -9 13 -27 29 -34 29 -225 337 -216
347 3 2 47 -63 98 -146 128 -208 191 -260 315 -260 91 1 135 14 319 101 93 43
171 78 172 76 2 -1 -77 -42 -174 -91 -234 -116 -295 -175 -307 -293 l-5 -48
23 68 c37 105 71 133 291 243 104 52 190 93 192 91 2 -2 -7 -18 -19 -35 -13
-17 -32 -49 -42 -71 -13 -31 -26 -43 -54 -52 -113 -37 -203 -102 -246 -180
-27 -48 -30 -63 -30 -139 0 -75 3 -91 29 -138 38 -67 82 -107 166 -146 58 -27
75 -31 160 -30 86 0 102 3 175 35 71 31 85 34 124 26 53 -10 177 5 222 27 44
22 59 20 30 -4 -36 -31 -19 -25 112 41 110 55 172 92 125 74 -11 -4 -18 -2
-18 4 0 6 4 11 9 11 16 0 131 119 131 135 0 9 11 31 25 49 44 58 78 145 82
215 6 77 -23 201 -63 268 -52 89 -161 155 -290 175 -66 10 -73 13 -53 22 13 6
166 80 339 164 173 85 371 182 440 215 69 34 128 63 132 65 4 2 -8 -22 -26
-52 -46 -77 -81 -203 -81 -296 0 -94 38 -188 106 -261 32 -35 42 -52 35 -60
-8 -7 -1 -9 25 -4 34 6 38 4 69 -37 48 -62 53 -66 39 -35 -7 15 -10 29 -7 32
5 5 68 -23 78 -34 3 -3 22 -7 43 -8 31 -1 36 1 27 12 -6 8 -7 16 -2 19 6 3 15
-1 22 -10 7 -8 16 -11 19 -6 3 5 35 16 71 24 36 9 80 21 98 26 17 6 32 7 32 2
0 -4 -10 -10 -22 -13 -12 -4 -19 -9 -16 -12 3 -4 52 17 108 45 56 28 100 54
96 57 -3 3 -17 -2 -32 -11 -14 -10 -28 -15 -31 -12 -3 3 17 18 43 33 60 35
136 110 191 190 36 53 49 64 97 82 135 50 201 101 247 191 32 62 32 166 0 228
-73 142 -229 218 -393 192 -38 -6 -86 -17 -106 -26 -20 -8 -48 -12 -62 -9 -14
3 -49 6 -77 6 -29 1 -53 3 -53 6 0 2 55 31 123 64 144 70 221 84 319 55 102
-29 143 -66 251 -226 119 -176 135 -205 146 -272 l9 -53 1 53 c1 65 -13 94
-132 270 -101 150 -140 192 -212 231 -45 23 -60 26 -155 26 -116 -1 -84 10
-343 -115 -60 -28 -111 -49 -114 -47 -3 3 69 42 159 87 89 45 177 92 194 106
44 32 84 116 84 173 -1 61 -21 103 -128 262 -97 145 -108 157 -194 213 -59 38
-67 49 -47 62 6 3 9 17 6 30 -3 17 0 24 12 25 39 2 -49 28 -96 29 -29 0 -53 3
-53 6 0 3 30 38 66 77 120 130 115 112 132 551 7 208 11 390 7 404 -3 13 -18
37 -33 52 -15 14 -39 43 -55 63 -34 45 -131 94 -212 107 -65 11 -71 11 -160 0z
m140 -81 c41 -11 88 -46 83 -61 -2 -5 -33 -20 -68 -32 -36 -13 -175 -77 -310
-141 -394 -188 -406 -194 -421 -184 -22 14 -63 1 -190 -62 -66 -32 -121 -59
-123 -59 -2 0 -97 -45 -211 -100 -114 -55 -208 -100 -210 -100 -1 0 -76 -35
-166 -79 -90 -43 -221 -106 -291 -139 -102 -48 -128 -65 -128 -81 0 -11 -6
-23 -12 -28 -11 -6 -654 -317 -684 -329 -6 -3 -19 11 -29 30 -16 30 -17 39 -6
76 11 36 19 45 64 65 29 12 164 77 301 144 137 67 250 121 252 121 2 0 151 72
330 160 180 88 328 160 330 160 1 0 177 86 391 191 213 105 429 210 478 234
50 24 176 84 280 134 168 81 196 91 245 91 30 0 73 -5 95 -11z m85 -423 c0 -3
-4 -8 -10 -11 -5 -3 -10 -1 -10 4 0 6 5 11 10 11 6 0 10 -2 10 -4z m-822 -18
c14 -14 16 -32 3 -24 -9 6 -82 -28 -396 -179 -71 -34 -218 -104 -325 -155
-107 -51 -269 -128 -359 -171 -90 -43 -168 -79 -172 -79 -5 0 -9 6 -9 13 0 8
128 75 308 160 535 253 633 300 782 374 80 39 147 72 151 72 3 1 10 -4 17 -11z
m-358 -252 c0 -8 -6 -16 -13 -18 -8 -2 -48 -19 -90 -38 -81 -37 -92 -53 -57
-85 26 -24 25 -41 -2 -48 -26 -7 -52 21 -36 40 6 8 6 18 -1 31 -14 26 4 41
109 91 47 22 86 40 88 40 1 1 2 -5 2 -13z m6 -61 c-1 -41 -2 -41 -16 -15 -9
17 -1 41 16 50 0 0 0 -16 0 -35z m-43 -39 c15 -22 15 -25 0 -30 -9 -4 -16 -5
-17 -4 -1 2 -7 13 -13 25 -16 29 -16 33 1 33 7 0 21 -11 29 -24z m-43 -48 c0
-16 -36 -7 -48 12 -20 32 -3 45 24 19 13 -12 24 -26 24 -31z m-321 -52 c23
-36 27 -56 11 -56 -12 0 -59 72 -53 83 9 14 22 6 42 -27z m-119 -109 c0 -5 -8
-7 -17 -5 -12 2 -19 14 -21 33 l-3 30 20 -25 c12 -14 21 -29 21 -33z m1574
-34 c-7 -30 -17 -42 -49 -58 -42 -21 -126 -27 -158 -11 -14 7 -17 4 -15 -15 3
-21 -10 -31 -97 -76 -55 -29 -107 -52 -115 -53 -9 0 -24 16 -34 35 -11 19 -23
35 -27 35 -11 0 -113 -47 -354 -165 -121 -59 -269 -131 -330 -160 -60 -29
-173 -83 -250 -120 -230 -111 -385 -185 -675 -324 -151 -73 -276 -134 -279
-137 -3 -3 3 -21 14 -42 10 -20 21 -40 23 -45 2 -4 -38 -27 -90 -51 -51 -24
-122 -57 -157 -75 -36 -17 -66 -29 -69 -27 -2 3 -8 23 -13 46 -9 39 -7 45 27
91 24 33 43 49 58 49 12 0 30 6 41 14 41 27 401 215 725 377 283 141 492 241
895 429 104 49 404 180 410 180 18 0 152 75 172 96 20 22 29 24 120 24 67 0
117 6 158 19 33 10 64 14 69 10 6 -5 6 -23 0 -46z m116 22 c0 -6 -105 -85
-113 -85 -19 0 -2 22 41 53 42 32 72 45 72 32z m-75 -120 c-39 -32 -58 -32
-22 0 15 14 33 25 40 25 7 0 -1 -11 -18 -25z m-230 -121 c-144 -72 -195 -95
-195 -89 0 6 232 124 275 141 71 28 41 8 -80 -52z m-347 -83 c7 -19 11 -36 9
-37 -2 -2 -17 -4 -35 -6 -18 -1 -32 -6 -32 -10 0 -4 -7 -8 -15 -8 -8 0 -15 5
-15 10 0 6 5 10 10 10 20 0 9 28 -12 34 -37 9 -38 8 -38 -34 0 -22 5 -40 10
-40 6 0 10 -4 10 -9 0 -5 -18 -11 -40 -13 -43 -4 -57 15 -19 27 14 5 18 10 11
17 -11 11 -76 -7 -103 -29 -8 -7 -27 -13 -41 -13 -14 0 -28 -6 -31 -14 -3 -8
-28 -23 -56 -32 -27 -10 -48 -21 -45 -25 2 -4 -10 -9 -26 -13 -24 -4 -30 -11
-30 -31 0 -14 5 -25 10 -25 16 0 12 -30 -5 -36 -8 -4 -15 -13 -15 -21 0 -11
-7 -13 -29 -8 -25 5 -34 1 -57 -24 -16 -18 -37 -31 -51 -31 -41 0 -103 -24
-109 -42 -6 -19 -24 -25 -24 -8 0 6 -10 10 -21 10 -16 0 -20 5 -16 20 4 16 0
20 -19 20 -13 0 -24 -4 -24 -8 0 -5 -10 -14 -22 -20 l-23 -11 22 0 c12 -1 24
-7 26 -13 4 -10 8 -9 16 2 9 13 11 13 11 -1 0 -15 -32 -33 -52 -30 -5 1 -8 -4
-8 -11 0 -6 -7 -19 -16 -29 -12 -14 -13 -22 -4 -39 24 -45 1 -30 -26 17 -15
26 -33 58 -40 70 -15 24 -19 64 -6 61 17 -4 68 16 85 33 10 11 28 19 41 19 30
0 88 29 81 41 -4 5 2 9 12 9 10 0 27 7 37 15 11 8 30 15 41 15 12 0 32 9 45
20 13 11 35 20 49 20 15 0 31 8 39 20 8 13 23 20 42 20 17 0 30 3 30 8 0 4 10
12 23 18 119 60 149 74 161 74 8 0 21 6 28 14 21 21 75 46 98 46 11 0 20 4 20
9 0 5 14 12 30 16 17 4 28 11 24 16 -3 5 4 9 15 9 12 0 21 5 21 12 0 20 36
-25 48 -61z m827 19 c22 -11 56 -36 75 -55 30 -31 32 -35 13 -35 -21 0 -46 22
-38 33 3 4 2 5 -2 2 -3 -3 -17 2 -30 10 -13 9 -41 16 -63 18 -45 2 -44 1 -30
28 13 24 24 24 75 -1z m-65 -62 c17 -24 49 -72 72 -108 23 -36 45 -67 48 -70
15 -14 40 -71 40 -93 0 -13 -10 -36 -21 -51 -18 -23 -20 -32 -10 -52 9 -21 8
-24 -8 -24 -10 0 -26 -9 -36 -20 -10 -11 -24 -20 -30 -20 -7 0 -24 -9 -38 -20
-14 -11 -32 -20 -40 -20 -8 0 -20 -7 -27 -15 -12 -15 -67 -45 -81 -45 -5 0
-31 -13 -59 -30 -28 -16 -57 -30 -64 -30 -7 0 -57 -22 -111 -50 -54 -27 -105
-50 -112 -50 -7 0 -13 -4 -13 -9 0 -5 -13 -11 -29 -14 -16 -3 -36 -13 -44 -22
-9 -8 -21 -15 -28 -15 -7 0 -31 -11 -54 -25 -23 -13 -44 -22 -47 -20 -3 3 -13
-4 -23 -15 -10 -11 -26 -20 -35 -20 -10 0 -28 -8 -41 -18 -27 -20 -103 -58
-134 -66 -11 -3 -43 -21 -72 -40 -28 -18 -73 -42 -100 -52 -26 -9 -55 -22 -63
-29 -8 -6 -36 -22 -62 -35 -27 -13 -48 -26 -48 -30 0 -3 -22 -12 -50 -20 -27
-7 -51 -19 -54 -27 -3 -7 -13 -13 -23 -13 -10 0 -31 -9 -48 -20 -16 -11 -37
-20 -46 -20 -9 0 -22 -7 -29 -15 -7 -8 -19 -15 -26 -15 -19 0 -218 -99 -222
-111 -2 -5 -8 -9 -14 -9 -12 0 -140 -60 -148 -69 -10 -12 -88 -51 -102 -51 -7
0 -29 -11 -48 -24 -19 -13 -46 -27 -60 -31 -14 -4 -32 -13 -40 -20 -8 -7 -32
-18 -52 -24 -31 -10 -39 -19 -52 -59 -9 -26 -26 -56 -37 -66 -19 -16 -22 -16
-39 -1 -21 19 -33 142 -15 149 6 3 2 5 -7 5 -9 1 -20 -4 -23 -9 -4 -6 -29 -29
-57 -50 -51 -41 -108 -55 -108 -27 0 8 -9 22 -21 33 -20 18 -99 171 -99 192 0
5 -7 12 -15 16 -9 3 -15 18 -15 38 0 35 48 97 101 131 l26 17 72 -109 c40 -61
80 -116 89 -123 14 -11 14 -10 -1 12 -26 38 -21 46 37 59 39 9 55 17 59 31 3
11 12 20 20 20 8 0 17 7 21 15 3 8 16 15 28 15 43 0 68 12 68 31 0 15 7 19 33
19 18 0 39 -6 46 -12 17 -17 -8 41 -26 60 -7 7 -13 16 -13 18 0 14 24 -14 74
-85 56 -81 79 -98 117 -86 12 4 128 59 258 122 130 64 324 158 431 210 339
164 770 375 925 453 136 68 150 78 153 103 2 18 -6 43 -21 65 -13 21 -48 75
-77 122 -45 74 -48 81 -20 52 l33 -32 23 25 c13 14 30 25 39 25 8 0 15 5 15
12 0 6 32 42 70 79 39 38 70 75 70 83 0 8 8 20 18 26 12 8 13 13 5 16 -18 8
-16 24 2 24 8 0 28 -19 45 -42z m-2983 -15 c17 -26 17 -26 -17 -52 -19 -14
-59 -46 -88 -70 -57 -45 -64 -45 -78 7 -14 52 25 109 88 129 55 18 76 15 95
-14z m1983 -83 c5 0 11 6 13 13 3 7 6 5 6 -5 1 -14 -7 -18 -34 -18 l-36 0 18
24 c17 22 18 23 21 5 2 -10 7 -19 12 -19z m-110 -50 c-41 -7 -44 -6 -37 14 5
13 11 13 39 3 l33 -12 -35 -5z m157 -106 c-3 -3 -12 -4 -19 -1 -8 3 -5 6 6 6
11 1 17 -2 13 -5z m-57 -28 c0 -2 -33 -17 -72 -32 -40 -15 -79 -32 -86 -37 -9
-7 -11 -6 -6 6 6 17 164 77 164 63z m491 -18 c24 -21 89 -123 89 -141 0 -12
-42 -37 -137 -82 -129 -62 -138 -64 -160 -50 -12 9 -23 20 -23 25 0 5 -6 7
-13 4 -22 -8 -39 22 -43 74 l-3 49 132 66 c73 36 135 66 138 66 3 1 12 -5 20
-11z m-710 -73 c-39 -18 -41 -18 -41 -6 0 5 10 12 23 14 45 9 51 6 18 -8z
m-71 -29 c0 -2 -7 -6 -15 -10 -8 -3 -15 -1 -15 4 0 6 7 10 15 10 8 0 15 -2 15
-4z m-50 -10 c0 -3 -4 -8 -10 -11 -5 -3 -10 -1 -10 4 0 6 5 11 10 11 6 0 10
-2 10 -4z m419 -51 c0 -5 -4 -2 -10 8 -10 18 -12 18 -30 1 -17 -15 -19 -15
-19 -1 0 26 32 38 47 19 7 -10 12 -21 12 -27z m-16 -24 c3 -14 0 -17 -14 -14
-11 3 -22 9 -25 14 -3 5 2 6 10 3 9 -3 16 -1 16 5 0 17 7 13 13 -8z m47 10 c0
-6 -4 -13 -10 -16 -5 -3 -10 1 -10 9 0 9 5 16 10 16 6 0 10 -4 10 -9z m-620
-16 c-7 -9 -15 -13 -17 -11 -7 7 7 26 19 26 6 0 6 -6 -2 -15z m448 -7 c-10
-29 -128 -74 -128 -49 0 10 98 59 118 60 8 1 12 -5 10 -11z m66 -38 c30 -45
32 -60 11 -60 -18 0 -69 75 -60 89 11 19 21 12 49 -29z m-594 9 c0 -13 -29
-17 -38 -6 -8 9 -4 12 14 12 13 0 24 -3 24 -6z m455 -89 c19 -36 19 -50 1 -50
-17 0 -69 77 -61 90 10 16 43 -7 60 -40z m-155 12 c0 -21 -73 -62 -110 -62
-34 0 -22 15 33 42 55 28 77 34 77 20z m64 -46 c31 -53 31 -56 9 -56 -22 0
-67 66 -59 86 9 24 23 16 50 -30z m-1044 -24 c5 -20 10 -41 10 -46 0 -15 -42
-46 -62 -46 -10 0 -18 -4 -18 -10 0 -5 -13 -10 -29 -10 -22 0 -30 -5 -33 -20
-2 -15 -11 -7 -40 36 -41 60 -46 74 -23 74 13 0 32 9 120 60 39 22 61 11 75
-38z m1342 31 c8 -10 22 -30 31 -45 17 -27 17 -28 -2 -28 -18 0 -71 62 -71 82
0 14 27 8 42 -9z m96 -22 c3 -8 -1 -12 -9 -9 -7 2 -15 10 -17 17 -3 8 1 12 9
9 7 -2 15 -10 17 -17z m80 -10 c3 -8 -1 -12 -9 -9 -7 2 -15 10 -17 17 -3 8 1
12 9 9 7 -2 15 -10 17 -17z m-624 -44 c29 -38 33 -57 11 -57 -13 0 -65 65 -65
82 0 20 31 5 54 -25z m315 -11 c23 -37 28 -70 9 -64 -16 6 -58 67 -58 84 0 26
28 14 49 -20z m-401 -29 c27 -40 32 -67 11 -67 -14 0 -61 81 -55 96 8 21 12
18 44 -29z m321 -22 c39 -62 32 -80 -45 -118 -63 -31 -89 -32 -64 -2 18 22 82
53 97 48 17 -6 26 16 9 23 -17 6 -56 64 -56 83 0 26 33 8 59 -34z m251 35 c0
-14 -120 -71 -132 -64 -13 8 10 33 51 54 40 21 81 26 81 10z m-670 -49 c-10
-20 -47 -37 -57 -27 -3 3 6 10 20 15 14 5 28 15 32 20 11 19 16 12 5 -8z
m1819 -16 c86 -15 143 -44 168 -84 16 -26 10 -156 -10 -201 -24 -56 -85 -130
-102 -124 -10 4 -12 15 -8 37 6 31 5 30 -32 -18 -21 -27 -45 -56 -52 -63 -18
-19 -16 -25 6 -19 29 7 15 -25 -22 -50 -18 -12 -72 -43 -121 -68 -132 -69
-191 -66 -296 15 -19 15 -57 36 -85 46 -78 28 -88 40 -83 103 3 30 10 57 16
59 7 2 12 15 12 28 0 52 25 78 127 129 54 28 100 53 101 58 2 4 10 7 18 7 13
0 28 6 74 31 8 5 43 23 78 40 34 17 62 35 62 39 0 5 -15 13 -32 20 -30 11 -31
13 -13 20 31 13 102 11 194 -5z m-1567 -12 c27 -32 39 -63 30 -79 -7 -12 -14
-8 -35 23 -38 56 -34 100 5 56z m-952 -28 c-27 -14 -36 -13 -25 4 3 6 16 11
28 11 21 -1 21 -1 -3 -15z m880 -37 c51 -70 34 -96 -19 -31 -30 37 -41 73 -21
73 5 0 23 -19 40 -42z m-300 1 c7 -11 18 -18 25 -15 19 7 58 -47 44 -61 -8 -8
-8 -17 0 -31 6 -11 11 -23 11 -27 0 -10 -264 -135 -286 -135 -16 0 -33 18 -63
66 -22 36 -41 72 -41 80 0 16 251 144 282 144 10 0 22 -9 28 -21z m-655 1 c-3
-5 -10 -10 -16 -10 -5 0 -9 5 -9 10 0 6 7 10 16 10 8 0 12 -4 9 -10z m-320
-72 c-134 -68 -185 -91 -185 -83 0 7 281 144 295 144 6 0 -44 -27 -110 -61z
m2275 -18 c-8 -5 -19 -10 -25 -10 -5 0 -3 5 5 10 8 5 20 10 25 10 6 0 3 -5 -5
-10z m-2500 -13 c0 -12 -40 -38 -58 -37 -6 1 49 50 56 50 1 0 2 -6 2 -13z
m3435 -47 c8 -16 15 -33 15 -37 -1 -14 -40 39 -40 53 0 22 8 17 25 -16z
m-1055 5 c0 -11 -931 -465 -953 -464 -17 0 353 186 678 341 285 135 275 130
275 123z m-673 -550 c28 -13 59 -35 68 -49 25 -38 17 -136 -18 -204 -15 -30
-27 -61 -27 -70 0 -21 -61 -108 -103 -146 -18 -16 -62 -49 -99 -73 -37 -24
-75 -51 -84 -61 -14 -14 -35 -17 -108 -16 -78 0 -108 6 -206 39 -136 45 -178
77 -187 143 -4 29 -1 49 11 66 9 14 25 54 37 90 23 70 108 180 108 141 1 -11
-10 -42 -22 -70 -31 -65 -40 -102 -27 -110 5 -3 10 -1 10 4 0 6 4 11 9 11 20
0 86 47 140 99 62 61 178 138 297 200 89 46 110 47 201 6z m1333 -115 c0 -5
-5 -10 -11 -10 -5 0 -7 5 -4 10 3 6 8 10 11 10 2 0 4 -4 4 -10z m58 -139 c3
-8 -1 -12 -9 -9 -7 2 -15 10 -17 17 -3 8 1 12 9 9 7 -2 15 -10 17 -17z m-38
-14 c0 -12 -1166 -597 -1190 -597 -6 0 -10 6 -10 14 0 9 46 38 113 70 61 30
326 160 587 290 261 129 481 235 488 236 6 0 12 -6 12 -13z m-2211 -399 c37
-62 91 -123 136 -155 44 -32 47 -37 30 -44 -34 -13 -93 -10 -109 6 -8 8 -29
15 -46 15 -43 0 -65 14 -80 50 -16 39 -7 97 21 126 28 29 31 30 48 2z"/>
<path d="M2280 3081 c0 -5 -13 -12 -30 -16 -44 -10 -47 -25 -5 -25 25 0 47 8
67 25 l30 25 -31 0 c-17 0 -31 -4 -31 -9z"/>
<path d="M2178 3032 c-10 -2 -18 -7 -18 -12 0 -4 -18 -11 -40 -15 -30 -5 -40
-11 -38 -23 5 -29 38 -44 38 -18 0 8 10 18 23 22 21 6 63 42 56 48 -2 1 -12 1
-21 -2z"/>
<path d="M1910 2905 c-10 -12 -10 -19 -2 -27 9 -9 12 -8 12 5 0 9 5 17 10 17
6 0 10 5 10 10 0 15 -16 12 -30 -5z"/>
<path d="M2940 2903 c-63 -30 -116 -56 -118 -58 -6 -5 73 -124 83 -125 18 -1
245 115 245 125 0 18 -70 115 -83 114 -6 0 -64 -25 -127 -56z m159 -18 c18
-31 19 -37 5 -42 -8 -3 -16 -4 -18 -2 -40 53 -48 72 -35 79 17 11 23 7 48 -35z
m-61 -29 c18 -30 19 -35 5 -40 -9 -4 -17 -5 -18 -4 -1 2 -12 18 -25 37 -18 26
-20 35 -9 41 17 11 23 7 47 -34z m-63 -23 c22 -33 23 -38 9 -46 -8 -5 -17 -7
-18 -5 -21 29 -44 76 -39 81 12 13 23 7 48 -30z m-57 -32 c19 -33 20 -40 7
-45 -16 -6 -68 61 -59 76 11 18 31 6 52 -31z"/>
<path d="M3766 2303 c-13 -14 -5 -33 14 -33 11 0 20 6 20 14 0 15 -24 28 -34
19z"/>
<path d="M3322 1988 c9 -29 79 -51 172 -54 79 -2 83 -2 31 5 -67 8 -173 39
-181 52 -8 14 -26 10 -22 -3z"/>
<path d="M1752 2327 l-122 -62 36 -55 c20 -30 40 -59 44 -63 6 -6 238 100 258
118 6 5 -73 124 -83 124 -5 0 -65 -28 -133 -62z m157 -13 c20 -33 20 -54 2
-54 -12 0 -61 77 -54 84 14 14 32 4 52 -30z m-60 -30 c25 -42 25 -40 7 -47
-15 -6 -70 66 -59 77 14 14 32 4 52 -30z m-64 -21 c29 -43 30 -49 11 -56 -20
-8 -69 66 -53 82 15 15 13 16 42 -26z m-56 -39 c25 -43 26 -44 4 -44 -19 0
-66 63 -56 74 14 14 32 4 52 -30z"/>
<path d="M1943 1413 c-21 -8 -15 -43 6 -43 11 0 23 5 27 11 8 14 -17 38 -33
32z"/>
<path d="M2135 1349 c-158 -8 -148 -7 -140 -19 3 -5 -3 -10 -14 -10 -42 0 -80
-67 -50 -86 8 -4 7 -9 -2 -15 -24 -15 87 -10 161 7 37 8 85 24 106 35 21 10
48 19 59 19 11 0 28 9 38 20 9 11 28 20 42 20 14 0 25 4 25 8 0 18 -26 32 -59
30 -20 -1 -94 -5 -166 -9z"/>
<path d="M3650 1520 c-9 -6 -10 -10 -3 -10 6 0 15 5 18 10 8 12 4 12 -15 0z"/>
<path d="M3403 1458 c11 -10 29 -18 41 -17 17 1 16 2 -7 9 -16 5 -34 12 -41
17 -6 4 -3 0 7 -9z"/>
<path d="M2720 1302 c0 -25 112 -201 117 -185 3 7 -8 31 -23 55 -16 24 -43 67
-61 97 -24 39 -33 49 -33 33z"/>
<path d="M2649 1183 c-13 -17 -13 -17 6 -3 11 8 22 16 24 17 2 2 0 3 -6 3 -6
0 -17 -8 -24 -17z"/>
<path d="M2730 1196 c0 -2 7 -9 15 -16 9 -7 15 -8 15 -2 0 5 -7 12 -15 16 -8
3 -15 4 -15 2z"/>
<path d="M2649 1103 c6 -13 19 -23 28 -23 9 0 14 1 12 3 -2 1 -15 11 -28 22
l-24 20 12 -22z"/>
<path d="M2470 940 c-9 -6 -10 -10 -3 -10 6 0 15 5 18 10 8 12 4 12 -15 0z"/>
</g>
</svg>
