<?xml version="1.0" standalone="no"?>
<!DOCTYPE svg PUBLIC "-//W3C//DTD SVG 20010904//EN"
 "http://www.w3.org/TR/2001/REC-SVG-20010904/DTD/svg10.dtd">
<svg version="1.0" xmlns="http://www.w3.org/2000/svg"
 width="289.000000pt" height="289.000000pt" viewBox="0 0 289.000000 289.000000"
 preserveAspectRatio="xMidYMid meet">

<g transform="translate(0.000000,289.000000) scale(0.100000,-0.100000)"
fill="#000000" stroke="none">
<path d="M1442 2810 c-222 -51 -399 -219 -447 -428 -31 -130 -15 -247 49 -377
67 -135 225 -265 361 -299 17 -4 38 -14 47 -23 9 -8 21 -12 27 -9 10 6 41 -42
41 -64 0 -5 -13 -10 -30 -10 -23 0 -30 -5 -30 -19 0 -14 8 -21 28 -23 25 -3
27 -6 32 -63 5 -57 6 -60 33 -63 17 -2 37 4 48 14 17 15 19 15 25 0 12 -30 34
-18 34 19 0 37 -22 49 -34 19 -3 -8 -10 -13 -16 -9 -14 9 -9 73 7 79 15 6 18
46 3 46 -14 0 -12 32 4 53 7 9 22 17 33 17 11 0 26 7 33 15 7 8 18 15 26 15 7
0 -5 19 -27 43 -23 23 -48 54 -57 70 -13 21 -25 27 -52 28 -30 2 -31 3 -7 6
15 2 27 6 27 8 0 2 -11 25 -25 52 -13 26 -25 40 -25 31 0 -10 -8 -18 -17 -19
-11 0 -13 -3 -5 -6 35 -14 1 -21 -96 -20 -106 2 -109 3 -149 35 -192 152 -212
429 -45 614 108 119 294 174 454 133 l67 -17 33 25 c18 14 49 33 68 42 l34 18
-49 24 c-58 29 -210 63 -275 62 -25 0 -82 -9 -128 -19z m150 -55 c0 -5 -5 -11
-11 -13 -6 -2 -11 4 -11 13 0 9 5 15 11 13 6 -2 11 -8 11 -13z m-522 -306 c0
-5 -4 -9 -8 -9 -5 0 -9 -6 -10 -12 -3 -34 -17 -74 -28 -85 -17 -18 -29 -16
-14 2 6 8 9 19 5 25 -4 6 -1 17 5 25 6 8 10 18 7 22 -10 16 12 53 28 47 8 -3
15 -10 15 -15z m-63 -161 c-3 -8 -6 -5 -6 6 -1 11 2 17 5 13 3 -3 4 -12 1 -19z
m21 -75 c0 -19 -4 -30 -10 -27 -5 3 -7 8 -4 11 2 3 1 15 -4 27 -6 16 -5 23 5
23 8 0 13 -13 13 -34z m465 -420 c-7 -2 -21 -2 -30 0 -10 3 -4 5 12 5 17 0 24
-2 18 -5z m94 -19 c-3 -3 -12 -4 -19 -1 -8 3 -5 6 6 6 11 1 17 -2 13 -5z"/>
<path d="M1954 2594 l-52 -27 36 -46 c36 -48 75 -126 86 -173 l6 -28 -89 0
-89 0 -6 -47 c-3 -27 -5 -70 -5 -98 0 -27 -4 -51 -10 -53 -18 -6 -14 -72 4
-72 12 0 15 -14 15 -70 0 -68 -1 -71 -30 -89 l-31 -18 48 -47 c26 -25 54 -46
62 -46 8 0 33 16 57 35 23 19 44 35 46 35 3 0 3 -13 0 -30 -3 -22 -10 -30 -26
-31 -17 -1 -17 -2 -3 -6 24 -6 21 -23 -4 -23 -34 0 -16 -21 36 -43 34 -13 83
-21 151 -25 108 -5 171 5 249 38 45 19 48 23 30 32 -19 11 -19 11 0 19 19 7
19 8 -2 15 -20 5 -23 13 -23 60 l0 54 63 0 c34 0 67 4 74 8 7 4 12 32 12 66 0
44 4 62 15 68 20 11 21 64 2 71 -11 4 -14 27 -14 96 0 49 -3 94 -6 100 -8 12
-153 15 -180 5 -13 -5 -16 -24 -16 -100 0 -56 -4 -94 -10 -94 -5 0 -10 -15
-10 -34 0 -19 5 -38 10 -41 6 -3 10 -34 10 -67 0 -44 4 -64 16 -73 25 -18 10
-115 -19 -123 -20 -5 -20 -6 -1 -13 11 -5 -9 -8 -53 -8 -66 -1 -93 9 -60 22 6
3 2 6 -9 6 -17 1 -23 9 -28 39 -12 77 -11 81 42 84 42 3 47 6 50 29 2 18 -10
47 -33 83 -20 31 -33 61 -30 66 4 6 2 9 -4 8 -5 -2 -32 33 -60 77 l-49 80 89
3 89 3 0 29 c0 29 -1 29 -62 32 l-62 3 -23 77 c-26 87 -98 202 -128 206 -11 1
-43 -9 -71 -24z m596 -466 c0 -84 -4 -138 -9 -133 -5 6 -45 70 -90 143 l-81
132 90 0 90 0 0 -142z m-544 62 c1 -36 0 -55 -3 -44 -2 13 -14 24 -29 27 -23
4 -28 -3 -27 -40 1 -7 -3 -10 -8 -7 -5 3 -9 12 -9 20 0 8 -4 14 -9 14 -11 0
-22 37 -12 43 3 2 0 2 -6 1 -7 -2 -20 10 -28 27 l-16 30 73 -3 73 -3 1 -65z
m24 -67 c0 -75 -3 -134 -6 -131 -3 3 -20 30 -39 59 -33 53 -36 79 -8 79 12 0
14 -7 10 -30 -4 -17 -2 -32 5 -36 7 -4 8 -3 4 4 -4 7 -2 20 4 29 8 15 10 11 8
-19 -1 -20 1 -40 5 -45 5 -4 7 45 5 110 -2 64 0 117 5 117 4 0 7 -61 7 -137z
m73 -183 c4 -15 14 -20 41 -20 l36 0 0 -60 c0 -55 -2 -60 -22 -60 -21 0 -21 0
-2 -15 17 -13 13 -14 -51 -14 -43 0 -62 3 -51 8 19 7 19 8 -2 13 -18 5 -22 13
-22 51 0 31 6 49 20 62 11 10 22 26 25 36 8 25 21 24 28 -1z"/>
<path d="M2532 2055 c0 -16 2 -22 5 -12 2 9 2 23 0 30 -3 6 -5 -1 -5 -18z"/>
<path d="M480 2506 c0 -35 -5 -58 -14 -66 -13 -10 -15 -3 -18 47 l-3 58 -56 3
-56 3 -6 -78 c-4 -47 -2 -82 4 -88 7 -7 8 -4 4 8 -5 12 -2 17 11 18 18 0 17 1
-1 9 -18 7 -19 8 -2 15 9 4 17 13 17 21 0 9 8 12 23 10 12 -3 28 -5 35 -5 8
-1 12 -19 12 -56 l0 -55 -50 0 c-43 0 -50 -3 -50 -20 0 -17 7 -20 45 -20 44 0
45 0 45 -34 0 -21 -6 -36 -15 -40 -67 -25 89 -65 185 -46 62 12 91 33 72 52
-7 7 -12 24 -12 39 0 26 4 28 42 31 31 2 44 8 46 21 3 15 -5 17 -57 17 -46 0
-61 -3 -61 -14 0 -8 5 -18 10 -21 11 -7 13 -45 4 -69 -4 -11 -19 -16 -46 -16
-21 0 -37 4 -34 9 4 5 1 11 -4 13 -6 2 -12 17 -13 33 -2 26 2 30 26 33 15 2
27 9 27 18 0 11 -15 14 -61 14 -44 0 -60 -3 -57 -12 3 -7 14 -14 26 -16 18 -3
22 -10 22 -38 0 -19 -5 -34 -11 -34 -5 0 -7 -4 -4 -10 7 -11 -34 -14 -59 -4
-18 7 -23 69 -6 79 6 3 10 23 10 44 0 46 8 56 27 33 13 -15 14 -14 9 16 -5 30
-4 32 27 33 17 1 24 3 15 6 -10 2 -15 10 -11 19 3 8 -1 14 -11 14 -9 0 -16 4
-16 9 0 5 9 7 20 4 11 -3 20 -12 20 -20 0 -8 3 -12 8 -10 4 3 16 1 27 -4 18
-7 18 -8 2 -8 -10 -1 -15 -5 -12 -11 3 -5 1 -10 -6 -10 -7 0 -9 -3 -6 -6 4 -4
14 -1 24 7 15 12 16 12 11 -3 -4 -10 -1 -19 9 -22 13 -5 14 -1 9 25 -3 17 -6
53 -6 80 l0 49 -55 0 -55 0 0 -54z m-50 7 c0 -8 -9 -11 -22 -9 -13 3 -27 5
-33 5 -5 1 -5 5 2 9 19 12 53 9 53 -5z m75 7 c3 -5 1 -10 -4 -10 -6 0 -11 5
-11 10 0 6 2 10 4 10 3 0 8 -4 11 -10z m75 -7 c0 -7 -9 -13 -20 -13 -11 0 -20
6 -20 13 0 7 9 13 20 13 11 0 20 -6 20 -13z m-200 -29 c0 -2 -9 -4 -20 -4 -11
0 -20 4 -20 9 0 5 9 7 20 4 11 -3 20 -7 20 -9z"/>
<path d="M631 2538 c-12 -34 -14 -171 -2 -164 6 4 8 13 5 20 -3 8 2 16 13 19
16 4 16 5 1 6 -32 2 -19 21 15 22 25 0 28 2 13 8 -20 8 -11 19 12 15 6 -1 20
-2 30 -3 15 -2 14 -3 -3 -11 -17 -7 -17 -9 -2 -9 13 -1 17 -10 17 -43 l0 -43
16 30 c11 22 12 35 5 50 -6 11 -12 43 -13 70 l-3 50 -48 3 c-42 3 -48 0 -56
-20z m99 -27 c0 -6 -9 -9 -20 -8 -11 1 -20 5 -20 9 0 4 9 8 20 8 11 0 20 -4
20 -9z"/>
<path d="M685 2420 c-3 -6 1 -7 9 -4 18 7 21 14 7 14 -6 0 -13 -4 -16 -10z"/>
<path d="M1483 2383 c-9 -3 -13 -29 -13 -78 0 -41 -4 -77 -10 -80 -5 -3 -10
-17 -10 -30 0 -13 5 -27 10 -30 6 -3 10 -31 10 -61 0 -52 1 -54 28 -54 l27 0
-3 98 c-3 66 1 117 12 159 9 33 16 65 16 69 0 10 -48 15 -67 7z"/>
<path d="M2140 2249 c0 -5 4 -8 9 -4 5 3 11 -5 13 -17 2 -13 9 -22 17 -20 8 2
11 -3 8 -12 -3 -8 0 -17 8 -20 7 -2 15 -15 17 -27 2 -12 9 -24 16 -27 9 -3 12
14 12 61 0 60 2 66 23 70 12 2 -11 5 -50 6 -46 0 -73 -3 -73 -10z m87 -91 c-2
-18 -4 -4 -4 32 0 36 2 50 4 33 2 -18 2 -48 0 -65z"/>
<path d="M2292 2190 c0 -19 2 -27 5 -17 2 9 2 25 0 35 -3 9 -5 1 -5 -18z"/>
<path d="M2293 2072 c0 -42 2 -63 4 -47 3 17 11 34 19 38 20 12 17 60 -5 74
-17 11 -18 7 -18 -65z"/>
<path d="M495 2058 c1 -18 5 -41 10 -50 4 -10 4 -25 1 -34 -5 -13 -9 -14 -21
-4 -13 11 -15 8 -15 -15 0 -23 2 -26 15 -15 9 7 18 10 21 8 3 -3 1 -55 -4
-114 -5 -60 -5 -113 0 -119 9 -10 9 -205 -1 -340 -5 -78 -9 -90 -26 -95 -11
-3 -21 -9 -22 -15 0 -5 -22 -81 -48 -167 -26 -87 -44 -162 -41 -167 3 -5 2
-11 -3 -13 -9 -3 -311 -607 -311 -621 0 -4 6 -7 13 -7 7 0 100 177 208 392
129 260 201 394 212 396 16 3 17 -28 15 -449 -3 -417 -2 -452 14 -455 15 -2
17 27 17 374 1 208 1 410 2 451 1 120 26 122 88 6 39 -72 80 -145 111 -200 12
-22 35 -62 50 -90 99 -181 233 -421 239 -427 3 -4 12 -4 19 1 9 5 -5 38 -51
122 -35 63 -75 133 -90 156 -15 24 -27 45 -27 47 0 2 -20 39 -45 80 -25 42
-45 78 -45 81 0 2 -16 31 -36 65 -43 72 -156 400 -143 415 16 16 10 24 -23 27
l-33 3 -3 218 c-2 204 -1 218 15 215 13 -2 19 5 21 22 2 14 9 31 15 38 8 10 7
12 -4 10 -8 -2 -15 7 -17 20 -2 16 3 25 20 31 l23 8 -23 7 c-24 8 -29 35 -10
54 9 9 6 12 -14 12 -15 0 -30 5 -33 10 -3 6 -2 10 4 10 6 0 13 16 17 35 3 19
12 35 19 35 23 0 27 31 5 37 -15 4 -19 11 -15 24 6 16 1 19 -33 19 -38 0 -39
-1 -37 -32z m60 -178 c3 -5 1 -10 -4 -10 -6 0 -11 5 -11 10 0 6 2 10 4 10 3 0
8 -4 11 -10z m2 -72 c-3 -8 -6 -5 -6 6 -1 11 2 17 5 13 3 -3 4 -12 1 -19z
m-85 -595 c-5 -10 -19 -56 -32 -103 -12 -47 -26 -89 -31 -95 -12 -12 -12 4 0
41 5 16 19 62 31 102 12 39 26 72 31 72 6 0 6 -7 1 -17z m26 -70 c-3 -24 -38
-45 -38 -21 0 5 8 33 18 61 17 51 17 51 20 19 2 -18 2 -44 0 -59z m75 45 c25
-67 25 -73 -3 -73 -23 0 -25 4 -28 58 -4 68 9 74 31 15z"/>
<path d="M2256 2081 c-3 -4 1 -17 9 -27 8 -10 15 -14 15 -7 0 6 -5 15 -10 18
-6 4 -8 11 -5 16 4 5 4 9 1 9 -3 0 -7 -4 -10 -9z"/>
<path d="M2120 1521 c0 -6 5 -13 10 -16 11 -7 14 -48 3 -59 -13 -12 -11 -35 3
-47 16 -13 19 -89 4 -89 -6 0 -13 7 -16 15 -13 32 -34 16 -34 -25 0 -42 11
-50 36 -25 14 13 17 13 30 0 19 -18 73 -20 79 -2 3 6 6 37 8 67 l3 55 33 -3
c31 -4 32 -3 29 30 -3 29 -7 33 -30 33 -32 -1 -37 18 -12 53 l15 22 -80 0
c-45 0 -81 -4 -81 -9z"/>
<path d="M2285 1109 c4 -5 22 -9 42 -9 45 0 40 5 -10 13 -22 3 -35 2 -32 -4z"/>
<path d="M2260 985 c0 -8 2 -15 4 -15 2 0 6 7 10 15 3 8 1 15 -4 15 -6 0 -10
-7 -10 -15z"/>
<path d="M2108 953 c6 -2 18 -2 25 0 6 3 1 5 -13 5 -14 0 -19 -2 -12 -5z"/>
<path d="M2151 955 c13 -12 100 -54 94 -45 -4 6 -24 19 -45 30 -37 19 -59 26
-49 15z"/>
<path d="M2041 924 c-17 -14 -31 -31 -31 -37 0 -7 10 0 23 14 12 15 31 32 42
38 11 6 15 11 8 11 -6 0 -25 -12 -42 -26z"/>
<path d="M2561 894 c0 -11 3 -14 6 -6 3 7 2 16 -1 19 -3 4 -6 -2 -5 -13z"/>
<path d="M2592 890 c0 -14 2 -19 5 -12 2 6 2 18 0 25 -3 6 -5 1 -5 -13z"/>
<path d="M2066 869 c-14 -11 -26 -26 -26 -32 0 -7 8 -2 18 9 9 12 26 26 37 32
11 6 15 12 9 12 -6 0 -23 -9 -38 -21z"/>
<path d="M2161 886 c2 -2 15 -9 29 -15 24 -11 24 -11 6 3 -16 13 -49 24 -35
12z"/>
<path d="M2220 857 c0 -2 15 -16 33 -33 l32 -29 -29 33 c-28 30 -36 37 -36 29z"/>
<path d="M2300 846 c0 -2 8 -10 18 -17 15 -13 16 -12 3 4 -13 16 -21 21 -21
13z"/>
<path d="M1993 780 c0 -36 2 -50 4 -32 2 17 2 47 0 65 -2 17 -4 3 -4 -33z"/>
<path d="M1610 797 c-51 -31 -56 -37 -64 -81 -9 -43 -8 -50 10 -63 11 -8 30
-12 47 -9 22 5 27 2 27 -15 0 -18 3 -19 15 -9 8 6 20 8 27 4 23 -14 66 -14 78
1 7 8 17 12 24 8 6 -4 5 1 -3 11 -13 15 -12 19 8 32 14 10 20 22 16 34 -3 10
-1 21 4 25 6 3 14 -9 19 -27 l8 -33 8 30 c6 22 3 32 -10 42 -23 17 -34 16 -34
-2 0 -8 -6 -16 -12 -16 -7 -1 -26 -3 -41 -5 -22 -2 -27 1 -23 14 17 57 18 75
5 83 -25 15 -53 9 -109 -24z"/>
<path d="M2032 800 c0 -14 2 -19 5 -12 2 6 2 18 0 25 -3 6 -5 1 -5 -13z"/>
<path d="M2290 770 c6 -11 13 -20 16 -20 2 0 0 9 -6 20 -6 11 -13 20 -16 20
-2 0 0 -9 6 -20z"/>
<path d="M2346 777 c3 -10 9 -15 12 -12 3 3 0 11 -7 18 -10 9 -11 8 -5 -6z"/>
<path d="M2366 730 c13 -65 15 -129 5 -167 -11 -41 -59 -103 -80 -103 -20 0
-11 51 14 84 14 18 25 41 25 52 0 11 -9 2 -21 -23 -12 -24 -27 -43 -33 -43 -7
0 -36 11 -64 25 -29 14 -54 25 -57 25 -2 1 -21 8 -41 16 -41 17 -39 18 -47
-16 -4 -19 2 -33 24 -58 29 -32 31 -33 44 -15 8 10 15 23 15 28 0 12 20 -16
20 -29 0 -4 -6 -6 -14 -3 -23 9 -26 -19 -6 -41 26 -28 127 -26 167 4 65 47 90
156 57 249 -7 22 -11 29 -8 15z m-206 -165 c14 -8 21 -14 15 -14 -5 0 -21 6
-35 14 -14 8 -20 14 -15 14 6 0 21 -6 35 -14z m55 -33 c-3 -3 -11 0 -18 7 -9
10 -8 11 6 5 10 -3 15 -9 12 -12z m-5 -43 c0 -6 -4 -7 -10 -4 -5 3 -10 11 -10
16 0 6 5 7 10 4 6 -3 10 -11 10 -16z"/>
<path d="M2311 725 c1 -19 18 -51 18 -35 0 8 -4 22 -9 30 -5 8 -9 11 -9 5z"/>
<path d="M2700 695 c0 -8 2 -15 4 -15 2 0 6 7 10 15 3 8 1 15 -4 15 -6 0 -10
-7 -10 -15z"/>
<path d="M1807 651 c-4 -17 -3 -21 5 -13 5 5 8 16 6 23 -3 8 -7 3 -11 -10z"/>
<path d="M1296 581 c-4 -5 7 -18 24 -27 30 -18 39 -34 20 -34 -5 0 -7 -13 -3
-30 6 -34 3 -36 -37 -15 -35 18 -51 2 -18 -19 13 -8 102 -60 198 -116 96 -57
222 -130 279 -163 91 -54 104 -59 113 -44 5 9 16 17 23 17 8 0 15 7 15 16 0 8
4 13 9 9 5 -3 17 3 27 12 16 17 16 18 1 21 -11 2 -17 13 -17 33 0 20 -6 31
-17 35 -10 3 -36 14 -58 26 -22 11 -87 45 -145 75 -58 29 -112 63 -121 75 -11
14 -18 17 -20 9 -3 -9 -16 -6 -44 10 -22 13 -43 28 -47 34 -4 5 -8 6 -8 2 0
-4 -38 13 -84 38 -47 26 -87 41 -90 36z m136 -159 c7 -7 20 -12 29 -12 9 0 19
-6 22 -14 8 -20 -18 -14 -66 14 -20 12 -37 23 -37 24 0 8 42 -2 52 -12z m246
-128 c75 -42 143 -81 150 -87 15 -12 16 -27 1 -27 -20 0 -243 138 -293 182
-26 21 16 2 142 -68z m72 21 c7 -8 9 -15 6 -15 -4 0 -14 7 -22 15 -9 8 -11 15
-6 15 5 0 15 -7 22 -15z m75 -45 c3 -6 -1 -7 -9 -4 -18 7 -21 14 -7 14 6 0 13
-4 16 -10z m-115 -34 c0 -3 -4 -8 -10 -11 -5 -3 -10 -1 -10 4 0 6 5 11 10 11
6 0 10 -2 10 -4z m178 -51 c6 -14 10 -25 8 -25 -2 0 -11 11 -20 25 -9 14 -13
25 -8 25 5 0 14 -11 20 -25z m-38 -25 c0 -5 -4 -10 -10 -10 -5 0 -10 5 -10 10
0 6 5 10 10 10 6 0 10 -4 10 -10z"/>
<path d="M2186 422 c-2 -4 -1 -14 5 -22 7 -12 9 -10 9 8 0 23 -5 28 -14 14z"/>
<path d="M2152 393 c2 -14 9 -28 16 -31 18 -6 15 45 -4 52 -12 5 -15 0 -12
-21z"/>
<path d="M2289 399 c13 -11 31 -17 38 -15 8 3 11 1 8 -4 -3 -6 3 -10 13 -10
11 0 25 -7 32 -15 14 -17 55 -21 45 -4 -8 12 -130 69 -148 69 -6 -1 -1 -10 12
-21z"/>
</g>
</svg>
