<?xml version="1.0" standalone="no"?>
<!DOCTYPE svg PUBLIC "-//W3C//DTD SVG 20010904//EN"
 "http://www.w3.org/TR/2001/REC-SVG-20010904/DTD/svg10.dtd">
<svg version="1.0" xmlns="http://www.w3.org/2000/svg"
 width="5533.000000pt" height="1796.000000pt" viewBox="0 0 5533.000000 1796.000000"
 preserveAspectRatio="xMidYMid meet">

<g transform="translate(0.000000,1796.000000) scale(0.100000,-0.100000)"
fill="#000000" stroke="none">
<path d="M36590 17170 c-514 -4 -1440 -11 -2057 -15 -618 -5 -1123 -12 -1123
-17 0 -4 11 -8 25 -8 23 0 25 -4 25 -40 0 -36 -2 -40 -25 -40 -16 0 -25 6 -25
15 0 12 -13 15 -60 15 -57 0 -60 1 -60 25 0 18 -5 25 -20 25 -15 0 -20 -7 -20
-25 0 -18 5 -25 20 -25 17 0 20 -7 20 -40 0 -33 3 -40 20 -40 13 0 20 -7 20
-20 0 -13 -7 -20 -20 -20 -12 0 -20 -7 -20 -16 0 -9 9 -18 20 -21 11 -3 20
-14 20 -24 0 -12 7 -19 20 -19 15 0 20 -7 20 -25 0 -23 4 -25 45 -25 25 0 45
-4 45 -10 0 -5 -11 -10 -24 -10 -15 0 -26 -7 -29 -19 -4 -16 -18 -20 -93 -26
-49 -3 -116 -13 -149 -21 -33 -9 -124 -22 -202 -29 -78 -8 -174 -21 -215 -29
-40 -8 -118 -18 -173 -22 -55 -3 -120 -13 -145 -20 -25 -8 -103 -19 -175 -25
-109 -9 -132 -14 -144 -30 -8 -11 -25 -19 -42 -19 -19 0 -29 -5 -29 -15 0 -8
-7 -15 -15 -15 -8 0 -15 -6 -15 -14 0 -8 7 -16 15 -20 8 -3 15 -15 15 -26 0
-11 7 -23 15 -26 8 -4 15 -12 15 -20 0 -8 -7 -14 -15 -14 -12 0 -15 -18 -15
-105 0 -98 1 -105 20 -105 16 0 20 -7 20 -35 0 -39 -2 -38 100 -35 30 1 125 3
210 4 112 1 162 5 180 15 18 10 82 16 220 21 107 4 208 13 223 19 16 6 115 16
220 21 106 5 212 14 237 19 25 5 108 12 185 16 77 3 183 13 235 21 52 7 162
18 244 24 81 6 152 12 156 15 4 3 94 12 199 20 106 9 213 20 239 25 26 4 92
11 147 15 55 3 163 15 240 25 77 10 188 21 247 25 59 3 122 10 140 16 18 5
102 14 188 19 85 6 196 17 245 25 50 7 146 17 215 20 69 4 148 11 175 16 28 5
118 14 200 19 83 6 197 17 255 25 58 7 157 17 220 20 63 4 156 12 205 20 50 7
144 16 210 20 66 3 158 12 205 20 47 7 135 16 195 20 61 3 148 12 195 20 47 8
137 17 200 20 63 4 156 13 205 21 50 7 153 18 230 23 77 6 161 14 186 20 24 6
114 15 199 21 85 6 171 15 191 20 20 6 105 15 189 20 84 6 172 15 196 20 23 5
109 15 191 20 81 6 184 17 228 25 44 8 127 17 185 20 58 4 143 13 190 21 47 7
139 18 205 24 66 6 143 15 170 21 28 5 111 14 185 20 74 5 171 16 215 24 44 7
130 17 190 20 61 3 146 13 191 21 44 8 145 18 225 24 79 5 176 16 214 25 39 8
102 15 140 15 96 0 205 11 200 20 -3 4 -26 10 -52 13 -75 10 -4646 15 -5693 7z
m-3010 -145 c0 -8 -9 -15 -20 -15 -11 0 -20 7 -20 15 0 8 9 15 20 15 11 0 20
-7 20 -15z"/>
<path d="M1710 17160 c-85 -4 -163 -8 -173 -9 -17 -1 -16 -4 7 -31 27 -33 46
-87 46 -133 0 -35 -34 -102 -68 -135 -71 -66 -204 -92 -289 -57 -29 12 -43 13
-64 5 -35 -15 -39 -40 -39 -279 0 -210 -4 -186 61 -326 10 -22 32 -70 49 -107
58 -131 91 -203 109 -243 25 -54 64 -139 91 -200 12 -27 30 -68 41 -90 10 -22
32 -70 49 -107 16 -38 44 -98 60 -135 17 -38 39 -86 49 -108 11 -22 28 -61 40
-87 61 -138 70 -159 135 -300 13 -29 36 -80 51 -113 15 -33 41 -89 57 -125 29
-64 46 -101 89 -197 12 -27 32 -73 46 -103 14 -30 33 -73 43 -95 10 -22 30
-65 44 -95 14 -30 26 -60 26 -66 0 -7 6 -17 14 -23 8 -7 17 -27 20 -45 4 -19
13 -39 21 -46 8 -7 15 -17 15 -23 0 -6 9 -30 20 -54 11 -24 29 -64 41 -90 12
-27 32 -73 46 -103 14 -30 33 -73 43 -95 10 -22 29 -65 43 -95 14 -30 35 -77
47 -105 12 -27 30 -66 41 -86 10 -20 19 -43 19 -52 0 -8 7 -20 15 -27 8 -7 17
-27 21 -46 3 -18 12 -38 20 -45 8 -6 14 -16 14 -22 0 -6 9 -31 21 -56 25 -54
63 -139 88 -196 10 -22 30 -65 45 -95 14 -30 26 -60 26 -66 0 -7 6 -17 14 -23
8 -7 17 -27 20 -45 4 -19 13 -39 21 -46 8 -7 15 -17 15 -23 0 -6 10 -31 21
-56 12 -25 35 -75 51 -111 16 -36 34 -72 39 -80 5 -8 12 -22 15 -30 3 -8 13
-33 23 -55 10 -22 31 -67 46 -100 15 -33 31 -67 36 -75 5 -8 12 -22 15 -30 3
-8 17 -39 30 -67 13 -29 36 -79 50 -110 14 -32 30 -65 35 -73 5 -8 12 -22 15
-30 26 -63 126 -281 201 -439 14 -30 26 -70 27 -90 1 -34 -2 -37 -44 -52 -25
-9 -58 -21 -73 -27 -16 -7 -36 -12 -46 -12 -9 0 -34 -9 -55 -19 -21 -11 -51
-23 -66 -26 -15 -3 -45 -15 -66 -26 -21 -10 -45 -19 -54 -19 -8 0 -28 -9 -45
-20 -16 -11 -39 -20 -50 -20 -11 0 -30 -6 -41 -14 -11 -8 -40 -19 -64 -26 -24
-7 -53 -18 -64 -26 -11 -8 -27 -14 -36 -14 -8 0 -37 -12 -65 -25 -27 -14 -60
-25 -71 -25 -12 0 -27 -6 -33 -14 -7 -8 -28 -17 -47 -21 -20 -3 -50 -15 -67
-26 -18 -10 -40 -19 -50 -19 -9 0 -34 -9 -54 -20 -21 -11 -44 -20 -51 -20 -8
0 -26 -7 -40 -15 -15 -8 -47 -22 -72 -31 -25 -9 -63 -22 -85 -30 -22 -8 -52
-21 -67 -29 -14 -8 -32 -15 -38 -15 -7 0 -31 -9 -54 -19 -23 -10 -75 -31 -116
-46 -41 -16 -93 -36 -116 -46 -22 -11 -46 -19 -53 -19 -7 0 -25 -7 -41 -16
-15 -10 -34 -14 -43 -11 -12 4 -89 151 -155 297 -7 14 -16 32 -20 40 -9 14
-21 42 -75 160 -22 49 -59 128 -133 285 -13 28 -24 56 -24 63 0 6 -4 12 -10
12 -5 0 -15 19 -22 43 -11 38 -13 26 -20 -153 -4 -107 -7 -2551 -5 -5430 l2
-5235 26645 3 c14655 2 26651 3 26658 3 9 -1 12 517 11 2562 -1 1409 -5 3277
-8 4150 -5 1396 -8 1589 -21 1597 -23 15 -34 12 -74 -15 -31 -21 -43 -24 -69
-17 -46 13 -197 3 -197 -13 0 -15 -132 -30 -172 -20 -15 4 -29 2 -32 -4 -4 -6
-25 -11 -47 -11 -21 0 -39 -4 -39 -9 0 -5 -29 -15 -65 -22 -36 -7 -65 -16 -65
-21 0 -4 -18 -8 -40 -8 -22 0 -40 5 -40 10 0 6 -18 10 -40 10 -22 0 -40 -4
-40 -10 0 -5 -20 -10 -44 -10 -25 0 -46 -5 -48 -11 -3 -9 -18 -9 -57 1 -38 9
-55 9 -60 2 -4 -6 -30 -16 -59 -23 -29 -6 -59 -17 -66 -25 -8 -8 -19 -14 -24
-14 -6 0 -13 -14 -17 -31 -4 -18 -16 -35 -31 -41 -13 -6 -24 -15 -24 -20 0 -4
-16 -8 -35 -8 -19 0 -35 5 -35 10 0 6 -9 10 -20 10 -11 0 -20 -4 -20 -10 0 -5
-11 -10 -25 -10 -14 0 -25 -4 -25 -10 0 -5 -6 -10 -13 -10 -7 0 -18 -9 -25
-20 -8 -14 -23 -20 -47 -20 -24 0 -35 -5 -35 -14 0 -8 -9 -18 -20 -21 -23 -7
-26 -23 -6 -31 8 -3 16 -14 19 -25 3 -10 13 -22 23 -26 10 -3 25 -14 34 -22
41 -38 83 -71 91 -71 5 0 9 -7 9 -15 0 -8 4 -15 9 -15 5 0 12 -18 16 -40 4
-22 11 -40 15 -40 5 0 12 -28 16 -61 5 -48 11 -63 25 -66 11 -3 19 -14 19 -24
0 -11 7 -19 15 -19 8 0 19 -9 25 -20 6 -11 15 -20 21 -20 5 0 19 -9 31 -20 12
-11 29 -20 38 -20 9 0 25 -9 34 -19 10 -11 31 -25 47 -31 16 -7 29 -16 29 -20
0 -4 11 -12 25 -18 14 -6 25 -17 25 -23 0 -16 52 -69 68 -69 9 0 12 -8 8 -27
-9 -47 7 -98 32 -101 21 -3 32 -32 12 -32 -5 0 -10 -9 -10 -20 0 -11 -4 -20
-10 -20 -5 0 -10 -6 -10 -14 0 -9 15 -17 40 -21 38 -7 40 -8 40 -45 0 -24 5
-40 15 -44 22 -8 18 -34 -5 -41 -11 -3 -20 -15 -20 -26 0 -10 -7 -19 -15 -19
-8 0 -15 -7 -15 -15 0 -12 -14 -15 -65 -15 -53 0 -65 3 -65 16 0 13 -7 15 -37
9 -21 -4 -39 -11 -41 -16 -5 -13 -212 -12 -212 1 0 6 -18 10 -40 10 -22 0 -40
5 -40 10 0 6 -20 10 -45 10 -25 0 -45 5 -45 10 0 6 -18 10 -40 10 -22 0 -40
-4 -40 -10 0 -13 -77 -13 -82 0 -4 14 -226 18 -236 5 -14 -19 -130 -25 -141
-7 -3 6 -22 11 -41 11 -71 0 -130 13 -130 27 0 16 -37 19 -42 4 -2 -6 -29 -14
-61 -17 -47 -5 -57 -9 -57 -24 0 -12 -7 -19 -20 -19 -13 0 -20 -7 -20 -20 0
-14 -7 -20 -24 -20 -15 0 -26 -7 -29 -20 -6 -23 -37 -27 -37 -5 0 16 -36 21
-42 6 -1 -5 -20 -12 -40 -16 -31 -6 -38 -4 -38 9 0 28 -28 17 -35 -14 -6 -29
-8 -30 -66 -30 -32 0 -59 4 -59 9 0 5 -17 15 -37 22 -21 6 -41 16 -44 21 -3 5
-36 11 -72 13 -61 3 -67 2 -67 -16 0 -12 -7 -19 -20 -19 -13 0 -20 -7 -20 -20
0 -13 -7 -20 -20 -20 -13 0 -20 -7 -20 -20 0 -13 -7 -20 -20 -20 -15 0 -20 -7
-20 -25 0 -18 -5 -25 -20 -25 -16 0 -20 -7 -20 -34 0 -31 -3 -34 -37 -40 -21
-3 -50 -6 -65 -6 -18 0 -28 -5 -28 -15 0 -12 -13 -15 -60 -15 -57 0 -60 -1
-60 -25 0 -23 -4 -25 -45 -25 -38 0 -45 -3 -45 -20 0 -18 -7 -20 -60 -20 -57
0 -60 -1 -60 -25 0 -18 -5 -25 -20 -25 -13 0 -20 -7 -20 -20 0 -11 -4 -20 -10
-20 -5 0 -10 -6 -10 -14 0 -9 -20 -19 -55 -27 -30 -7 -55 -16 -55 -21 0 -4 -6
-8 -13 -8 -7 0 -23 -11 -35 -25 -12 -14 -26 -25 -32 -25 -5 0 -10 -7 -10 -15
0 -8 -11 -17 -25 -21 -14 -3 -25 -12 -25 -19 0 -14 -31 -25 -76 -25 -16 0 -39
-7 -50 -15 -20 -15 118 -18 1356 -21 304 0 504 -5 535 -11 28 -6 91 -18 141
-27 102 -17 124 -24 124 -37 0 -18 -47 -32 -129 -37 -52 -3 -95 -11 -110 -20
-14 -10 -55 -17 -110 -20 -57 -2 -100 -10 -127 -23 -22 -10 -47 -19 -56 -19
-20 0 -28 -65 -28 -246 0 -77 -3 -263 -7 -412 l-6 -272 -60 0 c-60 0 -127 -17
-127 -32 0 -4 47 -8 105 -8 79 0 114 4 138 16 19 11 72 20 137 24 58 5 121 15
140 23 19 8 78 17 130 20 53 4 113 13 134 22 21 9 54 15 74 13 49 -4 62 -32
62 -133 0 -44 5 -109 11 -145 5 -36 12 -81 16 -101 5 -33 2 -38 -31 -58 -26
-16 -63 -25 -133 -32 -54 -6 -121 -17 -150 -25 -28 -8 -89 -17 -135 -20 -46
-3 -104 -12 -129 -20 -25 -8 -94 -19 -152 -24 -59 -5 -116 -14 -127 -20 -11
-6 -67 -15 -125 -20 -58 -5 -124 -16 -148 -23 -23 -8 -84 -18 -135 -22 -51 -3
-108 -13 -125 -20 -18 -7 -75 -16 -127 -20 -52 -4 -113 -13 -135 -21 -22 -8
-88 -18 -146 -23 -59 -5 -116 -14 -127 -20 -12 -6 -70 -15 -130 -20 -60 -5
-119 -14 -131 -20 -12 -7 -71 -16 -131 -21 -60 -5 -119 -14 -131 -21 -12 -6
-71 -15 -131 -20 -61 -5 -129 -15 -151 -23 -23 -7 -82 -17 -132 -20 -49 -4
-108 -13 -130 -21 -22 -7 -79 -16 -125 -20 -47 -3 -103 -13 -126 -21 -22 -8
-87 -18 -145 -24 -57 -5 -129 -16 -159 -24 -30 -9 -82 -16 -116 -16 -34 0 -81
-7 -105 -16 -24 -9 -91 -20 -150 -25 -58 -4 -121 -15 -140 -23 -18 -7 -76 -17
-128 -21 -52 -4 -109 -13 -127 -21 -17 -7 -76 -16 -131 -20 -54 -3 -112 -12
-130 -20 -18 -8 -76 -17 -130 -21 -54 -3 -114 -12 -133 -20 -19 -8 -82 -18
-140 -22 -58 -4 -115 -13 -128 -20 -12 -7 -71 -16 -130 -21 -59 -5 -123 -15
-142 -23 -19 -8 -80 -17 -135 -20 -55 -3 -116 -12 -135 -20 -19 -8 -84 -17
-144 -21 -60 -3 -115 -11 -122 -17 -7 -6 -64 -15 -126 -20 -62 -6 -121 -14
-130 -20 -22 -12 -138 -29 -199 -29 -26 0 -62 -7 -82 -15 -19 -8 -79 -17 -134
-21 -54 -4 -114 -13 -133 -21 -19 -8 -85 -18 -146 -22 -61 -5 -121 -14 -133
-20 -12 -7 -71 -16 -131 -21 -60 -5 -119 -14 -130 -20 -11 -6 -70 -15 -129
-20 -60 -5 -133 -15 -162 -23 -30 -9 -94 -18 -142 -21 -49 -4 -98 -11 -109
-17 -11 -6 -68 -15 -127 -21 -58 -5 -128 -15 -156 -23 -27 -8 -86 -17 -130
-20 -44 -4 -101 -13 -127 -20 -26 -7 -84 -16 -130 -20 -46 -4 -106 -13 -133
-20 -28 -8 -95 -19 -150 -25 -55 -5 -129 -17 -165 -25 -36 -8 -85 -15 -109
-15 -24 0 -80 -9 -125 -19 -44 -10 -119 -22 -165 -25 -46 -4 -92 -11 -102 -17
-10 -5 -62 -14 -116 -19 -54 -5 -125 -16 -158 -24 -33 -8 -96 -17 -140 -21
-44 -4 -102 -13 -130 -20 -27 -8 -88 -17 -135 -21 -47 -4 -103 -13 -125 -21
-22 -8 -105 -19 -185 -23 -103 -6 -155 -14 -179 -26 -31 -16 -106 -18 -790
-26 -416 -4 -812 -12 -881 -17 -184 -13 -836 -13 -884 0 -34 9 -37 13 -22 21
10 5 63 14 118 19 56 4 122 15 147 23 25 8 84 17 129 21 46 4 101 13 123 20
21 8 78 17 126 21 48 4 106 13 128 21 22 8 86 19 142 23 56 5 112 14 124 20
12 7 68 16 126 21 58 5 114 14 125 20 11 6 66 15 121 20 56 6 120 16 142 23
22 8 78 17 125 21 47 3 106 13 131 21 25 8 91 18 146 23 55 5 110 14 122 21
12 6 68 15 125 19 57 5 113 14 125 20 11 7 70 16 130 21 59 6 123 16 142 24
19 7 78 17 132 20 54 4 112 13 130 20 17 8 74 17 126 21 51 4 110 13 131 20
21 7 80 16 131 20 52 4 109 14 128 21 18 8 72 17 120 20 47 3 115 15 150 25
35 10 89 19 120 19 32 0 80 7 107 15 27 9 95 20 152 26 57 5 113 14 124 20 11
6 66 15 121 20 56 6 120 16 143 24 22 7 81 17 130 20 49 4 107 13 129 21 22 8
83 19 135 24 52 5 120 16 150 25 30 8 82 15 115 15 33 1 78 8 100 16 22 8 85
19 140 24 55 5 118 16 140 24 22 7 81 16 132 20 51 4 108 13 127 21 19 8 74
18 123 21 48 3 104 13 123 21 20 9 75 18 130 21 54 3 107 11 124 19 16 8 74
18 130 23 55 4 115 13 131 20 17 6 75 16 130 21 55 5 118 15 140 22 22 8 81
17 132 21 51 4 108 13 127 21 19 8 74 17 123 21 48 3 106 12 128 21 22 8 80
17 130 20 53 4 99 12 113 21 14 9 57 16 115 19 59 3 109 11 139 24 32 13 71
19 121 19 45 0 98 7 133 19 33 10 100 21 151 25 51 4 108 13 128 22 20 8 79
17 133 21 53 3 110 12 126 20 17 9 72 17 130 21 60 3 110 11 122 19 13 8 70
17 140 22 66 5 137 16 159 24 22 9 71 16 110 17 44 0 92 8 128 20 36 13 82 20
127 20 45 0 91 7 127 20 32 11 74 20 94 20 66 0 129 12 129 25 0 19 34 25 145
25 89 0 102 2 113 20 11 18 23 20 117 20 58 0 105 4 105 9 0 5 -12 8 -26 5
-14 -3 -41 1 -59 7 -26 10 -35 20 -40 45 -3 20 -13 35 -25 39 -11 4 -20 11
-20 16 0 5 -7 9 -15 9 -8 0 -15 -4 -15 -10 0 -5 -9 -10 -20 -10 -14 0 -20 -7
-20 -21 0 -18 -4 -21 -29 -16 -39 8 -101 -3 -101 -18 0 -6 -21 -17 -47 -23
-47 -11 -49 -10 -75 20 -16 17 -28 42 -28 56 0 13 -8 39 -19 56 -10 17 -22 49
-26 71 -3 22 -12 49 -19 60 -7 11 -18 44 -25 73 -6 29 -17 65 -25 80 -7 15
-17 45 -21 67 -3 21 -13 52 -21 67 -8 16 -19 47 -24 71 -5 23 -17 66 -27 94
l-18 53 -52 0 c-33 0 -64 -7 -85 -19 -22 -13 -64 -21 -123 -26 -49 -4 -93 -12
-96 -18 -9 -13 -87 -26 -162 -26 -37 -1 -70 -8 -94 -21 -30 -16 -57 -20 -125
-20 -49 0 -88 -4 -88 -9 0 -16 -62 -31 -130 -31 -59 0 -68 -2 -73 -20 -5 -19
-14 -20 -124 -20 -106 0 -120 -2 -136 -20 -15 -18 -29 -20 -127 -20 -90 0
-110 -3 -110 -15 0 -18 -59 -35 -123 -35 -26 0 -73 -9 -104 -20 -42 -14 -83
-20 -150 -20 -74 0 -101 -4 -130 -20 -30 -16 -57 -20 -125 -20 -55 0 -91 -4
-100 -12 -18 -17 -25 -18 -148 -25 -73 -4 -110 -10 -122 -21 -13 -11 -48 -16
-120 -20 -75 -3 -108 -9 -121 -20 -14 -12 -45 -17 -120 -20 -75 -3 -107 -8
-120 -20 -13 -11 -44 -17 -110 -20 -61 -2 -108 -10 -139 -23 -30 -12 -70 -19
-113 -19 -40 0 -88 -8 -122 -20 -36 -12 -83 -20 -125 -20 -40 0 -92 -8 -125
-19 -32 -11 -95 -22 -140 -25 -45 -4 -97 -13 -115 -20 -19 -8 -74 -18 -124
-22 -49 -4 -101 -13 -115 -20 -14 -7 -68 -16 -120 -20 -52 -4 -107 -13 -122
-21 -16 -8 -70 -17 -120 -20 -51 -3 -105 -12 -120 -20 -15 -8 -69 -18 -120
-22 -51 -5 -105 -14 -122 -21 -16 -7 -74 -16 -128 -20 -53 -4 -104 -13 -111
-19 -8 -6 -62 -16 -121 -21 -59 -5 -113 -14 -121 -21 -7 -6 -61 -15 -120 -20
-59 -5 -113 -14 -120 -20 -7 -5 -57 -15 -111 -20 -54 -6 -114 -16 -134 -24
-19 -7 -73 -17 -119 -21 -47 -4 -100 -13 -118 -21 -18 -7 -70 -16 -115 -20
-45 -3 -98 -12 -117 -20 -19 -8 -69 -17 -110 -20 -41 -3 -104 -14 -139 -24
-35 -10 -89 -19 -120 -19 -31 -1 -74 -8 -96 -16 -22 -8 -82 -19 -133 -24 -51
-5 -112 -16 -135 -24 -23 -7 -79 -17 -125 -20 -46 -4 -97 -13 -115 -21 -18 -7
-72 -16 -122 -20 -49 -4 -103 -14 -120 -21 -18 -7 -67 -16 -111 -19 -43 -4
-97 -13 -120 -21 -22 -8 -81 -19 -130 -24 -49 -5 -114 -16 -144 -25 -30 -8
-79 -15 -110 -15 -30 -1 -73 -7 -95 -16 -22 -8 -84 -19 -138 -24 -54 -5 -107
-14 -118 -20 -11 -7 -64 -16 -116 -21 -53 -6 -105 -15 -115 -20 -11 -6 -63
-15 -116 -20 -53 -5 -113 -16 -132 -23 -19 -7 -71 -17 -114 -21 -44 -4 -97
-13 -119 -21 -22 -8 -72 -17 -111 -20 -39 -3 -89 -12 -111 -20 -22 -7 -80 -18
-130 -23 -49 -5 -103 -15 -120 -21 -16 -6 -71 -16 -120 -20 -50 -5 -106 -15
-125 -23 -19 -8 -73 -17 -120 -21 -47 -3 -103 -12 -125 -20 -22 -7 -77 -17
-123 -21 -46 -3 -97 -12 -115 -19 -18 -8 -72 -17 -120 -20 -48 -4 -104 -13
-125 -20 -21 -8 -76 -17 -122 -21 -46 -4 -101 -13 -121 -20 -21 -8 -75 -17
-121 -21 -45 -4 -100 -13 -121 -20 -21 -8 -68 -16 -105 -20 -37 -3 -100 -15
-141 -25 -41 -10 -96 -19 -123 -19 -26 0 -67 -7 -91 -15 -25 -8 -84 -19 -133
-24 -49 -5 -116 -17 -149 -25 -32 -9 -75 -16 -95 -16 -20 0 -63 -7 -95 -16
-33 -8 -98 -20 -145 -25 -46 -5 -107 -16 -135 -24 -27 -7 -79 -16 -115 -20
-36 -3 -87 -13 -115 -20 -27 -8 -84 -17 -125 -21 -41 -4 -93 -13 -114 -21 -21
-7 -71 -16 -110 -19 -39 -3 -104 -15 -145 -25 -41 -10 -93 -19 -115 -19 -23 0
-74 -9 -115 -20 -41 -11 -93 -20 -115 -20 -23 0 -77 -9 -121 -20 -44 -11 -95
-20 -114 -20 -18 0 -70 -9 -115 -19 -44 -11 -110 -22 -146 -26 -36 -3 -87 -12
-115 -20 -27 -7 -79 -17 -115 -20 -36 -4 -87 -13 -115 -20 -27 -8 -79 -17
-115 -20 -36 -4 -88 -13 -115 -20 -28 -8 -89 -19 -135 -24 -47 -5 -97 -14
-111 -20 -15 -5 -67 -14 -115 -20 -49 -5 -116 -17 -149 -25 -32 -9 -75 -16
-93 -16 -19 0 -73 -9 -120 -21 -85 -20 -137 -21 -249 -4 -41 7 -113 -9 -113
-24 0 -5 -49 -10 -109 -13 -84 -3 -113 -8 -126 -21 -20 -21 -6 -19 -147 -21
-92 -2 -118 0 -118 11 0 9 14 13 40 13 33 0 40 3 40 20 0 13 7 20 20 20 11 0
20 6 20 13 0 7 10 17 22 22 22 9 23 15 19 92 l-3 83 61 0 c54 0 61 2 61 20 0
17 7 20 45 20 38 0 45 3 45 20 0 13 7 20 20 20 18 0 20 7 20 55 l0 55 71 0
c67 0 73 2 101 32 30 32 30 35 25 103 -4 39 -12 94 -18 122 -7 28 -10 57 -7
65 6 16 130 52 233 68 39 6 92 18 119 26 27 7 65 14 84 14 19 0 71 9 116 19
44 11 110 23 146 26 36 4 76 12 90 17 14 6 66 16 115 23 80 12 138 22 310 55
28 6 82 15 120 21 39 6 109 20 156 30 48 10 100 19 116 19 16 0 63 9 104 19
41 10 104 22 142 25 37 4 79 11 94 17 15 5 63 15 108 20 44 6 103 16 130 24
28 8 82 17 120 21 39 4 86 12 106 19 20 7 67 16 105 20 38 3 92 13 119 20 28
8 90 19 139 25 49 6 96 15 105 19 9 5 43 12 76 15 33 4 101 15 150 26 50 10
122 23 160 29 39 6 93 15 120 21 157 30 229 43 309 55 49 8 101 18 115 24 14
6 64 15 111 20 47 5 99 15 115 21 17 6 70 16 118 21 49 5 96 13 107 19 10 5
56 14 103 19 47 6 109 17 139 25 29 8 84 18 122 21 38 4 86 13 106 20 20 7 68
16 106 20 38 4 89 13 114 21 25 7 84 18 132 23 48 6 96 15 107 21 11 5 60 14
110 19 49 5 99 15 111 21 11 6 60 15 108 21 48 5 103 16 123 23 19 8 69 18
110 21 41 4 90 14 109 22 19 8 73 18 120 23 47 4 98 15 114 23 16 9 67 19 115
22 54 5 92 13 103 22 12 11 48 17 110 20 65 4 98 10 111 22 13 11 47 17 115
21 63 4 108 12 127 23 22 12 54 17 115 17 63 0 92 4 109 16 15 11 57 19 125
24 56 4 113 13 127 20 13 8 68 17 121 21 55 3 105 12 113 19 9 7 59 17 112 21
53 5 110 15 127 22 17 8 71 18 120 21 49 4 98 14 110 21 12 8 59 17 106 21 47
3 96 13 109 21 14 9 63 19 117 23 52 4 100 12 109 20 9 7 60 17 117 22 64 5
108 14 118 23 10 9 51 17 110 21 55 4 104 13 118 22 13 9 59 17 115 20 67 4
95 9 103 21 9 11 37 17 112 21 73 4 105 9 118 22 14 11 48 18 117 23 74 6 99
11 106 24 8 13 31 17 118 19 83 3 112 8 127 20 14 13 43 18 122 20 57 2 104 7
104 12 0 17 66 30 146 30 65 0 84 3 84 14 0 21 23 26 126 26 74 0 94 3 94 14
0 18 26 24 133 32 48 4 84 11 81 15 -7 11 30 29 60 29 14 0 26 5 26 10 0 6
-15 10 -34 10 -53 0 -96 11 -96 25 0 10 -25 13 -97 13 -78 -1 -99 3 -108 16
-7 9 -20 16 -29 16 -9 0 -16 5 -16 10 0 6 -9 10 -20 10 -11 0 -20 5 -20 10 0
6 -36 10 -89 10 -74 0 -98 -4 -145 -26 -33 -15 -67 -40 -83 -60 l-26 -35 -74
6 c-62 6 -74 5 -79 -9 -3 -9 -10 -16 -14 -16 -13 0 -70 -57 -70 -70 0 -14 -25
-40 -38 -40 -6 0 -12 -7 -16 -15 -8 -22 -36 -18 -36 5 0 13 -7 20 -20 20 -13
0 -20 7 -20 19 0 12 -9 21 -25 25 -14 4 -25 13 -25 21 0 9 -9 15 -24 15 -34 0
-56 10 -56 25 0 8 -17 16 -40 20 -22 4 -40 11 -40 16 0 16 -62 10 -75 -7 -10
-14 -42 -17 -226 -20 -200 -4 -286 -9 -334 -21 -11 -3 -92 -7 -180 -9 -88 -2
-200 -9 -250 -14 -88 -9 -131 -13 -270 -25 -38 -3 -106 -12 -150 -20 -44 -7
-136 -19 -205 -25 -68 -6 -131 -15 -140 -19 -16 -9 -90 -22 -230 -42 -47 -7
-93 -19 -102 -27 -10 -8 -24 -12 -33 -9 -8 4 -15 2 -15 -2 0 -5 -18 -12 -40
-16 -22 -4 -40 -12 -40 -20 0 -13 -43 -25 -91 -25 -25 0 -29 4 -29 29 l0 28
-112 7 c-62 3 -142 2 -178 -4 -36 -5 -168 -12 -295 -16 -126 -3 -243 -10 -260
-16 -16 -5 -114 -14 -216 -18 -102 -5 -205 -14 -230 -21 -24 -6 -118 -15 -209
-19 -163 -7 -225 -15 -245 -30 -5 -4 -81 -10 -167 -11 -180 -5 -168 -12 -168
96 0 33 -7 73 -15 89 -18 35 -19 75 -1 98 7 10 36 22 65 28 28 5 62 17 75 25
14 9 58 21 98 26 40 5 89 16 108 23 19 8 60 17 90 20 30 4 75 14 100 22 25 7
72 18 105 23 33 5 89 16 125 24 36 9 89 21 118 27 93 18 156 31 202 41 25 6
68 15 95 20 28 6 84 19 125 30 41 10 103 23 138 28 34 6 66 12 71 15 4 3 73
10 152 16 79 6 180 17 224 25 44 8 140 19 213 25 72 6 144 15 160 21 15 6 95
15 177 21 85 6 167 17 190 25 27 10 97 18 210 22 111 4 178 11 194 20 16 9 89
16 220 21 111 4 209 13 226 19 17 7 110 16 208 20 133 6 182 12 193 22 16 17
31 82 45 199 5 47 16 113 24 147 8 34 15 83 15 110 1 26 9 66 20 88 11 22 20
60 20 85 1 25 7 63 15 85 16 42 20 155 7 155 -4 0 -24 -8 -44 -19 -28 -14 -71
-20 -170 -26 -78 -4 -136 -12 -140 -18 -4 -7 -110 -13 -315 -18 -169 -4 -326
-12 -348 -18 -22 -6 -125 -15 -230 -21 -104 -5 -208 -14 -230 -20 -22 -6 -116
-14 -210 -20 -93 -5 -206 -16 -250 -24 -44 -8 -125 -15 -181 -16 -56 0 -148
-9 -209 -20 -63 -12 -152 -20 -212 -20 -56 0 -138 -7 -180 -15 -185 -35 -397
-64 -518 -70 -71 -4 -170 -13 -220 -20 -49 -8 -146 -16 -215 -20 -69 -4 -163
-13 -210 -20 -47 -8 -141 -17 -210 -20 -69 -4 -146 -10 -171 -15 -25 -5 -115
-16 -200 -25 -85 -8 -172 -20 -194 -25 -22 -5 -116 -14 -210 -20 -93 -6 -186
-15 -206 -20 -20 -6 -114 -15 -210 -20 -96 -6 -190 -15 -209 -20 -19 -6 -111
-15 -205 -21 -93 -5 -190 -15 -215 -20 -24 -6 -108 -14 -185 -20 -77 -5 -180
-16 -230 -24 -49 -7 -144 -17 -210 -20 -66 -4 -156 -13 -200 -20 -44 -7 -132
-16 -195 -20 -63 -3 -155 -13 -205 -21 -49 -8 -153 -19 -230 -24 -77 -5 -161
-13 -186 -19 -26 -6 -119 -15 -207 -21 -88 -6 -175 -15 -193 -21 -19 -5 -104
-14 -189 -20 -85 -5 -191 -16 -235 -24 -44 -7 -129 -17 -190 -20 -60 -3 -146
-12 -190 -20 -45 -8 -150 -19 -235 -25 -85 -5 -173 -14 -195 -20 -22 -5 -110
-14 -195 -19 -85 -5 -179 -15 -208 -21 -79 -18 -273 9 -323 44 -13 9 -30 16
-37 16 -14 0 -40 18 -107 74 -32 26 -95 108 -95 124 0 4 -8 21 -17 37 -15 28
-38 157 -49 286 -7 67 -8 66 120 79 50 5 114 13 141 19 28 5 106 12 175 16 69
4 154 13 190 20 36 8 119 16 185 20 66 4 155 13 199 21 43 8 131 17 195 20 64
3 150 12 191 20 42 8 143 19 225 24 83 5 169 14 192 20 23 5 110 14 195 20 84
6 171 14 193 20 22 5 108 14 190 20 83 6 170 15 195 20 25 5 112 14 194 20 82
6 169 15 194 21 25 5 106 14 181 20 75 5 179 16 231 23 52 8 142 17 200 21 58
4 141 13 185 20 44 8 127 17 185 20 58 3 150 12 205 20 55 8 159 19 232 24 72
6 151 15 175 20 41 10 262 30 394 37 34 1 97 7 140 13 44 5 120 12 169 16 50
3 128 12 175 20 47 7 132 16 190 20 58 3 141 12 185 20 44 7 125 17 180 20 55
4 141 13 191 21 50 7 153 18 228 24 76 6 157 15 180 20 23 5 102 14 176 20 74
6 176 17 225 25 50 7 135 16 190 20 55 3 138 12 185 20 47 7 128 16 180 20 52
3 133 12 180 20 47 8 149 19 227 25 78 6 156 15 175 20 18 6 94 15 168 20 74
6 169 17 210 25 41 8 122 17 180 20 58 3 137 12 175 20 39 8 133 19 210 25 77
5 156 14 175 20 19 6 101 15 183 20 81 5 168 16 193 25 27 9 101 18 182 21 95
5 142 11 153 21 9 7 56 18 104 24 94 10 115 22 115 65 0 15 9 35 21 45 14 12
23 35 26 66 3 26 12 56 20 65 8 9 17 35 20 57 l6 41 -124 2 c-157 2 -226 -1
-259 -14 -14 -5 -110 -14 -215 -18 -104 -5 -203 -14 -219 -20 -17 -6 -114 -15
-217 -20 -103 -5 -198 -14 -213 -20 -14 -5 -110 -14 -213 -20 -104 -6 -206
-15 -228 -20 -22 -5 -113 -14 -203 -20 -89 -5 -181 -14 -205 -20 -23 -6 -116
-15 -206 -20 -91 -6 -183 -15 -205 -20 -23 -6 -110 -14 -195 -20 -84 -6 -194
-17 -245 -24 -50 -8 -147 -17 -216 -21 -69 -3 -145 -11 -169 -16 -24 -5 -129
-16 -233 -24 -105 -9 -194 -18 -199 -20 -4 -3 -93 -12 -196 -20 -103 -8 -213
-19 -243 -25 -30 -5 -122 -14 -203 -20 -82 -6 -167 -14 -190 -19 -23 -6 -111
-14 -194 -20 -84 -6 -172 -15 -196 -21 -24 -5 -114 -14 -200 -20 -86 -6 -180
-15 -209 -20 -29 -6 -118 -15 -198 -20 -80 -6 -185 -17 -235 -24 -49 -8 -139
-17 -200 -21 -60 -3 -150 -12 -200 -20 -49 -7 -135 -16 -190 -20 -55 -4 -138
-13 -185 -20 -47 -8 -137 -17 -200 -20 -63 -4 -155 -13 -205 -21 -49 -8 -153
-18 -230 -24 -77 -5 -165 -14 -195 -20 -30 -6 -121 -15 -201 -20 -81 -5 -168
-14 -193 -20 -26 -6 -115 -15 -199 -20 -84 -6 -188 -17 -232 -25 -44 -7 -134
-17 -200 -20 -66 -4 -154 -13 -195 -20 -41 -8 -127 -17 -190 -20 -63 -4 -155
-13 -205 -21 -49 -7 -156 -18 -237 -24 -80 -5 -168 -15 -195 -20 -26 -6 -103
-14 -171 -18 -139 -8 -142 -7 -161 63 -6 22 -15 101 -21 175 -5 74 -15 151
-20 170 -6 19 -15 94 -20 167 -6 72 -16 160 -24 195 -8 34 -17 110 -21 168 -3
57 -13 135 -20 172 -8 37 -17 111 -20 165 -4 54 -13 130 -21 168 -7 39 -18
129 -24 201 -5 72 -14 143 -20 158 -5 15 -15 90 -20 166 -5 76 -16 164 -24
196 -8 33 -17 112 -21 178 -3 65 -12 143 -20 175 -8 31 -19 112 -24 181 -5 69
-15 139 -21 155 -7 17 -16 89 -20 160 -5 72 -16 148 -24 170 -8 22 -17 96 -21
165 -6 88 -13 132 -24 150 -12 18 -17 59 -21 160 -4 121 -7 135 -22 134 -13
-1 -18 5 -18 22 0 15 -6 24 -15 24 -9 0 -15 -9 -15 -25 0 -18 -5 -25 -20 -25
-13 0 -20 -7 -20 -20 0 -13 -7 -20 -20 -20 -13 0 -20 -7 -20 -20 0 -12 -7 -20
-16 -20 -9 0 -18 -9 -21 -20 -3 -11 -11 -20 -18 -20 -8 0 -16 -17 -20 -40 -6
-34 -11 -40 -31 -40 -15 0 -24 6 -24 15 0 11 -11 15 -40 15 l-40 0 0 -40 c0
-33 -3 -40 -20 -40 -13 0 -20 -7 -20 -20 0 -17 -7 -20 -49 -20 l-50 0 -7 -45
c-7 -47 -2 -116 15 -220 6 -33 11 -116 12 -185 1 -69 7 -153 15 -187 7 -34 16
-108 19 -165 4 -57 13 -134 21 -171 8 -38 14 -89 14 -115 0 -26 7 -87 15 -137
51 -311 75 -479 96 -665 6 -58 15 -130 19 -160 26 -177 19 -943 -9 -1039 -6
-19 -17 -111 -26 -205 -8 -94 -19 -189 -25 -211 -5 -21 -12 -80 -15 -130 -3
-49 -15 -151 -25 -225 -10 -74 -24 -188 -30 -252 -5 -65 -15 -129 -20 -143 -6
-15 -15 -89 -20 -166 -7 -92 -16 -151 -26 -171 -9 -18 -19 -68 -22 -115 l-5
-83 -53 0 c-46 0 -54 3 -54 19 0 16 -11 19 -82 24 -45 3 -84 10 -86 16 -2 7
-45 11 -117 11 -121 0 -215 16 -215 35 0 15 -46 25 -116 25 -47 0 -54 2 -54
20 0 19 -7 20 -125 20 -104 0 -125 2 -125 15 0 8 -1 16 -2 16 -2 1 -80 4 -175
8 -94 3 -174 9 -178 13 -11 10 -6 463 5 538 6 36 15 157 20 270 5 113 14 228
20 255 5 28 14 147 19 265 5 118 14 228 20 243 7 17 11 113 11 238 0 179 -2
209 -15 209 -9 0 -15 9 -15 25 0 18 -5 25 -20 25 -13 0 -20 7 -20 20 0 13 -7
20 -20 20 -13 0 -20 -7 -20 -20 0 -17 -7 -20 -40 -20 -33 0 -40 -3 -40 -20 0
-18 -7 -20 -65 -20 -58 0 -65 -2 -65 -20 0 -17 -7 -20 -40 -20 -33 0 -40 3
-40 20 0 17 -7 20 -45 20 -38 0 -45 -3 -45 -20 0 -18 -7 -20 -60 -20 -53 0
-60 -2 -60 -20 0 -13 -7 -20 -20 -20 -14 0 -20 7 -20 21 0 21 -3 22 -67 16
-38 -4 -85 -7 -105 -7 -27 0 -38 -4 -38 -15 0 -8 -9 -15 -20 -15 -13 0 -20 7
-20 20 0 13 -7 20 -20 20 -13 0 -20 -7 -20 -20 0 -17 -7 -20 -45 -20 -37 0
-45 3 -45 18 0 17 -11 18 -161 17 -101 -1 -163 -6 -167 -12 -10 -16 -150 -26
-247 -18 -86 7 -118 25 -45 25 36 0 40 3 40 25 0 18 -5 25 -20 25 -13 0 -20 7
-20 20 0 18 -7 20 -65 20 -58 0 -65 -2 -65 -20 0 -19 -7 -20 -165 -20 -135 0
-165 -3 -165 -14 0 -9 -15 -17 -40 -21 -30 -5 -40 -11 -40 -26 0 -16 -7 -19
-41 -19 -32 0 -42 -4 -46 -19 -3 -13 -17 -22 -44 -26 -51 -9 -51 -31 1 -40 30
-5 40 -11 40 -26 0 -12 -7 -19 -20 -19 -11 0 -20 -7 -20 -15 0 -8 -9 -15 -20
-15 -11 0 -20 -4 -20 -10 0 -5 -18 -10 -40 -10 l-40 0 0 -55 c0 -52 -1 -55
-25 -55 -16 0 -25 -6 -25 -16 0 -9 -9 -18 -20 -21 -11 -3 -20 -9 -20 -14 0 -5
-9 -9 -20 -9 -16 0 -20 -7 -20 -30 0 -16 -5 -30 -11 -30 -24 0 -79 -65 -79
-92 0 -19 -5 -28 -15 -28 -13 0 -15 7 -9 35 4 23 2 35 -5 35 -6 0 -11 9 -11
19 0 11 -5 21 -10 23 -6 2 -13 27 -17 56 -3 28 -9 52 -13 52 -4 0 -17 9 -29
19 -31 27 -40 95 -17 120 15 16 16 25 7 58 -6 21 -11 55 -11 76 0 20 -4 37
-10 37 -5 0 -10 6 -10 13 0 8 -11 19 -25 25 -23 11 -25 16 -19 47 4 23 2 35
-5 35 -6 0 -11 9 -11 21 0 16 -5 20 -27 17 l-28 -3 -6 -122 c-4 -67 -14 -143
-22 -170 -9 -26 -21 -115 -27 -196 -6 -82 -15 -157 -20 -166 -5 -10 -16 -86
-25 -170 -9 -83 -20 -163 -25 -177 -6 -13 -15 -77 -20 -142 -6 -64 -19 -144
-29 -177 -10 -33 -22 -110 -26 -171 l-7 -112 -30 -6 c-53 -10 -68 -7 -68 14 0
18 -7 20 -72 20 -186 0 -388 13 -388 25 0 9 -30 14 -101 17 -72 3 -103 8 -109
18 -6 10 -37 15 -109 18 -88 4 -101 7 -101 22 0 25 -37 30 -241 30 -172 0
-179 1 -179 20 0 11 -4 20 -10 20 -13 0 -13 364 0 410 6 19 13 103 16 185 3
83 10 179 15 215 5 36 16 153 24 260 23 313 35 458 46 575 6 61 13 212 15 338
l5 227 -58 2 c-32 1 -73 2 -92 2 -19 1 -36 7 -38 14 -5 14 -43 17 -43 2 0 -5
-7 -10 -15 -10 -8 0 -17 14 -21 35 l-6 35 -62 1 c-33 1 -64 1 -68 0 -5 0 -8 5
-8 13 0 8 -9 18 -20 21 -11 3 -20 13 -20 21 0 8 -7 14 -15 14 -8 0 -15 -7 -15
-16 0 -13 -7 -15 -37 -9 -21 4 -39 11 -41 16 -6 16 -52 10 -52 -7 0 -13 -7
-15 -31 -10 -17 3 -35 6 -40 6 -5 0 -9 7 -9 16 0 13 -7 15 -40 9 -38 -6 -40
-6 -40 19 0 19 -5 26 -20 26 -13 0 -20 7 -20 20 0 15 -7 20 -25 20 -16 0 -25
-6 -25 -15 0 -8 -9 -15 -20 -15 -11 0 -20 7 -20 15 0 8 -9 15 -20 15 -11 0
-20 4 -20 8 0 10 -65 35 -100 39 -104 12 -110 14 -110 34 0 12 -7 19 -20 19
-11 0 -20 5 -20 10 0 6 -27 10 -60 10 -36 0 -60 4 -60 11 0 7 -31 8 -100 4
-85 -6 -101 -5 -106 8 -3 8 -14 17 -25 20 -10 3 -19 12 -19 21 0 9 -8 16 -19
16 -10 0 -24 7 -31 15 -7 8 -18 15 -25 15 -7 0 -15 6 -18 14 -4 10 -31 17 -81
21 -42 4 -76 11 -76 16 0 5 -15 9 -34 9 -63 0 -96 11 -96 32 0 18 -5 19 -35
14 -28 -6 -37 -3 -47 14 -14 22 -34 26 -40 8 -7 -19 -144 -14 -164 6 -8 9 -28
16 -44 16 -16 0 -33 6 -37 13 -11 19 -103 37 -184 37 -39 0 -69 4 -69 10 0 6
-20 10 -45 10 -25 0 -45 5 -45 10 0 6 -9 10 -20 10 -11 0 -20 6 -20 14 0 7
-14 16 -31 20 -45 9 -49 8 -49 -9 0 -21 -16 -19 -41 6 -15 15 -28 19 -50 14
-19 -4 -29 -3 -29 5 0 21 -26 38 -56 37 -84 -3 -114 3 -114 22 0 18 -6 19 -79
15 -62 -3 -82 -1 -94 11 -11 11 -36 15 -87 15 -63 0 -72 2 -77 20 -3 11 -14
20 -24 20 -10 0 -21 5 -24 10 -3 6 -27 10 -53 10 -26 0 -74 7 -107 15 -33 8
-84 14 -112 15 -41 0 -53 3 -53 16 0 12 -8 14 -45 8 -38 -5 -45 -4 -45 10 0 9
-8 16 -20 16 -11 0 -20 -7 -20 -15 0 -18 -37 -20 -42 -2 -4 9 -43 13 -143 14
-91 1 -141 6 -145 13 -4 7 -35 14 -69 17 -33 3 -61 10 -61 14 0 5 -18 9 -40 9
-22 0 -40 4 -40 8 0 10 -90 32 -130 32 -20 0 -31 6 -35 20 -3 11 -15 20 -26
20 -10 0 -19 4 -19 9 0 14 -51 20 -82 9 -15 -6 -28 -16 -28 -24 0 -8 -7 -14
-16 -14 -9 0 -18 -9 -21 -20 -3 -10 -14 -22 -24 -25 -10 -4 -19 -11 -19 -17 0
-10 -31 -52 -67 -93 -19 -20 -22 -25 -61 -91 -13 -22 -34 -57 -48 -79 -13 -22
-33 -58 -44 -80 -11 -22 -24 -47 -28 -55 -30 -52 -52 -101 -52 -112 0 -7 -7
-26 -16 -43 -19 -35 -50 -119 -70 -190 -8 -27 -21 -70 -28 -95 -8 -25 -18 -65
-22 -90 -3 -25 -13 -62 -20 -83 -7 -21 -18 -85 -24 -143 -6 -58 -17 -131 -25
-162 -7 -32 -16 -104 -20 -162 -4 -58 -13 -121 -21 -140 -8 -19 -19 -93 -23
-165 -6 -82 -14 -141 -24 -160 -10 -19 -18 -74 -23 -155 -8 -161 -15 -170
-121 -170 -65 0 -73 2 -73 19 0 20 -13 23 -170 37 -41 4 -77 10 -80 13 -18 22
-73 31 -195 31 -83 0 -135 4 -135 10 0 6 -18 10 -40 10 -22 0 -40 5 -40 10 0
6 -28 10 -65 10 -36 0 -65 4 -65 9 0 8 -30 13 -157 28 -41 4 -53 9 -53 23 0
15 -17 18 -141 24 -78 4 -148 10 -155 13 -18 7 -20 119 -2 125 13 5 26 114 27
224 1 33 7 74 15 90 8 16 17 67 21 114 3 47 12 99 20 115 7 17 16 58 19 92 4
35 13 78 20 95 7 18 16 57 20 87 4 29 13 63 20 75 8 11 17 44 21 71 4 28 12
59 18 70 6 11 16 43 23 70 19 73 44 146 60 177 8 14 14 34 14 43 0 10 8 36 19
59 10 23 29 68 41 101 13 33 34 85 47 115 47 104 104 225 114 240 5 8 14 26
19 40 6 14 14 32 20 40 5 8 26 47 46 85 20 39 40 72 44 75 5 3 11 17 15 32 4
15 15 34 26 44 10 9 19 22 19 28 0 6 9 22 20 36 11 14 20 32 20 40 0 9 9 23
20 33 11 9 20 26 20 37 0 11 9 25 20 32 11 7 20 23 20 35 0 13 5 23 12 23 9 0
9 3 0 12 -7 7 -12 20 -12 30 0 16 -6 18 -32 13 -35 -6 -71 9 -52 23 5 4 16 22
23 40 8 17 16 32 20 32 4 0 12 12 19 28 18 40 33 63 75 113 20 26 37 49 37 52
0 8 62 100 73 108 4 3 10 29 14 57 5 42 3 52 -9 52 -21 0 -28 42 -28 176 0 95
-3 114 -15 114 -8 0 -15 7 -15 15 0 8 7 15 15 15 8 0 15 -7 15 -15 0 -8 6 -15
14 -15 15 0 26 42 26 96 0 22 5 34 14 34 14 0 26 42 26 91 0 22 5 29 19 29 16
0 21 9 27 45 4 28 11 45 20 45 8 0 14 9 14 20 0 11 5 20 10 20 6 0 10 9 10 20
0 11 7 20 15 20 11 0 15 11 15 40 0 33 3 40 20 40 13 0 20 7 20 19 0 14 10 21
35 25 25 5 35 12 35 26 0 10 9 22 20 25 11 3 20 13 20 21 0 8 5 14 10 14 6 0
10 7 10 15 0 8 6 15 13 15 7 0 29 18 50 40 20 22 41 40 47 40 5 0 10 5 10 10
0 6 6 10 14 10 15 0 26 21 26 51 0 12 10 23 28 29 15 6 34 15 42 20 8 6 27 15
43 21 15 6 27 15 27 20 0 4 16 11 35 15 20 3 35 12 35 20 0 8 6 14 14 14 8 0
21 9 29 20 8 11 28 23 45 26 18 4 32 13 32 20 0 8 10 14 25 14 14 0 25 5 25
10 0 6 5 10 10 10 6 0 23 9 38 19 15 11 44 22 65 26 20 3 37 10 37 14 0 13 57
31 96 31 24 0 34 5 34 15 0 8 5 15 10 15 6 0 10 6 10 14 0 8 19 19 48 26 27 6
55 20 62 31 8 10 23 19 33 19 29 0 121 32 132 46 6 7 28 15 48 19 20 4 37 11
37 16 0 5 9 9 20 9 11 0 20 7 20 15 0 9 9 15 25 15 16 0 25 6 25 15 0 10 10
15 26 15 25 0 64 32 64 52 0 4 16 8 35 8 19 0 35 5 35 10 0 6 33 10 79 10 96
0 126 10 135 44 3 14 13 26 21 26 8 0 15 5 15 10 0 6 9 10 20 10 11 0 20 5 20
10 0 6 11 10 24 10 13 0 26 5 28 10 2 6 27 13 57 17 41 5 55 11 59 25 3 13 14
18 43 18 35 0 39 3 39 25 0 20 5 25 24 25 13 0 26 4 28 10 2 5 25 13 53 17 27
3 56 13 63 20 27 26 655 7 892 -27 36 -6 114 -17 174 -26 60 -8 117 -19 125
-23 9 -5 41 -12 71 -16 30 -4 66 -13 80 -20 14 -7 51 -16 83 -19 31 -4 63 -13
70 -20 7 -7 34 -16 61 -19 27 -4 57 -14 66 -22 9 -8 31 -15 48 -15 17 0 39 -8
49 -19 10 -10 38 -21 63 -25 24 -4 51 -13 60 -20 8 -8 31 -17 50 -20 26 -5 31
-4 20 3 -8 6 -22 11 -31 11 -9 0 -19 9 -22 20 -4 15 -14 20 -36 20 -20 0 -34
7 -41 20 -7 13 -21 20 -38 20 -16 0 -43 11 -62 25 -19 14 -43 25 -54 25 -11 0
-27 6 -35 14 -9 8 -39 20 -66 27 -28 7 -57 18 -65 25 -8 6 -33 15 -56 19 -22
3 -54 13 -70 21 -16 9 -56 20 -89 25 -32 6 -65 15 -71 20 -7 6 -43 15 -81 20
-37 6 -87 17 -110 24 -23 8 -81 19 -130 25 -48 6 -110 18 -138 26 -28 9 -118
19 -206 23 -141 7 -157 9 -177 29 -12 12 -26 22 -32 22 -5 0 -10 5 -10 10 0 6
9 10 20 10 11 0 20 7 20 15 0 10 17 16 60 21 50 5 60 10 60 25 0 11 5 19 10
19 6 0 10 9 10 20 0 11 7 20 15 20 9 0 15 9 15 25 0 24 3 25 55 25 48 0 55 2
55 20 0 11 7 20 15 20 8 0 15 6 15 13 0 7 16 19 35 27 19 8 35 20 35 27 0 8
12 13 33 13 30 0 34 4 46 45 7 25 19 45 27 45 8 0 14 9 14 20 0 15 7 20 25 20
20 0 25 5 25 25 0 18 5 25 20 25 16 0 20 7 20 35 0 34 1 35 40 35 33 0 40 3
40 20 0 16 7 20 35 20 28 0 35 4 35 20 0 16 -7 20 -35 20 -28 0 -35 -4 -35
-20 0 -17 -7 -20 -40 -20 -22 0 -40 3 -40 8 0 4 -13 7 -29 8 -29 1 -65 26 -54
38 12 12 -20 36 -48 36 -22 0 -29 5 -29 20 0 11 -4 20 -10 20 -5 0 -10 7 -10
15 0 8 5 15 10 15 14 0 12 48 -2 52 -7 3 -9 11 -3 24 4 10 7 47 7 82 -1 46 3
64 13 68 8 3 17 21 21 40 3 19 10 34 15 34 5 0 9 9 9 20 0 11 5 20 10 20 6 0
10 11 10 25 0 20 5 25 25 25 23 0 25 4 25 40 0 33 3 40 20 40 17 0 20 7 20 40
0 38 2 40 30 40 16 0 41 5 55 12 22 10 25 17 25 65 l0 53 -35 0 c-23 0 -35 5
-35 14 0 13 41 26 86 26 21 0 24 5 24 39 0 31 4 41 20 46 16 5 20 15 20 46 0
28 4 39 15 39 9 0 20 12 25 26 17 44 13 54 -25 54 -24 0 -35 5 -35 15 0 8 6
15 13 15 6 0 29 5 49 10 30 9 38 16 44 43 3 17 15 39 25 48 11 9 19 30 19 47
0 22 6 32 20 37 34 11 24 35 -15 35 -34 0 -35 1 -35 40 0 33 3 40 20 40 13 0
20 7 20 20 0 11 -7 20 -15 20 -9 0 -15 9 -15 25 0 15 6 25 14 25 17 0 28 50
20 90 -5 23 -3 30 10 30 9 0 16 8 16 20 0 17 -7 20 -50 20 -43 0 -50 3 -50 20
0 11 5 20 10 20 16 0 12 47 -5 54 -8 3 -15 13 -15 21 0 9 5 13 10 10 19 -12
40 16 40 51 0 19 5 34 10 34 6 0 10 9 10 20 0 11 -7 20 -15 20 -8 0 -15 9 -15
20 0 11 -7 20 -15 20 -10 0 -15 -10 -15 -29 0 -40 -22 -131 -31 -131 -5 0 -11
-17 -14 -37 -7 -39 -44 -125 -57 -131 -5 -2 -8 -21 -8 -42 0 -23 -5 -40 -14
-43 -8 -3 -15 -26 -18 -57 -4 -37 -11 -55 -27 -66 -14 -11 -21 -26 -21 -50 0
-31 -2 -34 -31 -34 -30 0 -31 -1 -25 -35 6 -32 5 -35 -17 -35 -26 0 -37 -16
-37 -53 0 -13 -9 -26 -22 -32 -13 -6 -29 -23 -36 -40 -7 -16 -17 -37 -23 -45
-5 -8 -12 -23 -15 -32 -4 -10 -13 -18 -20 -18 -8 0 -14 -7 -14 -15 0 -7 -6
-18 -13 -22 -7 -4 -18 -20 -24 -35 -7 -16 -19 -28 -28 -28 -8 0 -15 -4 -15
-10 0 -5 -9 -10 -20 -10 -11 0 -20 -4 -20 -10 0 -5 -11 -10 -25 -10 -21 0 -25
-5 -25 -30 0 -20 -5 -30 -15 -30 -8 0 -20 -9 -27 -20 -8 -12 -24 -20 -39 -20
-15 0 -34 -10 -47 -25 -13 -14 -33 -25 -47 -25 -20 0 -25 -5 -25 -25 0 -14 -4
-25 -10 -25 -5 0 -10 -7 -10 -15 0 -10 -11 -15 -35 -15 -19 0 -35 5 -35 10 0
6 -9 10 -20 10 -11 0 -20 -7 -20 -15 0 -8 -9 -15 -20 -15 -13 0 -20 7 -20 20
0 18 -7 20 -65 20 -58 0 -65 -2 -65 -20 0 -13 -7 -20 -20 -20 -13 0 -20 7 -20
20 0 13 -7 20 -20 20 -21 0 -24 9 -14 59 4 18 13 31 21 31 12 0 14 12 11 58
-3 51 -1 58 20 67 19 8 22 17 22 67 l0 58 -41 0 c-41 0 -41 0 -35 31 3 17 6
35 6 40 0 5 7 9 15 9 8 0 15 9 15 20 0 17 7 20 45 20 38 0 45 3 45 20 0 11 6
20 14 20 13 0 26 48 26 103 0 15 5 27 10 27 6 0 10 9 10 20 0 16 -7 20 -31 20
-30 0 -31 2 -25 31 3 17 6 35 6 40 0 5 7 9 15 9 11 0 15 12 15 45 0 38 3 45
20 45 19 0 20 7 20 105 0 98 1 105 20 105 13 0 20 7 20 20 0 13 -7 20 -20 20
-17 0 -20 7 -20 40 0 33 3 40 20 40 13 0 20 7 20 20 0 11 -7 20 -15 20 -8 0
-15 9 -15 20 0 11 6 20 14 20 10 0 13 16 13 65 -1 56 -3 65 -19 65 -11 0 -18
7 -18 20 0 11 -7 20 -15 20 -25 0 -20 67 5 75 16 5 20 15 20 51 0 24 5 44 10
44 6 0 10 15 10 33 0 26 9 41 40 70 28 26 40 44 40 64 0 20 11 37 37 61 21 17
41 32 45 32 5 0 8 7 8 15 0 8 5 15 10 15 6 0 10 6 10 14 0 8 9 18 20 21 11 3
20 13 20 21 0 8 7 14 15 14 10 0 15 -10 15 -30 0 -23 4 -30 20 -30 11 0 20 7
20 15 0 8 9 15 20 15 13 0 20 7 20 19 0 19 39 31 102 31 14 0 28 5 30 10 3 11
46 15 120 12 45 -2 47 -3 54 -37 5 -30 10 -35 34 -35 24 0 29 -5 34 -35 4 -19
11 -35 17 -35 18 0 69 -57 69 -78 0 -12 8 -23 19 -27 11 -3 22 -19 26 -35 4
-20 14 -32 30 -36 24 -6 25 -7 41 -127 3 -26 10 -50 15 -53 5 -3 9 -30 9 -60
0 -41 4 -54 15 -54 8 0 15 -9 15 -20 0 -13 7 -20 20 -20 17 0 20 7 20 40 0 33
3 40 20 40 13 0 20 7 20 20 0 13 7 20 20 20 17 0 20 7 20 45 0 41 2 45 25 45
18 0 25 5 25 20 0 13 7 20 20 20 13 0 20 7 20 20 0 13 7 20 20 20 16 0 20 7
20 34 0 30 4 34 31 40 17 3 44 6 60 6 28 0 29 2 29 45 0 43 1 45 29 45 49 0
91 12 91 26 0 7 9 16 20 19 11 3 20 10 20 14 0 5 14 14 30 21 17 7 30 16 30
21 0 5 7 9 15 9 8 0 15 5 15 10 0 6 11 10 24 10 13 0 26 5 28 10 2 6 30 13 63
16 94 8 125 14 125 25 0 16 41 52 80 71 33 16 12 17 -455 17 -269 0 -1349 4
-2400 8 -2377 10 -18144 11 -18167 1 -16 -7 -16 -10 -2 -45 8 -21 21 -50 29
-65 8 -14 15 -32 15 -40 0 -7 12 -35 25 -63 14 -27 25 -55 25 -62 0 -6 7 -24
15 -40 8 -15 26 -57 41 -93 14 -36 35 -83 45 -106 10 -23 19 -47 19 -55 0 -8
9 -27 20 -44 11 -16 20 -37 20 -45 0 -8 9 -32 20 -53 11 -20 20 -42 20 -48 0
-5 10 -34 23 -62 13 -29 34 -77 47 -107 12 -30 31 -73 41 -96 11 -23 19 -48
19 -55 0 -8 6 -23 14 -34 7 -11 19 -38 26 -60 7 -22 16 -45 21 -50 4 -6 14
-28 22 -50 27 -75 95 -240 111 -270 9 -16 16 -36 16 -43 0 -8 7 -26 15 -40 14
-27 32 -67 65 -152 35 -88 91 -225 105 -256 8 -16 39 -91 69 -165 29 -73 71
-174 91 -224 70 -167 87 -210 105 -255 38 -96 91 -226 100 -245 11 -23 41 -97
115 -280 65 -160 82 -201 101 -242 8 -17 14 -35 14 -40 0 -4 6 -20 14 -35 8
-14 19 -43 26 -65 7 -21 16 -42 20 -48 5 -5 25 -53 45 -105 20 -52 40 -99 44
-105 4 -5 17 -37 30 -70 23 -58 69 -169 96 -230 7 -16 16 -41 20 -55 4 -14 11
-29 15 -35 7 -9 74 -172 105 -255 8 -19 20 -48 29 -65 9 -16 16 -34 16 -39 0
-5 8 -27 19 -50 10 -23 29 -66 41 -96 13 -30 34 -78 47 -107 13 -28 23 -57 23
-63 0 -7 7 -24 15 -38 23 -43 43 -111 38 -132 -5 -18 -21 -26 -91 -49 -30 -9
-34 -8 -42 15 -6 14 -10 31 -10 37 0 7 -6 21 -14 32 -7 11 -19 38 -26 60 -7
22 -19 49 -26 60 -8 11 -14 25 -14 33 0 13 -36 98 -65 155 -8 16 -15 34 -15
40 0 7 -11 35 -25 62 -13 28 -25 55 -25 62 0 6 -7 24 -15 40 -8 15 -26 57 -41
93 -14 36 -34 83 -44 105 -10 22 -21 51 -25 65 -4 14 -14 34 -21 45 -8 11 -14
26 -14 35 0 8 -9 32 -20 53 -11 20 -20 43 -20 49 0 7 -7 27 -16 43 -9 17 -31
68 -49 115 -18 47 -40 99 -49 115 -9 17 -16 36 -16 43 0 6 -9 29 -20 49 -11
21 -20 44 -20 51 0 7 -9 30 -19 50 -11 20 -31 66 -46 102 -14 36 -33 77 -41
92 -8 14 -14 31 -14 38 0 10 -16 49 -65 155 -7 17 -26 59 -40 95 -15 36 -36
83 -46 106 -10 23 -19 44 -19 48 0 7 -29 73 -71 162 -10 23 -19 46 -19 52 0 6
-7 23 -15 39 -27 53 -65 142 -65 153 0 6 -9 28 -19 48 -11 20 -31 66 -46 102
-14 36 -30 73 -35 82 -5 9 -25 58 -45 108 -20 50 -40 99 -45 108 -5 9 -21 46
-36 82 -14 36 -35 83 -45 106 -10 23 -19 44 -19 48 0 8 -43 105 -65 149 -8 16
-15 34 -15 40 0 6 -9 29 -19 51 -10 23 -31 70 -46 106 -15 36 -36 83 -46 106
-10 23 -19 45 -19 49 0 4 -9 26 -19 49 -10 23 -31 70 -46 106 -15 36 -35 83
-44 105 -10 22 -28 65 -41 95 -12 30 -31 73 -41 96 -11 23 -19 47 -19 53 0 7
-9 29 -19 49 -11 20 -31 66 -46 102 -14 36 -33 77 -41 92 -8 14 -14 31 -14 38
0 10 -23 64 -71 166 -10 23 -19 48 -19 55 0 8 -6 23 -14 34 -7 11 -17 31 -21
45 -4 14 -15 43 -25 65 -34 77 -70 163 -70 169 0 3 -11 24 -25 46 l-25 40
-788 -2 c-433 -1 -857 -5 -942 -8z m8033 -1316 c4 -4 26 -8 49 -10 113 -10
159 -22 173 -43 3 -6 15 -11 26 -11 10 0 27 -9 36 -20 10 -11 21 -20 25 -20
16 0 79 -77 102 -125 21 -41 25 -66 25 -139 1 -66 -3 -96 -15 -114 -8 -13 -13
-26 -10 -29 2 -3 -5 -15 -17 -27 -12 -11 -31 -38 -42 -58 -11 -21 -26 -38 -33
-38 -8 0 -16 -9 -19 -20 -3 -13 -14 -20 -29 -20 -17 0 -24 -6 -24 -20 0 -16
-7 -20 -35 -20 -19 0 -35 -3 -35 -8 0 -4 -19 -6 -41 -4 -26 3 -44 0 -49 -8 -9
-14 -70 -4 -70 11 0 5 -16 9 -36 9 -21 0 -50 10 -72 25 -20 14 -43 25 -50 25
-23 0 -111 101 -129 149 -9 25 -20 48 -24 51 -11 8 -29 108 -29 163 0 37 8 68
28 106 25 52 90 131 106 131 5 0 20 9 35 19 15 11 51 23 79 27 29 3 52 10 52
15 0 10 14 12 23 3z m-2668 -718 c39 -19 91 -43 118 -55 26 -11 66 -30 90 -40
23 -10 71 -31 107 -46 36 -15 83 -35 105 -45 22 -10 51 -21 65 -25 14 -4 34
-14 45 -21 11 -8 26 -14 34 -14 7 0 32 -8 55 -19 23 -10 91 -37 151 -60 61
-23 138 -53 173 -67 34 -13 68 -24 75 -24 6 0 25 -7 41 -15 16 -9 46 -20 65
-25 20 -5 110 -34 201 -64 91 -31 194 -65 230 -76 36 -10 88 -26 115 -35 52
-17 118 -35 195 -56 25 -6 65 -18 90 -26 25 -8 76 -21 114 -28 37 -8 73 -19
80 -23 6 -5 36 -13 67 -16 30 -4 67 -13 81 -20 14 -8 55 -17 90 -21 34 -4 72
-13 84 -20 11 -7 51 -16 90 -20 38 -4 80 -13 94 -20 14 -7 61 -16 105 -20 44
-4 89 -13 100 -20 11 -7 61 -15 110 -19 50 -4 100 -14 112 -22 14 -9 49 -14
91 -14 38 0 94 -5 123 -12 69 -14 127 -12 212 8 56 13 101 15 250 11 223 -8
457 -32 457 -48 0 -5 18 -9 40 -9 22 0 40 -4 40 -9 0 -5 20 -12 45 -15 25 -4
45 -11 45 -17 0 -5 18 -9 40 -9 22 0 40 -4 40 -10 0 -5 9 -10 20 -10 11 0 20
-4 20 -9 0 -5 30 -14 66 -21 36 -7 86 -23 111 -36 36 -20 59 -24 131 -24 48 0
155 -7 237 -14 183 -16 265 -10 265 19 0 8 7 15 15 15 8 0 15 -6 15 -12 0 -24
111 -50 250 -58 294 -19 887 -32 1117 -26 161 4 244 3 248 -4 3 -6 48 -10 104
-10 74 0 102 -4 111 -14 14 -18 6 -163 -16 -272 -8 -39 -19 -125 -24 -190 -5
-66 -14 -135 -19 -154 -6 -19 -15 -94 -20 -166 -6 -72 -15 -143 -20 -158 -6
-14 -14 -69 -17 -122 -4 -58 -12 -101 -20 -109 -31 -31 -295 -34 -1299 -16
-433 8 -679 16 -715 24 -79 17 -592 17 -598 0 -2 -7 -12 -13 -23 -13 -10 0
-19 -4 -19 -9 0 -5 -24 -11 -52 -14 -125 -14 -158 -20 -158 -27 0 -4 -25 -12
-55 -19 -51 -12 -55 -14 -55 -42 0 -16 -8 -37 -18 -47 -15 -15 -20 -42 -26
-123 -4 -58 -14 -117 -22 -134 -8 -16 -19 -78 -25 -137 -5 -59 -14 -119 -20
-135 -6 -15 -17 -83 -25 -150 -8 -67 -18 -133 -24 -147 -5 -14 -14 -71 -20
-127 -5 -56 -15 -119 -20 -140 -6 -21 -17 -91 -25 -156 -9 -65 -22 -152 -30
-193 -8 -41 -14 -90 -15 -108 0 -18 -9 -77 -19 -130 -11 -53 -22 -128 -26
-165 -3 -38 -12 -93 -20 -122 -7 -29 -16 -91 -20 -137 -4 -46 -13 -107 -21
-136 -8 -29 -19 -99 -24 -155 -5 -56 -16 -120 -24 -142 -8 -22 -17 -85 -21
-140 -4 -58 -13 -115 -23 -135 -11 -23 -18 -72 -20 -145 -4 -93 -7 -112 -23
-123 -12 -8 -19 -25 -19 -46 0 -19 -3 -48 -6 -65 l-6 -31 -83 0 -82 0 -17 -67
c-10 -41 -23 -71 -36 -80 -11 -8 -20 -23 -20 -34 0 -20 -5 -21 -175 -17 -142
2 -178 6 -185 18 -8 12 -61 16 -322 22 -293 7 -428 19 -428 39 0 5 -34 9 -75
9 l-75 0 0 31 c0 19 7 37 18 45 15 11 17 34 20 166 3 106 8 161 18 180 9 17
16 75 20 150 3 68 12 146 19 173 8 28 16 97 20 155 4 58 13 132 20 165 7 33
16 103 19 155 4 52 11 113 16 135 5 22 15 94 20 160 6 66 15 138 20 160 6 22
15 96 20 165 6 69 15 142 21 162 5 21 14 95 19 166 5 70 14 141 20 156 6 16
13 86 17 155 3 69 12 144 19 166 9 27 14 91 14 192 0 167 6 153 -69 168 -55
12 -62 25 -61 117 0 46 4 112 9 148 5 36 9 124 10 195 2 143 8 194 23 213 14
17 5 185 -10 190 -7 2 -12 10 -12 18 0 8 -7 14 -16 14 -9 0 -18 8 -21 19 -4
14 -17 20 -54 23 -27 3 -57 12 -67 20 -9 9 -37 19 -62 23 -25 4 -61 16 -80 26
-19 11 -43 19 -53 19 -11 0 -33 7 -50 14 -35 16 -132 51 -187 67 -31 9 -72 24
-180 65 -19 7 -98 36 -175 64 -77 29 -169 63 -205 77 -36 14 -94 37 -130 50
-36 14 -89 36 -118 49 -29 13 -57 24 -63 24 -5 0 -27 9 -47 19 -57 29 -128 61
-138 61 -5 0 -31 12 -59 25 -27 14 -55 25 -61 25 -6 0 -17 7 -24 15 -7 8 -20
15 -30 15 -9 0 -38 11 -64 25 -26 14 -52 25 -59 25 -7 0 -23 9 -37 20 -14 11
-34 20 -45 20 -11 0 -31 9 -45 20 -14 11 -32 20 -41 20 -9 0 -27 8 -40 18 -13
11 -37 22 -53 26 -16 4 -41 16 -54 27 -14 10 -32 19 -42 19 -9 0 -25 9 -35 20
-10 11 -29 20 -42 20 -13 0 -31 9 -40 20 -10 11 -28 20 -40 20 -13 0 -32 9
-43 20 -11 11 -26 20 -33 20 -7 0 -23 7 -35 16 -18 13 -22 25 -22 73 0 32 9
87 20 121 13 39 20 90 20 137 0 45 7 96 19 131 11 34 21 98 23 157 3 62 11
111 20 130 9 18 17 69 20 128 4 80 9 102 25 120 11 12 26 32 32 44 11 21 13
21 49 7 20 -8 69 -30 107 -48z m-1792 -238 c18 -21 15 -52 -7 -73 -22 -21 -77
-18 -102 6 -29 27 -29 33 -4 69 17 24 25 27 57 23 22 -2 46 -13 56 -25z
m17507 -1148 c0 -5 -7 -10 -15 -10 -8 0 -15 5 -15 10 0 6 7 10 15 10 8 0 15
-4 15 -10z m-17807 -1666 c3 -4 0 -19 -8 -35 -8 -15 -15 -49 -15 -74 0 -63
-23 -112 -57 -126 -15 -6 -41 -17 -58 -25 -28 -13 -54 -22 -157 -59 -24 -8
-55 -22 -70 -30 -14 -8 -32 -15 -40 -15 -7 0 -30 -9 -51 -20 -57 -31 -104 -26
-193 20 -43 22 -82 40 -86 40 -3 0 -19 5 -34 10 l-27 11 34 24 c20 13 53 28
75 34 21 6 57 20 79 31 21 11 44 20 50 20 6 0 28 9 50 20 22 11 47 20 57 20 9
0 20 4 23 10 3 5 27 16 53 24 26 8 61 21 77 30 17 9 36 16 43 16 7 0 30 9 50
19 95 49 186 73 205 55z m10535 -239 c34 -5 62 -11 62 -15 0 -5 84 -10 188
-12 152 -2 192 -6 212 -19 18 -12 57 -18 137 -22 75 -3 120 -10 135 -19 13 -8
48 -17 79 -21 31 -3 77 -15 102 -26 26 -12 67 -21 94 -21 28 0 63 -8 83 -18
19 -11 52 -22 74 -25 21 -3 46 -13 55 -20 9 -8 33 -17 53 -21 21 -4 43 -13 51
-20 7 -8 29 -17 48 -21 19 -4 45 -16 58 -26 13 -11 32 -19 42 -19 10 0 21 -5
25 -11 3 -6 25 -19 48 -30 83 -40 116 -59 116 -69 0 -6 6 -10 13 -10 19 0 176
-112 251 -180 235 -210 403 -440 534 -730 60 -134 90 -221 133 -380 6 -25 20
-74 30 -110 10 -36 21 -94 25 -130 3 -36 11 -76 16 -90 17 -43 37 -512 27
-645 -5 -66 -12 -195 -15 -287 -6 -137 -10 -168 -21 -168 -8 0 -17 -9 -20 -20
-4 -15 -14 -20 -39 -20 -27 0 -34 4 -34 20 0 15 -7 20 -29 20 -25 0 -30 -4
-35 -37 -4 -21 -15 -56 -26 -78 -10 -22 -26 -67 -35 -100 -9 -33 -25 -68 -36
-78 -10 -10 -19 -24 -19 -32 0 -16 -27 -19 -79 -9 -17 4 -31 13 -31 20 0 8 -8
14 -17 15 -184 6 -306 17 -312 28 -5 8 -52 16 -127 23 -65 5 -122 15 -125 20
-9 14 -333 12 -337 -2 -5 -13 -49 -13 -54 0 -1 5 -63 12 -136 16 -91 5 -138
11 -147 21 -17 16 -325 19 -325 3 0 -15 -127 -13 -132 2 -3 8 -60 14 -183 19
-98 4 -181 12 -184 17 -3 5 -199 13 -439 19 -336 7 -436 13 -442 23 -6 10 -84
13 -346 17 -325 4 -430 13 -446 37 -5 7 -99 13 -270 18 -173 4 -264 10 -266
17 -2 7 -37 11 -88 11 -49 0 -84 4 -84 10 0 6 -9 10 -19 10 -11 0 -21 5 -23
11 -5 15 -411 14 -416 -1 -5 -13 -42 -13 -42 0 0 6 -33 10 -80 10 -47 0 -80 4
-80 10 0 6 -11 10 -24 10 -13 0 -26 5 -28 11 -2 7 -98 14 -288 21 -161 5 -286
13 -288 19 -2 5 -30 9 -63 9 -33 0 -59 4 -59 10 0 6 -20 10 -45 10 -25 0 -45
5 -45 10 0 6 -32 10 -76 10 l-76 0 4 94 c2 72 7 98 21 113 11 13 17 36 17 68
0 30 6 55 16 66 8 9 19 41 23 71 4 30 15 65 24 78 9 14 17 35 17 48 0 12 9 40
20 62 11 22 20 45 20 52 0 7 9 30 20 51 11 20 20 43 20 49 0 7 18 49 40 92 22
43 40 83 40 87 0 5 33 65 73 134 39 69 80 140 89 157 9 17 31 48 47 69 17 21
31 41 31 45 0 17 253 344 276 357 8 4 14 12 14 16 0 9 83 103 178 198 34 35
62 68 62 74 0 5 6 9 14 9 8 0 18 9 21 20 3 11 13 20 21 20 16 0 17 5 8 38 -4
13 -14 22 -25 22 -11 0 -19 5 -19 11 0 13 55 69 69 69 5 0 13 9 16 20 3 11 13
20 21 20 7 0 19 9 26 20 7 11 18 20 24 20 5 0 19 8 30 18 10 9 37 29 59 43 39
25 71 46 124 81 68 46 228 134 331 183 41 20 82 41 90 46 8 5 23 12 34 16 10
3 39 17 63 30 24 12 53 23 65 23 11 0 35 9 52 19 17 10 47 22 66 26 19 4 42
13 51 21 8 8 38 17 65 21 27 3 54 13 59 21 6 7 38 17 70 21 33 4 71 14 85 23
14 8 49 18 79 21 29 4 65 14 79 23 17 11 54 19 102 22 47 3 81 10 92 20 12 10
51 17 122 21 66 5 110 12 121 21 16 13 135 24 390 34 33 2 67 6 75 9 35 15
190 16 308 2z m-10915 -232 c-7 -2 -21 -2 -30 0 -10 3 -4 5 12 5 17 0 24 -2
18 -5z m-106 -39 c-3 -3 -12 -4 -19 -1 -8 3 -5 6 6 6 11 1 17 -2 13 -5z m-314
-131 c-7 -2 -21 -2 -30 0 -10 3 -4 5 12 5 17 0 24 -2 18 -5z m-106 -44 c-14
-8 -22 -8 -30 0 -8 8 -3 11 19 11 25 -1 27 -2 11 -11z m-102 -39 c-28 -12 -45
-12 -45 0 0 6 15 10 33 9 27 0 29 -2 12 -9z m-100 -40 c-3 -5 -15 -10 -26 -10
-10 0 -19 5 -19 10 0 6 12 10 26 10 14 0 23 -4 19 -10z m-105 -40 c0 -5 -11
-10 -25 -10 -14 0 -25 5 -25 10 0 6 11 10 25 10 14 0 25 -4 25 -10z m-106 -39
c3 -5 -1 -11 -9 -15 -15 -6 -29 7 -18 18 9 9 21 8 27 -3z m-1606 -3082 c140
-29 200 -182 110 -276 -45 -46 -90 -65 -159 -64 -68 0 -128 28 -172 81 -27 32
-44 103 -32 139 15 49 77 101 145 122 36 11 53 10 108 -2z m7077 -1795 c30
-33 31 -41 1 -77 -32 -39 -82 -35 -106 8 -16 29 -15 39 13 83 14 22 66 14 92
-14z m21500 -204 l0 -75 -54 -3 c-70 -4 -92 2 -130 34 -49 41 -37 102 24 117
11 3 52 4 90 4 l70 -2 0 -75z m-1581 -311 c33 -15 43 -61 21 -95 -34 -52 -101
-57 -123 -9 -37 81 21 140 102 104z m-22712 -20 c45 -23 65 -83 36 -107 -41
-34 -154 -21 -177 19 -40 72 55 132 141 88z m7203 -275 c33 -22 33 -63 -1 -93
-27 -24 -54 -22 -86 7 -25 22 -23 67 4 86 29 20 52 20 83 0z m13910 -294 c85
-41 138 -96 170 -180 26 -68 31 -118 16 -148 -5 -9 -18 -39 -28 -67 -26 -67
-112 -136 -207 -166 -58 -19 -81 -21 -158 -15 -160 12 -244 60 -300 169 -55
110 -48 223 20 311 80 105 159 137 319 131 89 -3 110 -8 168 -35z m-19726 -46
c68 -3 145 -12 170 -20 25 -8 87 -17 136 -20 50 -4 103 -13 120 -21 16 -7 60
-18 97 -23 37 -5 98 -19 135 -30 37 -12 88 -27 113 -34 89 -26 196 -59 240
-75 25 -8 63 -20 84 -26 49 -13 65 -35 47 -67 -31 -58 -48 -85 -69 -115 -12
-17 -22 -34 -22 -37 0 -4 -17 -30 -37 -59 -38 -53 -46 -64 -85 -126 -20 -32
-122 -91 -156 -91 -8 0 -26 -7 -40 -15 -30 -16 -94 -40 -162 -60 -25 -7 -58
-20 -75 -29 -16 -9 -39 -16 -50 -16 -11 0 -38 -9 -60 -20 -22 -11 -49 -19 -60
-20 -11 0 -37 -9 -58 -20 -20 -11 -47 -20 -59 -20 -13 0 -41 -9 -63 -19 -23
-10 -61 -21 -86 -25 -26 -4 -55 -13 -65 -21 -11 -8 -30 -15 -44 -15 -14 -1
-43 -8 -65 -16 -22 -9 -68 -22 -103 -29 -34 -7 -68 -17 -75 -23 -7 -6 -41 -15
-76 -21 -35 -6 -68 -15 -75 -20 -6 -6 -43 -15 -80 -21 -38 -6 -81 -17 -97 -25
-15 -8 -42 -15 -59 -15 -17 0 -56 -9 -88 -19 -31 -11 -84 -22 -117 -26 -33 -4
-74 -13 -92 -20 -17 -8 -73 -18 -124 -25 -50 -6 -100 -15 -110 -20 -10 -6 -46
-13 -81 -16 -35 -2 -115 -13 -178 -24 -63 -10 -180 -24 -260 -30 -80 -7 -192
-16 -250 -20 -137 -12 -418 -12 -545 0 -55 5 -163 14 -240 20 -77 6 -167 17
-200 24 -33 8 -85 17 -115 20 -61 8 -183 37 -275 67 -33 10 -67 19 -75 19 -8
1 -33 9 -55 20 -22 11 -47 20 -55 20 -24 1 -199 92 -278 145 -41 27 -86 64
-102 83 -29 36 -100 166 -100 186 -1 6 -9 29 -20 51 -11 22 -19 60 -20 85 0
25 -9 63 -20 85 -14 28 -20 59 -20 110 0 98 18 123 35 48 9 -45 156 -193 207
-208 12 -4 30 -13 38 -20 8 -8 29 -17 45 -21 17 -4 46 -15 65 -26 19 -10 47
-18 62 -18 15 0 50 -9 78 -20 28 -11 72 -20 98 -20 26 0 85 -7 132 -15 99 -17
188 -19 274 -5 33 6 106 17 161 25 144 21 251 42 272 53 10 5 38 13 63 17 42
6 106 24 220 62 25 8 65 19 90 25 25 6 54 17 65 24 11 8 29 14 40 14 11 0 43
11 70 25 28 13 59 25 70 25 11 0 34 9 50 20 17 11 38 20 48 20 10 0 35 8 55
19 42 21 105 50 172 79 25 11 71 32 102 46 31 14 63 26 70 26 8 0 22 6 33 14
11 7 31 17 45 21 14 4 43 15 65 25 73 32 213 81 300 105 28 8 70 21 95 29 97
33 152 46 255 61 58 8 111 18 117 22 16 9 277 21 388 17 52 -2 151 -6 219 -10z
m14145 -689 c66 -8 122 -13 125 -10 15 9 548 -48 560 -61 3 -2 -1 -10 -7 -16
-7 -7 -12 -20 -12 -30 0 -9 -9 -22 -21 -29 -16 -8 -18 -14 -10 -22 20 -20 130
-10 205 17 l69 24 51 -19 c111 -41 229 -50 746 -60 272 -5 505 -12 516 -14 12
-3 25 -12 28 -22 12 -30 -14 -216 -36 -254 -23 -42 12 -36 -423 -64 -132 -8
-296 -20 -365 -25 -380 -30 -873 -57 -1180 -66 -219 -6 -226 -5 -247 15 -29
28 -97 28 -251 0 -104 -19 -140 -20 -327 -15 -273 8 -572 24 -710 37 -60 6
-164 14 -230 19 -174 11 -1001 77 -1130 90 -60 6 -193 15 -295 20 -102 6 -255
14 -340 20 -85 5 -288 14 -450 20 -162 6 -394 15 -515 20 -246 11 -1025 26
-1025 19 0 -2 -7 -53 -15 -114 -8 -60 -15 -134 -15 -162 0 -29 -4 -53 -9 -53
-13 0 -20 81 -27 301 -7 187 -6 197 12 207 12 6 662 11 1814 15 1752 5 1799 6
1975 27 99 12 198 27 220 35 22 8 81 25 130 40 50 14 99 30 110 35 19 8 110
22 265 40 36 4 92 13 125 19 33 6 175 15 315 20 140 4 255 9 255 9 1 1 54 -5
119 -13z m-3219 -745 c-3 -5 -28 -10 -55 -10 -36 0 -50 -4 -56 -17 -4 -10 -10
-118 -12 -240 -2 -123 -7 -223 -12 -223 -5 0 -10 100 -12 223 -2 122 -8 230
-12 240 -6 13 -20 17 -62 17 -30 0 -54 5 -54 10 0 6 54 10 141 10 91 0 138 -4
134 -10z m505 -168 c0 -132 0 -133 25 -142 28 -11 25 -36 -6 -45 -12 -4 -20
-16 -21 -33 0 -15 -2 -31 -3 -37 -2 -5 -4 -23 -5 -40 -5 -55 -18 137 -19 282
-1 145 4 187 20 161 5 -7 9 -73 9 -146z m1418 72 c5 -37 17 -52 48 -56 14 -2
25 -7 25 -13 0 -5 -11 -11 -25 -13 -13 -2 -29 -9 -35 -16 -15 -18 -25 -160
-17 -229 7 -54 9 -57 42 -63 19 -3 34 -10 34 -15 0 -16 -54 -9 -78 9 -21 17
-23 25 -25 151 l-2 133 -29 23 -29 23 27 17 c17 12 26 26 26 44 0 51 33 55 38
5z m1676 -38 c15 -17 55 -59 89 -93 58 -59 60 -63 48 -89 -14 -31 -187 -199
-204 -199 -23 0 -37 401 -15 423 15 15 43 0 82 -42z m-2030 -35 c26 -25 26
-25 23 -168 -2 -86 -7 -147 -14 -154 -16 -16 -178 -25 -187 -10 -5 8 16 11 72
11 l80 0 7 33 c4 17 6 48 5 67 0 19 -2 71 -3 114 -2 90 -6 94 -89 95 -37 1
-53 -4 -74 -24 -26 -24 -44 -25 -44 -2 0 7 13 24 28 37 25 22 38 25 99 25 62
0 75 -3 97 -24z m744 12 c27 -24 39 -63 18 -63 -8 0 -19 8 -25 18 -8 13 -23
17 -73 17 -102 0 -98 6 -98 -145 0 -104 -3 -130 -14 -130 -20 0 -26 33 -26
150 0 103 1 106 31 138 28 30 34 32 98 32 51 0 74 -5 89 -17z m731 4 c17 -21
-7 -37 -56 -37 -38 0 -45 -3 -54 -27 -6 -16 -15 -71 -20 -123 -11 -112 -17
-134 -18 -65 -1 28 -8 81 -16 120 -22 103 -20 121 13 133 41 15 138 14 151 -1z
m-2711 -30 c3 -28 3 -28 -22 -12 -30 20 -121 24 -139 6 -16 -16 -27 -13 -27 7
0 29 8 32 99 29 l86 -2 3 -28z m382 17 c0 -9 -9 -18 -20 -21 -11 -3 -20 -12
-20 -19 0 -8 -7 -17 -15 -20 -8 -4 -15 -15 -15 -25 0 -19 -53 -59 -77 -59 -19
0 -16 23 5 42 9 9 23 23 30 30 91 92 112 106 112 72z m352 -16 c29 -32 33 -54
22 -120 l-7 -38 -96 -1 c-118 -1 -145 -8 -149 -37 -2 -12 -8 -22 -13 -22 -5 0
-9 36 -9 80 0 47 4 80 10 80 6 0 10 -13 10 -30 0 -42 25 -51 128 -48 l87 3 3
50 c1 28 -2 56 -7 64 -5 8 -35 15 -78 18 -66 5 -70 4 -86 -21 -20 -30 -41 -25
-31 7 11 37 34 47 113 47 71 0 76 -1 103 -32z m1436 -116 c2 -116 5 -142 17
-142 8 0 19 -9 25 -20 9 -16 21 -20 65 -20 29 0 57 -5 60 -11 10 -15 7 -16
-55 -21 -54 -5 -55 -5 -97 41 l-43 46 0 138 c0 107 3 138 13 135 9 -3 13 -44
15 -146z m252 4 c0 -79 -3 -157 -6 -174 -6 -28 -8 -29 -35 -19 -34 13 -38 41
-8 58 21 11 22 16 16 139 -3 71 -3 131 0 134 4 3 12 6 20 6 10 0 13 -31 13
-144z m26700 84 c0 -5 -2 -10 -4 -10 -3 0 -8 5 -11 10 -3 6 -1 10 4 10 6 0 11
-4 11 -10z m-29080 -134 c0 -135 -3 -145 -36 -138 -30 5 -31 28 -2 52 21 16
22 22 12 77 -9 59 0 123 17 123 5 0 9 -51 9 -114z m2004 13 c-2 -78 -7 -99
-21 -85 -10 10 -17 131 -9 162 6 21 10 24 19 15 8 -8 11 -42 11 -92z m6094 22
c6 -62 -49 -96 -98 -61 -23 17 -30 29 -30 56 0 28 6 38 32 54 31 19 33 19 63
2 22 -13 31 -27 33 -51z m21027 59 c-3 -5 -12 -7 -20 -3 -21 7 -19 13 6 13 11
0 18 -4 14 -10z m-28835 -60 c12 -23 4 -64 -11 -55 -9 6 -13 75 -4 75 2 0 9
-9 15 -20z m780 -21 c0 -5 -13 -12 -29 -15 -22 -5 -33 -15 -41 -38 -10 -28
-12 -29 -22 -12 -22 38 28 91 74 78 10 -2 18 -8 18 -13z m-1240 2 c0 -11 -48
-24 -61 -16 -5 4 -7 11 -4 16 8 12 65 12 65 0z m30046 -18 c10 -15 35 -19 161
-24 122 -4 103 -5 -107 -5 -140 -1 -220 2 -177 5 60 5 81 10 88 24 6 9 13 17
16 17 3 0 12 -8 19 -17z m-30121 -68 c0 -30 -5 -50 -12 -52 -10 -4 -13 11 -13
52 0 40 4 55 12 53 7 -3 12 -24 13 -53z m581 0 c7 -30 -2 -59 -16 -50 -13 8
-13 75 0 75 5 0 12 -11 16 -25z m28082 -5 c-108 -3 -199 -7 -202 -10 -3 -3 -9
-17 -15 -30 -9 -23 -10 -23 -10 -4 -1 27 -18 41 -56 47 -16 2 85 4 225 3 l255
0 -197 -6z m260 3 c-10 -2 -26 -2 -35 0 -10 3 -2 5 17 5 19 0 27 -2 18 -5z
m649 1 c-3 -3 -12 -4 -19 -1 -8 3 -5 6 6 6 11 1 17 -2 13 -5z m-28327 -40 c0
-27 -15 -32 -24 -9 -7 19 3 47 15 39 5 -3 9 -16 9 -30z m-495 -14 c-10 -16
-35 7 -28 27 5 13 7 13 21 0 8 -8 11 -20 7 -27z m1459 31 c9 -14 -4 -41 -20
-41 -8 0 -14 8 -14 18 0 29 22 43 34 23z m-2098 -51 c30 0 54 -4 54 -10 0 -6
-32 -10 -75 -10 -41 0 -75 4 -75 8 0 15 13 23 28 17 7 -3 38 -5 68 -5z m758 0
c30 0 37 -3 26 -10 -19 -12 -127 -13 -134 -1 -10 15 8 23 38 17 16 -3 47 -6
70 -6z m1299 -5 c-4 -15 -135 -13 -141 3 -3 10 13 12 70 10 42 -2 72 -7 71
-13z m26367 -144 c0 -14 8 -21 28 -24 22 -3 20 -4 -10 -6 -34 -1 -38 2 -38 24
0 14 5 25 10 25 6 0 10 -9 10 -19z m1250 9 c0 -5 -4 -10 -10 -10 -5 0 -10 5
-10 10 0 6 5 10 10 10 6 0 10 -4 10 -10z m1213 3 c-45 -2 -122 -2 -170 0 -48
1 -11 3 82 3 94 0 133 -2 88 -3z m-1738 -40 c-22 -3 -47 -11 -56 -19 -14 -12
-18 -13 -21 -2 -4 10 -49 14 -184 18 l-179 6 240 0 c132 0 222 -1 200 -3z
m1544 -169 c2 -2 -12 -4 -32 -4 -20 0 -38 4 -42 9 -5 9 64 4 74 -5z m283 -1
c-40 -2 -103 -2 -140 0 -37 2 -4 3 73 3 77 0 107 -2 67 -3z m-1757 -33 c3 -5
-3 -10 -15 -10 -12 0 -18 5 -15 10 3 6 10 10 15 10 5 0 12 -4 15 -10z m-232
-7 c-51 -2 -135 -2 -185 0 -51 1 -10 3 92 3 102 0 143 -2 93 -3z m-42835 -69
c31 -21 44 -49 36 -79 -11 -46 -81 -64 -121 -32 -27 21 -9 112 24 120 32 8 38
7 61 -9z m30651 -43 c11 -7 10 -11 -7 -20 -11 -6 -30 -11 -41 -11 -12 0 -30
-9 -41 -20 -11 -11 -30 -20 -42 -20 -13 0 -34 -9 -48 -20 -14 -11 -32 -20 -40
-20 -8 0 -37 -12 -65 -25 -27 -14 -55 -25 -61 -25 -6 0 -17 -7 -24 -15 -7 -8
-19 -15 -27 -15 -15 0 -103 -37 -165 -70 -20 -11 -44 -20 -53 -20 -9 0 -28 -9
-42 -20 -14 -11 -36 -20 -48 -20 -12 0 -33 -8 -46 -19 -13 -10 -38 -22 -56
-25 -17 -4 -37 -14 -43 -21 -7 -8 -28 -17 -49 -21 -20 -4 -43 -12 -51 -19 -8
-8 -28 -17 -45 -21 -16 -3 -37 -12 -45 -19 -8 -7 -33 -18 -55 -24 -22 -6 -49
-18 -59 -26 -11 -8 -34 -15 -50 -15 -17 0 -56 -7 -86 -15 -30 -8 -98 -20 -150
-26 -52 -6 -122 -17 -155 -24 -33 -7 -91 -16 -130 -20 -38 -3 -95 -12 -125
-20 -30 -7 -86 -16 -125 -20 -38 -3 -97 -13 -130 -20 -33 -7 -103 -18 -155
-24 -53 -6 -109 -15 -125 -21 -17 -5 -76 -14 -131 -19 -56 -6 -112 -15 -125
-20 -14 -5 -73 -14 -132 -20 -60 -7 -119 -16 -132 -21 -13 -5 -72 -14 -132
-21 -59 -6 -118 -15 -131 -20 -13 -5 -67 -14 -120 -20 -53 -6 -124 -17 -157
-24 -33 -7 -91 -17 -130 -20 -38 -4 -97 -13 -130 -20 -33 -7 -104 -18 -157
-24 -53 -6 -107 -15 -120 -20 -13 -5 -55 -12 -93 -16 -39 -3 -115 -15 -170
-25 -55 -10 -136 -23 -180 -29 -44 -6 -105 -15 -135 -20 -30 -5 -89 -15 -130
-20 -41 -6 -102 -16 -136 -23 -77 -14 -106 -7 -127 34 -10 18 -27 50 -40 70
-98 163 -103 179 -66 199 12 6 68 15 125 20 57 4 113 13 125 19 12 7 67 16
124 21 56 5 120 15 142 23 22 8 84 17 139 21 56 4 112 14 129 22 18 10 73 19
141 23 78 5 118 11 135 23 17 13 46 17 109 17 53 1 100 7 125 17 22 8 88 19
147 23 58 5 119 15 135 23 15 8 75 17 133 21 68 5 113 13 129 23 16 10 61 18
137 22 71 5 118 12 129 21 10 8 57 16 128 20 74 5 122 12 142 23 20 12 54 17
106 17 43 0 96 7 119 15 24 8 89 19 145 24 57 5 112 14 124 21 12 6 68 15 124
20 56 5 124 16 151 24 27 9 74 16 105 16 31 0 81 7 111 16 30 8 99 19 153 24
54 5 117 15 140 24 23 8 81 17 128 20 47 3 104 12 125 19 21 8 79 17 128 21
49 4 108 14 131 22 23 7 87 18 141 23 55 6 124 17 154 26 30 8 82 15 115 15
33 1 78 8 100 16 22 8 87 19 145 24 58 5 123 16 145 24 46 17 74 19 94 7z
m13746 -175 c11 -2 -86 -3 -215 -3 -129 0 -210 3 -180 6 53 6 355 3 395 -3z
m572 -2 c-3 -3 -12 -4 -19 -1 -8 3 -5 6 6 6 11 1 17 -2 13 -5z m260 -210 c-3
-3 -12 -4 -19 -1 -8 3 -5 6 6 6 11 1 17 -2 13 -5z m48 -44 c-3 -5 -12 -7 -20
-3 -21 7 -19 13 6 13 11 0 18 -4 14 -10z m55 -36 c0 -2 -9 -4 -21 -4 -11 0
-18 4 -14 10 5 8 35 3 35 -6z m-33680 -362 c0 -47 -26 -74 -68 -70 -47 4 -72
42 -56 85 19 56 124 43 124 -15z m34260 -119 c-12 -16 -33 -31 -46 -35 -14 -3
-109 -7 -212 -8 -103 -1 -230 -3 -282 -5 -349 -12 -962 -19 -1769 -19 -734 -1
-935 2 -939 12 -2 8 -26 12 -68 12 -35 0 -64 4 -64 8 0 10 673 22 1294 23 232
0 477 4 546 9 69 5 190 11 269 15 80 3 147 8 150 10 2 3 260 5 573 5 l569 0
-21 -27z m-3512 -46 c17 -13 -3 -37 -32 -37 -33 0 -47 18 -33 41 12 19 38 18
65 -4z m122 13 c0 -5 -7 -10 -15 -10 -8 0 -15 5 -15 10 0 6 7 10 15 10 8 0 15
-4 15 -10z"/>
<path d="M15062 10586 l-85 -49 -66 13 c-36 7 -112 15 -167 17 -88 4 -107 2
-147 -16 -25 -12 -61 -21 -79 -21 -18 0 -46 -9 -63 -20 -16 -11 -40 -20 -53
-20 -12 0 -39 -9 -59 -20 -21 -11 -44 -20 -51 -20 -11 0 -59 -22 -112 -52 -8
-4 -33 -17 -55 -28 -40 -20 -48 -24 -120 -70 -188 -118 -387 -302 -536 -495
-25 -33 -54 -75 -63 -92 -9 -18 -20 -33 -24 -33 -4 0 -13 -12 -20 -27 -16 -36
-42 -81 -65 -113 -9 -13 -17 -32 -17 -41 0 -9 -7 -22 -15 -29 -8 -7 -20 -31
-26 -54 -6 -22 -17 -48 -25 -57 -8 -9 -17 -34 -21 -55 -3 -22 -13 -45 -21 -52
-11 -8 -17 -34 -20 -78 -4 -54 -8 -67 -23 -71 -10 -3 -21 -18 -24 -34 -6 -28
-8 -29 -71 -29 -50 0 -64 -3 -64 -15 0 -8 -9 -19 -20 -25 -16 -8 -20 -21 -20
-59 l0 -49 40 -7 c22 -4 61 -5 87 -3 46 3 48 2 53 -27 l5 -30 1330 1 c1212 0
1337 2 1405 17 55 13 125 17 265 18 105 0 269 4 365 8 208 9 240 19 240 77 0
20 7 64 16 97 21 83 15 398 -10 502 -49 207 -73 292 -90 319 -8 11 -17 35 -21
51 -3 17 -12 37 -20 45 -7 8 -16 26 -20 39 -4 12 -18 39 -31 60 -13 20 -30 45
-37 55 -35 55 -112 139 -154 168 -39 27 -56 32 -90 30 -26 -2 -43 1 -43 8 0 6
-10 15 -22 20 -13 6 -41 24 -63 40 -49 37 -122 73 -195 96 -30 9 -63 21 -72
25 -10 5 -30 9 -44 9 -34 0 -198 43 -202 53 -5 9 -103 -3 -119 -15 -6 -5 -79
-10 -163 -12 -126 -2 -153 0 -158 12 -3 8 0 23 6 33 7 10 12 28 12 39 0 32
-43 21 -138 -34z"/>
<path d="M7328 5063 c23 -2 61 -2 85 0 23 2 4 4 -43 4 -47 0 -66 -2 -42 -4z"/>
<path d="M7977 5063 c18 -2 50 -2 70 0 21 2 7 4 -32 4 -38 0 -55 -2 -38 -4z"/>
<path d="M22217 3573 c-10 -10 -8 -221 2 -227 15 -10 111 90 111 114 0 13 -20
41 -51 71 -56 54 -53 52 -62 42z"/>
<path d="M24750 17125 c0 -18 5 -25 20 -25 11 0 20 -4 20 -10 0 -5 7 -10 15
-10 8 0 15 5 15 10 0 6 9 10 20 10 11 0 20 7 20 15 0 17 8 19 63 16 21 -2 37
2 37 8 0 7 -36 11 -105 11 l-105 0 0 -25z"/>
<path d="M25007 17118 c3 -18 10 -34 15 -36 4 -2 8 -10 8 -18 0 -8 9 -14 19
-14 33 0 51 -11 51 -31 0 -15 5 -18 24 -13 13 3 27 1 30 -5 4 -6 16 -11 26
-11 14 0 21 -10 26 -36 6 -34 9 -36 37 -30 16 3 33 6 38 6 5 0 9 7 9 15 0 8 9
15 20 15 11 0 20 6 20 14 0 10 16 17 48 21 105 14 122 17 122 26 0 5 9 9 20 9
15 0 20 7 20 25 0 18 5 25 20 25 11 0 20 5 20 10 0 6 7 10 15 10 8 0 15 7 15
15 0 8 15 19 33 24 21 6 -77 9 -305 10 l-337 1 6 -32z"/>
<path d="M54421 17024 c0 -11 3 -14 6 -6 3 7 2 16 -1 19 -3 4 -6 -2 -5 -13z"/>
<path d="M54420 16811 c0 -5 -13 -14 -30 -21 -16 -7 -30 -19 -30 -26 0 -8 -4
-14 -10 -14 -6 0 -10 -27 -10 -60 0 -47 3 -60 15 -60 10 0 15 -10 15 -34 0
-53 11 -96 26 -96 8 0 15 -18 19 -47 4 -27 8 -52 10 -58 2 -5 4 88 4 208 1
119 -1 217 -4 217 -3 0 -5 -4 -5 -9z"/>
<path d="M22580 15150 c0 -13 7 -20 20 -20 13 0 20 7 20 20 0 13 -7 20 -20 20
-13 0 -20 -7 -20 -20z"/>
<path d="M33720 14058 c0 -61 16 -54 22 10 2 29 0 42 -9 42 -9 0 -13 -16 -13
-52z"/>
<path d="M54410 11191 c0 -11 -4 -21 -10 -23 -12 -4 -32 -151 -24 -173 6 -16
-16 -75 -28 -75 -5 0 -8 -25 -8 -55 0 -61 11 -54 -112 -76 -61 -11 -68 -15
-73 -41 -4 -15 -13 -32 -22 -36 -12 -7 -15 -35 -16 -148 -1 -135 -1 -139 21
-149 12 -5 22 -13 22 -17 0 -5 6 -8 14 -8 19 0 28 -27 20 -65 -4 -25 -2 -34
12 -39 14 -5 16 -15 11 -54 -7 -59 1 -102 19 -102 8 0 14 -8 14 -19 0 -10 9
-21 21 -24 11 -3 23 -15 26 -26 3 -12 9 -21 14 -21 5 0 9 -9 9 -20 0 -11 5
-20 10 -20 6 0 10 -27 10 -60 0 -33 4 -60 10 -60 6 0 10 -8 10 -18 0 -24 19
-42 46 -42 19 0 22 7 28 77 14 174 1 1313 -16 1313 -4 0 -8 -9 -8 -19z"/>
<path d="M25681 10843 c-1 -82 -14 -170 -31 -208 -5 -11 -14 -66 -19 -122 -6
-56 -17 -121 -25 -145 -8 -24 -19 -73 -25 -110 -6 -36 -18 -79 -26 -95 -24
-46 -19 -72 18 -88 21 -9 36 -10 44 -3 20 16 41 98 48 183 4 44 13 113 21 153
15 79 18 365 4 462 -7 54 -7 54 -9 -27z"/>
<path d="M51522 5380 c-19 -4 -39 -13 -45 -19 -8 -8 18 -11 99 -11 l109 1 -24
19 c-25 21 -77 25 -139 10z"/>
<path d="M51245 5326 c-28 -13 -24 -14 68 -15 75 -1 98 2 95 12 -6 18 -126 20
-163 3z"/>
<path d="M51010 5285 c-34 -13 -31 -13 55 -14 81 0 88 1 71 14 -24 18 -79 18
-126 0z"/>
<path d="M50775 5244 c-29 -13 -28 -13 35 -14 44 0 61 3 54 10 -17 17 -57 19
-89 4z"/>
<path d="M50525 5200 c-15 -6 -8 -9 28 -9 26 -1 47 3 47 7 0 11 -51 12 -75 2z"/>
<path d="M50293 5153 c9 -2 23 -2 30 0 6 3 -1 5 -18 5 -16 0 -22 -2 -12 -5z"/>
<path d="M50005 5121 c-13 -13 -1 -21 30 -21 25 0 35 5 35 15 0 11 -9 15 -30
13 -17 -1 -33 -4 -35 -7z"/>
</g>
</svg>
